Amiri-Regular.ufo
<glyph name="exclam" format="2">
	<unicode hex="0021"/>
	<advance width="235"/>
	<outline>
		<contour>
			<point x="122" y="666" type="curve" smooth="yes"/>
			<point x="136" y="666"/>
			<point x="147" y="660"/>
			<point x="154" y="648" type="curve" smooth="yes"/>
			<point x="161" y="636"/>
			<point x="165" y="623"/>
			<point x="165" y="609" type="curve" smooth="yes"/>
			<point x="165" y="539"/>
			<point x="154" y="393"/>
			<point x="131" y="168" type="curve"/>
			<point x="127" y="160"/>
			<point x="122" y="156"/>
			<point x="115" y="155" type="curve"/>
			<point x="109" y="158"/>
			<point x="105" y="161"/>
			<point x="103" y="166" type="curve"/>
			<point x="83" y="391"/>
			<point x="73" y="538"/>
			<point x="73" y="609" type="curve" smooth="yes"/>
			<point x="73" y="623"/>
			<point x="78" y="636"/>
			<point x="87" y="648" type="curve" smooth="yes"/>
			<point x="96" y="660"/>
			<point x="108" y="666"/>
		</contour>
		<component base="dot.2" xOffset="-39"/>
	</outline>
</glyph>
<glyph name="parenleft" format="2">
	<unicode hex="0028"/>
	<advance width="458"/>
	<outline>
		<contour>
			<point x="220" y="166" type="curve" smooth="yes"/>
			<point x="220" y="47"/>
			<point x="241" y="-66"/>
			<point x="283" y="-173" type="curve" smooth="yes"/>
			<point x="316" y="-256"/>
			<point x="360" y="-321"/>
			<point x="415" y="-369" type="curve"/>
			<point x="400" y="-386" type="line"/>
			<point x="297" y="-305"/>
			<point x="224" y="-199"/>
			<point x="182" y="-68" type="curve" smooth="yes"/>
			<point x="158" y="6"/>
			<point x="146" y="84"/>
			<point x="146" y="166" type="curve" smooth="yes"/>
			<point x="146" y="341"/>
			<point x="196" y="490"/>
			<point x="294" y="611" type="curve" smooth="yes"/>
			<point x="326" y="650"/>
			<point x="361" y="686"/>
			<point x="400" y="717" type="curve"/>
			<point x="415" y="696" type="line"/>
			<point x="345" y="640"/>
			<point x="291" y="550"/>
			<point x="256" y="426" type="curve" smooth="yes"/>
			<point x="232" y="342"/>
			<point x="220" y="255"/>
		</contour>
	</outline>
</glyph>
<glyph name="parenright" format="2">
	<unicode hex="0029"/>
	<advance width="458"/>
	<outline>
		<contour>
			<point x="238" y="166" type="curve" smooth="yes"/>
			<point x="238" y="47"/>
			<point x="217" y="-66"/>
			<point x="175" y="-173" type="curve" smooth="yes"/>
			<point x="142" y="-256"/>
			<point x="99" y="-321"/>
			<point x="44" y="-369" type="curve"/>
			<point x="58" y="-386" type="line"/>
			<point x="161" y="-305"/>
			<point x="234" y="-199"/>
			<point x="276" y="-68" type="curve" smooth="yes"/>
			<point x="300" y="6"/>
			<point x="312" y="84"/>
			<point x="312" y="166" type="curve" smooth="yes"/>
			<point x="312" y="341"/>
			<point x="263" y="490"/>
			<point x="165" y="611" type="curve" smooth="yes"/>
			<point x="133" y="650"/>
			<point x="97" y="686"/>
			<point x="58" y="717" type="curve"/>
			<point x="44" y="696" type="line"/>
			<point x="114" y="640"/>
			<point x="167" y="550"/>
			<point x="202" y="426" type="curve" smooth="yes"/>
			<point x="226" y="342"/>
			<point x="238" y="255"/>
		</contour>
	</outline>
</glyph>
<glyph name="period" format="2">
	<unicode hex="002E"/>
	<advance width="317"/>
	<outline>
		<contour>
			<point x="120" y="208" type="line" smooth="yes"/>
			<point x="125" y="221"/>
			<point x="134" y="222"/>
			<point x="148" y="212" type="curve" smooth="yes"/>
			<point x="236" y="151" type="line" smooth="yes"/>
			<point x="246" y="144"/>
			<point x="247" y="131"/>
			<point x="239" y="111" type="curve" smooth="yes"/>
			<point x="200" y="18" type="line" smooth="yes"/>
			<point x="193" y="1"/>
			<point x="180" y="-1"/>
			<point x="162" y="13" type="curve" smooth="yes"/>
			<point x="87" y="70" type="line" smooth="yes"/>
			<point x="74" y="80"/>
			<point x="70" y="90"/>
			<point x="75" y="101" type="curve" smooth="yes"/>
		</contour>
	</outline>
</glyph>
<glyph name="slash" format="2">
	<unicode hex="002F"/>
	<advance width="344"/>
	<outline>
		<contour>
			<point x="302" y="702" type="curve" smooth="yes"/>
			<point x="309" y="702"/>
			<point x="312" y="699"/>
			<point x="314" y="693" type="curve"/>
			<point x="71" y="-164" type="line" smooth="yes"/>
			<point x="70" y="-168"/>
			<point x="66" y="-172"/>
			<point x="58" y="-178" type="curve" smooth="yes"/>
			<point x="51" y="-183"/>
			<point x="43" y="-186"/>
			<point x="33" y="-186" type="curve" smooth="yes"/>
			<point x="29" y="-186"/>
			<point x="25" y="-185"/>
			<point x="22" y="-184" type="curve" smooth="yes"/>
			<point x="19" y="-183"/>
			<point x="17" y="-182"/>
			<point x="16" y="-181" type="curve" smooth="yes"/>
			<point x="15" y="-179" type="line"/>
			<point x="263" y="688" type="line" smooth="yes"/>
			<point x="263" y="689"/>
			<point x="265" y="691"/>
			<point x="268" y="693" type="curve" smooth="yes"/>
			<point x="271" y="695"/>
			<point x="276" y="697"/>
			<point x="282" y="699" type="curve" smooth="yes"/>
			<point x="288" y="701"/>
			<point x="295" y="702"/>
		</contour>
	</outline>
</glyph>
<glyph name="bracketleft" format="2">
	<unicode hex="005B"/>
	<advance width="361"/>
	<outline>
		<contour>
			<point x="165" y="710" type="curve" smooth="yes"/>
			<point x="314" y="716" type="line"/>
			<point x="317" y="710" type="line" smooth="yes"/>
			<point x="317" y="709"/>
			<point x="317" y="708"/>
			<point x="317" y="707" type="curve" smooth="yes"/>
			<point x="317" y="700"/>
			<point x="315" y="695"/>
			<point x="309" y="692" type="curve" smooth="yes"/>
			<point x="308" y="692"/>
			<point x="308" y="691"/>
			<point x="308" y="691" type="curve" smooth="yes"/>
			<point x="283" y="683"/>
			<point x="244" y="676"/>
			<point x="193" y="669" type="curve"/>
			<point x="193" y="-339" type="line"/>
			<point x="259" y="-349" type="line"/>
			<point x="280" y="-353"/>
			<point x="297" y="-357"/>
			<point x="308" y="-361" type="curve"/>
			<point x="315" y="-365"/>
			<point x="317" y="-370"/>
			<point x="317" y="-377" type="curve" smooth="yes"/>
			<point x="317" y="-379"/>
			<point x="317" y="-381"/>
			<point x="316" y="-382" type="curve" smooth="yes"/>
			<point x="315" y="-385" type="line" smooth="yes"/>
			<point x="314" y="-386" type="line"/>
			<point x="227" y="-381" type="line"/>
			<point x="206" y="-380"/>
			<point x="185" y="-380"/>
			<point x="165" y="-380" type="curve"/>
			<point x="154" y="-379"/>
			<point x="148" y="-371"/>
			<point x="146" y="-357" type="curve"/>
			<point x="146" y="688" type="line" smooth="yes"/>
			<point x="146" y="698"/>
			<point x="150" y="704"/>
			<point x="156" y="708" type="curve" smooth="yes"/>
			<point x="159" y="710"/>
			<point x="161" y="710"/>
		</contour>
	</outline>
</glyph>
<glyph name="backslash" format="2">
	<unicode hex="005C"/>
	<advance width="344"/>
	<outline>
		<contour>
			<point x="43" y="702" type="curve" smooth="yes"/>
			<point x="36" y="702"/>
			<point x="32" y="699"/>
			<point x="30" y="693" type="curve"/>
			<point x="274" y="-164" type="line" smooth="yes"/>
			<point x="275" y="-168"/>
			<point x="279" y="-172"/>
			<point x="287" y="-178" type="curve" smooth="yes"/>
			<point x="294" y="-183"/>
			<point x="302" y="-186"/>
			<point x="312" y="-186" type="curve" smooth="yes"/>
			<point x="316" y="-186"/>
			<point x="320" y="-185"/>
			<point x="323" y="-184" type="curve" smooth="yes"/>
			<point x="326" y="-183"/>
			<point x="327" y="-182"/>
			<point x="328" y="-181" type="curve" smooth="yes"/>
			<point x="330" y="-179" type="line"/>
			<point x="82" y="688" type="line" smooth="yes"/>
			<point x="82" y="689"/>
			<point x="80" y="691"/>
			<point x="77" y="693" type="curve" smooth="yes"/>
			<point x="74" y="695"/>
			<point x="69" y="697"/>
			<point x="63" y="699" type="curve" smooth="yes"/>
			<point x="57" y="701"/>
			<point x="50" y="702"/>
		</contour>
	</outline>
</glyph>
<glyph name="bracketright" format="2">
	<unicode hex="005D"/>
	<advance width="361"/>
	<outline>
		<contour>
			<point x="196" y="710" type="curve" smooth="yes"/>
			<point x="47" y="716" type="line"/>
			<point x="44" y="710" type="line" smooth="yes"/>
			<point x="44" y="709"/>
			<point x="44" y="708"/>
			<point x="44" y="707" type="curve" smooth="yes"/>
			<point x="44" y="700"/>
			<point x="46" y="695"/>
			<point x="52" y="692" type="curve" smooth="yes"/>
			<point x="53" y="692"/>
			<point x="54" y="691"/>
			<point x="54" y="691" type="curve" smooth="yes"/>
			<point x="79" y="683"/>
			<point x="117" y="676"/>
			<point x="168" y="669" type="curve"/>
			<point x="168" y="-339" type="line"/>
			<point x="103" y="-349" type="line"/>
			<point x="82" y="-353"/>
			<point x="65" y="-357"/>
			<point x="54" y="-361" type="curve"/>
			<point x="47" y="-365"/>
			<point x="44" y="-370"/>
			<point x="44" y="-377" type="curve" smooth="yes"/>
			<point x="44" y="-379"/>
			<point x="44" y="-381"/>
			<point x="45" y="-382" type="curve" smooth="yes"/>
			<point x="46" y="-385" type="line" smooth="yes"/>
			<point x="47" y="-386" type="line"/>
			<point x="135" y="-381" type="line"/>
			<point x="156" y="-380"/>
			<point x="176" y="-380"/>
			<point x="196" y="-380" type="curve"/>
			<point x="207" y="-379"/>
			<point x="213" y="-371"/>
			<point x="215" y="-357" type="curve"/>
			<point x="215" y="688" type="line" smooth="yes"/>
			<point x="215" y="698"/>
			<point x="212" y="704"/>
			<point x="206" y="708" type="curve" smooth="yes"/>
			<point x="203" y="710"/>
			<point x="200" y="710"/>
		</contour>
	</outline>
</glyph>
<glyph name="braceleft" format="2">
	<unicode hex="007B"/>
	<advance width="397"/>
	<outline>
		<contour>
			<point x="190" y="-225" type="curve" smooth="yes"/>
			<point x="187" y="-273"/>
			<point x="209" y="-321"/>
			<point x="254" y="-371" type="curve" smooth="yes"/>
			<point x="260" y="-379"/>
			<point x="259" y="-387"/>
			<point x="252" y="-394" type="curve" smooth="yes"/>
			<point x="245" y="-401"/>
			<point x="237" y="-402"/>
			<point x="229" y="-395" type="curve" smooth="yes"/>
			<point x="177" y="-351"/>
			<point x="150" y="-286"/>
			<point x="149" y="-201" type="curve" smooth="yes"/>
			<point x="148" y="-163"/>
			<point x="157" y="-117"/>
			<point x="177" y="-66" type="curve" smooth="yes"/>
			<point x="195" y="-17"/>
			<point x="206" y="18"/>
			<point x="209" y="38" type="curve" smooth="yes"/>
			<point x="215" y="83"/>
			<point x="193" y="119"/>
			<point x="142" y="150" type="curve"/>
			<point x="142" y="182" type="line"/>
			<point x="193" y="213"/>
			<point x="215" y="249"/>
			<point x="209" y="294" type="curve" smooth="yes"/>
			<point x="206" y="315"/>
			<point x="195" y="349"/>
			<point x="177" y="398" type="curve" smooth="yes"/>
			<point x="158" y="450"/>
			<point x="149" y="495"/>
			<point x="149" y="533" type="curve" smooth="yes"/>
			<point x="151" y="618"/>
			<point x="177" y="682"/>
			<point x="229" y="726" type="curve" smooth="yes"/>
			<point x="237" y="733"/>
			<point x="245" y="733"/>
			<point x="252" y="726" type="curve" smooth="yes"/>
			<point x="259" y="718"/>
			<point x="259" y="710"/>
			<point x="253" y="702" type="curve" smooth="yes"/>
			<point x="208" y="652"/>
			<point x="187" y="603"/>
			<point x="190" y="556" type="curve" smooth="yes"/>
			<point x="192" y="530"/>
			<point x="202" y="502"/>
			<point x="221" y="470" type="curve" smooth="yes"/>
			<point x="254" y="415"/>
			<point x="265" y="357"/>
			<point x="256" y="296" type="curve"/>
			<point x="247" y="237"/>
			<point x="222" y="194"/>
			<point x="182" y="166" type="curve"/>
			<point x="222" y="137"/>
			<point x="247" y="94"/>
			<point x="256" y="36" type="curve"/>
			<point x="265" y="-26"/>
			<point x="254" y="-83"/>
			<point x="221" y="-138" type="curve" smooth="yes"/>
			<point x="202" y="-170"/>
			<point x="192" y="-199"/>
		</contour>
	</outline>
</glyph>
<glyph name="bar" format="2">
	<unicode hex="007C"/>
	<advance width="200"/>
	<outline>
		<contour>
			<point x="125" y="-369" type="line" smooth="yes"/>
			<point x="125" y="-375"/>
			<point x="111" y="-380"/>
			<point x="84" y="-385" type="curve" smooth="yes"/>
			<point x="82" y="-385"/>
			<point x="82" y="-385"/>
			<point x="81" y="-385" type="curve" smooth="yes"/>
			<point x="78" y="-385"/>
			<point x="75" y="-384"/>
			<point x="75" y="-382" type="curve" smooth="yes"/>
			<point x="75" y="-382"/>
			<point x="75" y="-381"/>
			<point x="75" y="-380" type="curve" smooth="yes"/>
			<point x="75" y="-379"/>
			<point x="76" y="-377"/>
			<point x="76" y="-377" type="curve" smooth="yes"/>
			<point x="76" y="700" type="line"/>
			<point x="77" y="706" type="line"/>
			<point x="78" y="707"/>
			<point x="80" y="707"/>
			<point x="81" y="708" type="curve" smooth="yes"/>
			<point x="96" y="713"/>
			<point x="108" y="715"/>
			<point x="117" y="715" type="curve"/>
			<point x="123" y="715"/>
			<point x="125" y="713"/>
			<point x="125" y="709" type="curve"/>
		</contour>
	</outline>
</glyph>
<glyph name="braceright" format="2">
	<unicode hex="007D"/>
	<advance width="397"/>
	<outline>
		<contour>
			<point x="208" y="-225" type="curve" smooth="yes"/>
			<point x="211" y="-273"/>
			<point x="189" y="-321"/>
			<point x="144" y="-371" type="curve" smooth="yes"/>
			<point x="138" y="-379"/>
			<point x="138" y="-387"/>
			<point x="145" y="-394" type="curve" smooth="yes"/>
			<point x="152" y="-401"/>
			<point x="160" y="-402"/>
			<point x="168" y="-395" type="curve" smooth="yes"/>
			<point x="220" y="-351"/>
			<point x="248" y="-286"/>
			<point x="249" y="-201" type="curve" smooth="yes"/>
			<point x="250" y="-163"/>
			<point x="240" y="-117"/>
			<point x="220" y="-66" type="curve" smooth="yes"/>
			<point x="202" y="-17"/>
			<point x="191" y="18"/>
			<point x="188" y="38" type="curve" smooth="yes"/>
			<point x="182" y="83"/>
			<point x="205" y="119"/>
			<point x="256" y="150" type="curve"/>
			<point x="256" y="182" type="line"/>
			<point x="205" y="213"/>
			<point x="182" y="249"/>
			<point x="188" y="294" type="curve" smooth="yes"/>
			<point x="191" y="315"/>
			<point x="202" y="349"/>
			<point x="220" y="398" type="curve" smooth="yes"/>
			<point x="239" y="450"/>
			<point x="249" y="495"/>
			<point x="249" y="533" type="curve" smooth="yes"/>
			<point x="247" y="618"/>
			<point x="220" y="682"/>
			<point x="168" y="726" type="curve" smooth="yes"/>
			<point x="160" y="733"/>
			<point x="152" y="733"/>
			<point x="145" y="726" type="curve" smooth="yes"/>
			<point x="138" y="718"/>
			<point x="138" y="710"/>
			<point x="144" y="702" type="curve" smooth="yes"/>
			<point x="189" y="652"/>
			<point x="211" y="603"/>
			<point x="208" y="556" type="curve" smooth="yes"/>
			<point x="206" y="530"/>
			<point x="195" y="502"/>
			<point x="176" y="470" type="curve" smooth="yes"/>
			<point x="143" y="415"/>
			<point x="133" y="357"/>
			<point x="142" y="296" type="curve"/>
			<point x="151" y="237"/>
			<point x="176" y="194"/>
			<point x="216" y="166" type="curve"/>
			<point x="176" y="137"/>
			<point x="151" y="94"/>
			<point x="142" y="36" type="curve"/>
			<point x="133" y="-26"/>
			<point x="143" y="-83"/>
			<point x="176" y="-138" type="curve" smooth="yes"/>
			<point x="195" y="-170"/>
			<point x="206" y="-199"/>
		</contour>
	</outline>
</glyph>
<glyph name="brokenbar" format="2">
	<unicode hex="00A6"/>
	<advance width="200"/>
	<outline>
		<contour>
			<point x="124" y="249" type="line"/>
			<point x="124" y="246"/>
			<point x="116" y="242"/>
			<point x="103" y="239" type="curve" smooth="yes"/>
			<point x="90" y="236"/>
			<point x="82" y="234"/>
			<point x="78" y="234" type="curve" smooth="yes"/>
			<point x="76" y="234"/>
			<point x="75" y="235"/>
			<point x="74" y="235" type="curve" smooth="yes"/>
			<point x="73" y="235"/>
			<point x="73" y="237"/>
			<point x="73" y="237" type="curve" smooth="yes"/>
			<point x="73" y="237"/>
			<point x="73" y="239"/>
			<point x="73" y="240" type="curve" smooth="yes"/>
			<point x="73" y="241"/>
			<point x="73" y="242"/>
			<point x="73" y="242" type="curve" smooth="yes"/>
			<point x="73" y="705" type="line"/>
			<point x="72" y="709"/>
			<point x="74" y="712"/>
			<point x="78" y="713" type="curve" smooth="yes"/>
			<point x="89" y="716"/>
			<point x="102" y="718"/>
			<point x="116" y="718" type="curve" smooth="yes"/>
			<point x="119" y="718"/>
			<point x="121" y="717"/>
			<point x="122" y="716" type="curve" smooth="yes"/>
			<point x="123" y="715"/>
			<point x="124" y="714"/>
			<point x="124" y="713" type="curve" smooth="yes"/>
			<point x="124" y="712" type="line"/>
		</contour>
		<contour>
			<point x="73" y="-376" type="curve" smooth="yes"/>
			<point x="73" y="102" type="line"/>
			<point x="72" y="106"/>
			<point x="74" y="108"/>
			<point x="78" y="109" type="curve" smooth="yes"/>
			<point x="89" y="112"/>
			<point x="102" y="114"/>
			<point x="116" y="114" type="curve" smooth="yes"/>
			<point x="119" y="114"/>
			<point x="121" y="114"/>
			<point x="122" y="113" type="curve" smooth="yes"/>
			<point x="123" y="112"/>
			<point x="124" y="111"/>
			<point x="124" y="110" type="curve" smooth="yes"/>
			<point x="124" y="108" type="line"/>
			<point x="124" y="-369" type="line"/>
			<point x="124" y="-372"/>
			<point x="116" y="-376"/>
			<point x="103" y="-379" type="curve" smooth="yes"/>
			<point x="90" y="-382"/>
			<point x="82" y="-384"/>
			<point x="78" y="-384" type="curve" smooth="yes"/>
			<point x="76" y="-384"/>
			<point x="75" y="-383"/>
			<point x="74" y="-383" type="curve" smooth="yes"/>
			<point x="73" y="-383"/>
			<point x="73" y="-382"/>
			<point x="73" y="-382" type="curve" smooth="yes"/>
			<point x="73" y="-382"/>
			<point x="73" y="-380"/>
			<point x="73" y="-379" type="curve" smooth="yes"/>
			<point x="73" y="-378"/>
			<point x="73" y="-376"/>
		</contour>
	</outline>
</glyph>
<glyph name="guillemotleft" format="2">
	<unicode hex="00AB"/>
	<advance width="415"/>
	<outline>
		<contour>
			<point x="97" y="166" type="curve" smooth="yes"/>
			<point x="97" y="98"/>
			<point x="127" y="38"/>
			<point x="186" y="-13" type="curve" smooth="yes"/>
			<point x="192" y="-18"/>
			<point x="192" y="-22"/>
			<point x="189" y="-28" type="curve" smooth="yes"/>
			<point x="185" y="-34"/>
			<point x="180" y="-36"/>
			<point x="172" y="-32" type="curve" smooth="yes"/>
			<point x="133" y="-12"/>
			<point x="104" y="15"/>
			<point x="82" y="51" type="curve" smooth="yes"/>
			<point x="60" y="87"/>
			<point x="49" y="125"/>
			<point x="49" y="166" type="curve" smooth="yes"/>
			<point x="49" y="207"/>
			<point x="60" y="246"/>
			<point x="82" y="281" type="curve" smooth="yes"/>
			<point x="104" y="317"/>
			<point x="134" y="345"/>
			<point x="172" y="364" type="curve" smooth="yes"/>
			<point x="180" y="368"/>
			<point x="186" y="366"/>
			<point x="189" y="360" type="curve" smooth="yes"/>
			<point x="192" y="354"/>
			<point x="192" y="350"/>
			<point x="186" y="345" type="curve" smooth="yes"/>
			<point x="127" y="298"/>
			<point x="97" y="238"/>
		</contour>
		<contour>
			<point x="272" y="166" type="curve" smooth="yes"/>
			<point x="272" y="98"/>
			<point x="302" y="38"/>
			<point x="361" y="-13" type="curve" smooth="yes"/>
			<point x="367" y="-18"/>
			<point x="367" y="-22"/>
			<point x="364" y="-28" type="curve" smooth="yes"/>
			<point x="360" y="-34"/>
			<point x="355" y="-36"/>
			<point x="347" y="-32" type="curve" smooth="yes"/>
			<point x="308" y="-12"/>
			<point x="278" y="15"/>
			<point x="256" y="51" type="curve" smooth="yes"/>
			<point x="234" y="87"/>
			<point x="224" y="125"/>
			<point x="224" y="166" type="curve" smooth="yes"/>
			<point x="224" y="207"/>
			<point x="234" y="246"/>
			<point x="256" y="281" type="curve" smooth="yes"/>
			<point x="278" y="317"/>
			<point x="309" y="345"/>
			<point x="347" y="364" type="curve" smooth="yes"/>
			<point x="355" y="368"/>
			<point x="361" y="366"/>
			<point x="364" y="360" type="curve" smooth="yes"/>
			<point x="367" y="354"/>
			<point x="367" y="350"/>
			<point x="361" y="345" type="curve" smooth="yes"/>
			<point x="302" y="298"/>
			<point x="272" y="238"/>
		</contour>
	</outline>
</glyph>
<glyph name="guillemotright" format="2">
	<unicode hex="00BB"/>
	<advance width="415"/>
	<outline>
		<contour>
			<point x="318" y="166" type="curve" smooth="yes"/>
			<point x="318" y="238"/>
			<point x="288" y="298"/>
			<point x="229" y="345" type="curve" smooth="yes"/>
			<point x="223" y="350"/>
			<point x="223" y="354"/>
			<point x="226" y="360" type="curve" smooth="yes"/>
			<point x="229" y="366"/>
			<point x="235" y="368"/>
			<point x="243" y="364" type="curve" smooth="yes"/>
			<point x="281" y="345"/>
			<point x="311" y="317"/>
			<point x="333" y="281" type="curve" smooth="yes"/>
			<point x="355" y="246"/>
			<point x="366" y="207"/>
			<point x="366" y="166" type="curve" smooth="yes"/>
			<point x="366" y="125"/>
			<point x="355" y="87"/>
			<point x="333" y="51" type="curve" smooth="yes"/>
			<point x="311" y="15"/>
			<point x="282" y="-12"/>
			<point x="243" y="-32" type="curve" smooth="yes"/>
			<point x="235" y="-36"/>
			<point x="230" y="-34"/>
			<point x="226" y="-28" type="curve" smooth="yes"/>
			<point x="223" y="-22"/>
			<point x="223" y="-18"/>
			<point x="229" y="-13" type="curve" smooth="yes"/>
			<point x="288" y="38"/>
			<point x="318" y="98"/>
		</contour>
		<contour>
			<point x="143" y="166" type="curve" smooth="yes"/>
			<point x="143" y="238"/>
			<point x="113" y="298"/>
			<point x="54" y="345" type="curve" smooth="yes"/>
			<point x="48" y="350"/>
			<point x="48" y="354"/>
			<point x="51" y="360" type="curve" smooth="yes"/>
			<point x="54" y="366"/>
			<point x="60" y="368"/>
			<point x="68" y="364" type="curve" smooth="yes"/>
			<point x="106" y="345"/>
			<point x="137" y="317"/>
			<point x="159" y="281" type="curve" smooth="yes"/>
			<point x="181" y="246"/>
			<point x="191" y="207"/>
			<point x="191" y="166" type="curve" smooth="yes"/>
			<point x="191" y="125"/>
			<point x="181" y="87"/>
			<point x="159" y="51" type="curve" smooth="yes"/>
			<point x="137" y="15"/>
			<point x="107" y="-12"/>
			<point x="68" y="-32" type="curve" smooth="yes"/>
			<point x="60" y="-36"/>
			<point x="55" y="-34"/>
			<point x="51" y="-28" type="curve" smooth="yes"/>
			<point x="48" y="-22"/>
			<point x="48" y="-18"/>
			<point x="54" y="-13" type="curve" smooth="yes"/>
			<point x="113" y="38"/>
			<point x="143" y="98"/>
		</contour>
	</outline>
</glyph>
<glyph name="number-ar" format="2">
	<unicode hex="0600"/>
	<advance width="1134"/>
	<outline>
		<contour>
			<point x="946" y="-66" type="curve"/>
			<point x="936" y="-47"/>
			<point x="931" y="-28"/>
			<point x="930" y="-6" type="curve" smooth="yes"/>
			<point x="929" y="16"/>
			<point x="932" y="35"/>
			<point x="938" y="52" type="curve" smooth="yes"/>
			<point x="961" y="118"/>
			<point x="995" y="155"/>
			<point x="1040" y="162" type="curve" smooth="yes"/>
			<point x="1062" y="165"/>
			<point x="1082" y="158"/>
			<point x="1099" y="140" type="curve" smooth="yes"/>
			<point x="1105" y="134"/>
			<point x="1106" y="129"/>
			<point x="1105" y="125" type="curve" smooth="yes"/>
			<point x="1100" y="106"/>
			<point x="1094" y="91"/>
			<point x="1087" y="81" type="curve" smooth="yes"/>
			<point x="1084" y="77"/>
			<point x="1082" y="77"/>
			<point x="1078" y="80" type="curve" smooth="yes"/>
			<point x="1052" y="103"/>
			<point x="1027" y="106"/>
			<point x="1001" y="92" type="curve" smooth="yes"/>
			<point x="975" y="78"/>
			<point x="961" y="63"/>
			<point x="957" y="49" type="curve" smooth="yes"/>
			<point x="953" y="35"/>
			<point x="952" y="24"/>
			<point x="954" y="17" type="curve" smooth="yes"/>
			<point x="962" y="-15"/>
			<point x="975" y="-36"/>
			<point x="993" y="-47" type="curve" smooth="yes"/>
			<point x="1060" y="-71" type="line" smooth="yes"/>
			<point x="1067" y="-75"/>
			<point x="1071" y="-81"/>
			<point x="1071" y="-89" type="curve" smooth="yes"/>
			<point x="1070" y="-112"/>
			<point x="1068" y="-131"/>
			<point x="1065" y="-143" type="curve" smooth="yes"/>
			<point x="1063" y="-150"/>
			<point x="1061" y="-151"/>
			<point x="1055" y="-148" type="curve" smooth="yes"/>
			<point x="1015" y="-126"/>
			<point x="989" y="-115"/>
			<point x="976" y="-115" type="curve" smooth="yes"/>
			<point x="963" y="-115"/>
			<point x="947" y="-119"/>
			<point x="928" y="-128" type="curve" smooth="yes"/>
			<point x="878" y="-152"/>
			<point x="757" y="-164"/>
			<point x="565" y="-164" type="curve" smooth="yes"/>
			<point x="296" y="-164"/>
			<point x="142" y="-156"/>
			<point x="103" y="-141" type="curve" smooth="yes"/>
			<point x="93" y="-137"/>
			<point x="81" y="-129"/>
			<point x="67" y="-116" type="curve" smooth="yes"/>
			<point x="35" y="-85" type="line" smooth="yes"/>
			<point x="31" y="-81"/>
			<point x="29" y="-79"/>
			<point x="29" y="-76" type="curve" smooth="yes"/>
			<point x="29" y="-73"/>
			<point x="35" y="-72"/>
			<point x="46" y="-74" type="curve" smooth="yes"/>
			<point x="167" y="-91"/>
			<point x="322" y="-99"/>
			<point x="513" y="-99" type="curve" smooth="yes"/>
			<point x="704" y="-99"/>
			<point x="821" y="-96"/>
			<point x="865" y="-89" type="curve" smooth="yes"/>
			<point x="909" y="-82"/>
			<point x="935" y="-74"/>
		</contour>
	</outline>
</glyph>
<glyph name="year-ar" format="2">
	<unicode hex="0601"/>
	<advance width="1782"/>
	<outline>
		<contour>
			<point x="1721" y="-35" type="curve" smooth="yes"/>
			<point x="1743" y="-35"/>
			<point x="1753" y="-42"/>
			<point x="1753" y="-57" type="curve" smooth="yes"/>
			<point x="1753" y="-65"/>
			<point x="1751" y="-78"/>
			<point x="1746" y="-94" type="curve" smooth="yes"/>
			<point x="1741" y="-110"/>
			<point x="1733" y="-124"/>
			<point x="1722" y="-136" type="curve" smooth="yes"/>
			<point x="1711" y="-148"/>
			<point x="1691" y="-169"/>
			<point x="1661" y="-201" type="curve" smooth="yes"/>
			<point x="1631" y="-233"/>
			<point x="1607" y="-263"/>
			<point x="1587" y="-291" type="curve" smooth="yes"/>
			<point x="1580" y="-300"/>
			<point x="1576" y="-303"/>
			<point x="1573" y="-300" type="curve" smooth="yes"/>
			<point x="1570" y="-297"/>
			<point x="1571" y="-292"/>
			<point x="1575" y="-284" type="curve"/>
			<point x="1600" y="-243"/>
			<point x="1623" y="-210"/>
			<point x="1646" y="-185" type="curve" smooth="yes"/>
			<point x="1669" y="-160"/>
			<point x="1691" y="-137"/>
			<point x="1714" y="-116" type="curve"/>
			<point x="1710" y="-106"/>
			<point x="1702" y="-101"/>
			<point x="1689" y="-101" type="curve" smooth="yes"/>
			<point x="1676" y="-101"/>
			<point x="1660" y="-105"/>
			<point x="1640" y="-113" type="curve" smooth="yes"/>
			<point x="1521" y="-162"/>
			<point x="1426" y="-198"/>
			<point x="1353" y="-221" type="curve" smooth="yes"/>
			<point x="1201" y="-270"/>
			<point x="1049" y="-293"/>
			<point x="899" y="-293" type="curve" smooth="yes"/>
			<point x="797" y="-293"/>
			<point x="717" y="-284"/>
			<point x="655" y="-265" type="curve" smooth="yes"/>
			<point x="593" y="-246"/>
			<point x="539" y="-216"/>
			<point x="493" y="-178" type="curve"/>
			<point x="488" y="-174"/>
			<point x="484" y="-175"/>
			<point x="480" y="-181" type="curve" smooth="yes"/>
			<point x="462" y="-212"/>
			<point x="440" y="-234"/>
			<point x="417" y="-247" type="curve" smooth="yes"/>
			<point x="402" y="-255"/>
			<point x="389" y="-260"/>
			<point x="375" y="-260" type="curve" smooth="yes"/>
			<point x="350" y="-260"/>
			<point x="325" y="-246"/>
			<point x="301" y="-220" type="curve" smooth="yes"/>
			<point x="297" y="-216"/>
			<point x="289" y="-207"/>
			<point x="278" y="-193" type="curve" smooth="yes"/>
			<point x="267" y="-179"/>
			<point x="255" y="-171"/>
			<point x="243" y="-171" type="curve" smooth="yes"/>
			<point x="231" y="-171"/>
			<point x="216" y="-181"/>
			<point x="202" y="-200" type="curve" smooth="yes"/>
			<point x="188" y="-219"/>
			<point x="179" y="-234"/>
			<point x="175" y="-243" type="curve" smooth="yes"/>
			<point x="171" y="-252"/>
			<point x="165" y="-267"/>
			<point x="157" y="-289" type="curve" smooth="yes"/>
			<point x="149" y="-311"/>
			<point x="142" y="-328"/>
			<point x="133" y="-339" type="curve" smooth="yes"/>
			<point x="124" y="-350"/>
			<point x="114" y="-356"/>
			<point x="102" y="-356" type="curve"/>
			<point x="78" y="-356"/>
			<point x="59" y="-341"/>
			<point x="47" y="-311" type="curve" smooth="yes"/>
			<point x="35" y="-281"/>
			<point x="29" y="-226"/>
			<point x="29" y="-146" type="curve" smooth="yes"/>
			<point x="29" y="-139"/>
			<point x="32" y="-135"/>
			<point x="36" y="-134" type="curve" smooth="yes"/>
			<point x="40" y="-133"/>
			<point x="43" y="-134"/>
			<point x="44" y="-139" type="curve" smooth="yes"/>
			<point x="45" y="-144"/>
			<point x="47" y="-161"/>
			<point x="47" y="-191" type="curve" smooth="yes"/>
			<point x="48" y="-259"/>
			<point x="64" y="-295"/>
			<point x="97" y="-300" type="curve"/>
			<point x="99" y="-300" type="line" smooth="yes"/>
			<point x="112" y="-300"/>
			<point x="125" y="-286"/>
			<point x="139" y="-257" type="curve" smooth="yes"/>
			<point x="143" y="-250"/>
			<point x="148" y="-239"/>
			<point x="154" y="-225" type="curve" smooth="yes"/>
			<point x="188" y="-143"/>
			<point x="223" y="-102"/>
			<point x="260" y="-102" type="curve" smooth="yes"/>
			<point x="272" y="-102"/>
			<point x="287" y="-113"/>
			<point x="305" y="-134" type="curve" smooth="yes"/>
			<point x="323" y="-155"/>
			<point x="337" y="-169"/>
			<point x="349" y="-177" type="curve" smooth="yes"/>
			<point x="361" y="-185"/>
			<point x="374" y="-188"/>
			<point x="389" y="-188" type="curve" smooth="yes"/>
			<point x="426" y="-188"/>
			<point x="459" y="-164"/>
			<point x="490" y="-114" type="curve" smooth="yes"/>
			<point x="499" y="-99"/>
			<point x="508" y="-91"/>
			<point x="515" y="-91" type="curve" smooth="yes"/>
			<point x="520" y="-91"/>
			<point x="526" y="-97"/>
			<point x="533" y="-108" type="curve" smooth="yes"/>
			<point x="556" y="-145"/>
			<point x="602" y="-173"/>
			<point x="672" y="-193" type="curve" smooth="yes"/>
			<point x="742" y="-213"/>
			<point x="835" y="-222"/>
			<point x="950" y="-222" type="curve" smooth="yes"/>
			<point x="1088" y="-222"/>
			<point x="1243" y="-193"/>
			<point x="1417" y="-135" type="curve" smooth="yes"/>
			<point x="1440" y="-127"/>
			<point x="1489" y="-109"/>
			<point x="1563" y="-79" type="curve" smooth="yes"/>
			<point x="1637" y="-49"/>
			<point x="1690" y="-35"/>
		</contour>
	</outline>
</glyph>
<glyph name="footnotemarker-ar" format="2">
	<unicode hex="0602"/>
	<advance width="812"/>
	<outline>
		<contour>
			<point x="110" y="-1" type="curve" smooth="yes"/>
			<point x="86" y="-1"/>
			<point x="75" y="-14"/>
			<point x="75" y="-39" type="curve" smooth="yes"/>
			<point x="75" y="-56"/>
			<point x="86" y="-70"/>
			<point x="108" y="-78" type="curve"/>
			<point x="119" y="-82"/>
			<point x="139" y="-85"/>
			<point x="166" y="-90" type="curve"/>
			<point x="166" y="-30"/>
			<point x="147" y="-1"/>
		</contour>
		<contour>
			<point x="89" y="-136" type="curve" smooth="yes"/>
			<point x="76" y="-130"/>
			<point x="65" y="-120"/>
			<point x="55" y="-109" type="curve" smooth="yes"/>
			<point x="45" y="-98"/>
			<point x="41" y="-84"/>
			<point x="41" y="-69" type="curve" smooth="yes"/>
			<point x="41" y="-34"/>
			<point x="53" y="-4"/>
			<point x="77" y="24" type="curve" smooth="yes"/>
			<point x="93" y="42"/>
			<point x="109" y="52"/>
			<point x="123" y="52" type="curve" smooth="yes"/>
			<point x="137" y="52"/>
			<point x="151" y="49"/>
			<point x="162" y="42" type="curve" smooth="yes"/>
			<point x="180" y="32"/>
			<point x="189" y="4"/>
			<point x="189" y="-40" type="curve" smooth="yes"/>
			<point x="189" y="-56"/>
			<point x="188" y="-74"/>
			<point x="186" y="-94" type="curve"/>
			<point x="227" y="-100"/>
			<point x="294" y="-103"/>
			<point x="386" y="-103" type="curve" smooth="yes"/>
			<point x="518" y="-102"/>
			<point x="640" y="-92"/>
			<point x="750" y="-73" type="curve" smooth="yes"/>
			<point x="765" y="-70"/>
			<point x="772" y="-70"/>
			<point x="772" y="-73" type="curve" smooth="yes"/>
			<point x="772" y="-75"/>
			<point x="768" y="-79"/>
			<point x="761" y="-84" type="curve" smooth="yes"/>
			<point x="719" y="-113" type="line" smooth="yes"/>
			<point x="707" y="-121"/>
			<point x="693" y="-127"/>
			<point x="678" y="-131" type="curve" smooth="yes"/>
			<point x="599" y="-151"/>
			<point x="489" y="-162"/>
			<point x="351" y="-162" type="curve" smooth="yes"/>
			<point x="213" y="-162"/>
			<point x="125" y="-153"/>
		</contour>
	</outline>
</glyph>
<glyph name="pagenumber-ar" format="2">
	<unicode hex="0603"/>
	<advance width="1109"/>
	<outline>
		<contour>
			<point x="803" y="-204" type="curve" smooth="yes"/>
			<point x="795" y="-204"/>
			<point x="791" y="-199"/>
			<point x="791" y="-189" type="curve" smooth="yes"/>
			<point x="791" y="-179"/>
			<point x="796" y="-162"/>
			<point x="805" y="-140" type="curve"/>
			<point x="784" y="-136"/>
			<point x="763" y="-127"/>
			<point x="745" y="-112" type="curve"/>
			<point x="686" y="-146"/>
			<point x="572" y="-163"/>
			<point x="402" y="-163" type="curve" smooth="yes"/>
			<point x="292" y="-163"/>
			<point x="195" y="-151"/>
			<point x="110" y="-128" type="curve" smooth="yes"/>
			<point x="90" y="-122"/>
			<point x="75" y="-115"/>
			<point x="67" y="-106" type="curve" smooth="yes"/>
			<point x="35" y="-70" type="line" smooth="yes"/>
			<point x="31" y="-66"/>
			<point x="29" y="-63"/>
			<point x="29" y="-60" type="curve" smooth="yes"/>
			<point x="29" y="-57"/>
			<point x="35" y="-57"/>
			<point x="46" y="-59" type="curve" smooth="yes"/>
			<point x="192" y="-88"/>
			<point x="320" y="-103"/>
			<point x="429" y="-103" type="curve" smooth="yes"/>
			<point x="587" y="-103"/>
			<point x="697" y="-86"/>
			<point x="762" y="-54" type="curve" smooth="yes"/>
			<point x="765" y="-53"/>
			<point x="769" y="-56"/>
			<point x="776" y="-64" type="curve" smooth="yes"/>
			<point x="790" y="-80"/>
			<point x="812" y="-89"/>
			<point x="840" y="-92" type="curve"/>
			<point x="901" y="-3"/>
			<point x="957" y="42"/>
			<point x="1011" y="42" type="curve" smooth="yes"/>
			<point x="1021" y="42"/>
			<point x="1035" y="37"/>
			<point x="1053" y="25" type="curve" smooth="yes"/>
			<point x="1071" y="13"/>
			<point x="1080" y="-2"/>
			<point x="1080" y="-20" type="curve" smooth="yes"/>
			<point x="1080" y="-38"/>
			<point x="1074" y="-58"/>
			<point x="1062" y="-80" type="curve" smooth="yes"/>
			<point x="1050" y="-102"/>
			<point x="1041" y="-114"/>
			<point x="1037" y="-117" type="curve" smooth="yes"/>
			<point x="1002" y="-144"/>
			<point x="954" y="-157"/>
			<point x="893" y="-157" type="curve" smooth="yes"/>
			<point x="869" y="-157"/>
			<point x="847" y="-154"/>
			<point x="826" y="-148" type="curve"/>
			<point x="821" y="-155"/>
			<point x="816" y="-171"/>
			<point x="810" y="-197" type="curve" smooth="yes"/>
			<point x="809" y="-202"/>
			<point x="807" y="-204"/>
		</contour>
		<contour>
			<point x="1037" y="-68" type="curve" smooth="yes"/>
			<point x="1018" y="-36"/>
			<point x="994" y="-21"/>
			<point x="965" y="-21" type="curve" smooth="yes"/>
			<point x="936" y="-21"/>
			<point x="902" y="-47"/>
			<point x="865" y="-98" type="curve"/>
			<point x="875" y="-100"/>
			<point x="888" y="-101"/>
			<point x="903" y="-101" type="curve" smooth="yes"/>
			<point x="918" y="-101"/>
			<point x="942" y="-99"/>
			<point x="975" y="-95" type="curve" smooth="yes"/>
			<point x="1008" y="-91"/>
			<point x="1029" y="-84"/>
			<point x="1037" y="-74" type="curve" smooth="yes"/>
			<point x="1038" y="-73"/>
			<point x="1038" y="-73"/>
			<point x="1038" y="-72" type="curve" smooth="yes"/>
			<point x="1038" y="-71"/>
			<point x="1038" y="-69"/>
		</contour>
	</outline>
</glyph>
<glyph name="samvat-ar" format="2">
	<unicode hex="0604"/>
	<advance width="2183"/>
	<outline>
		<contour>
			<point x="110" y="-150" type="curve"/>
			<point x="98" y="-143"/>
			<point x="84" y="-131"/>
			<point x="67" y="-116" type="curve" smooth="yes"/>
			<point x="35" y="-85" type="line" smooth="yes"/>
			<point x="31" y="-82"/>
			<point x="29" y="-80"/>
			<point x="29" y="-77" type="curve" smooth="yes"/>
			<point x="29" y="-74"/>
			<point x="35" y="-73"/>
			<point x="46" y="-74" type="curve" smooth="yes"/>
			<point x="207" y="-89"/>
			<point x="478" y="-97"/>
			<point x="861" y="-97" type="curve" smooth="yes"/>
			<point x="1244" y="-97"/>
			<point x="1510" y="-90"/>
			<point x="1658" y="-75" type="curve"/>
			<point x="1702" y="-71"/>
			<point x="1734" y="-61"/>
			<point x="1754" y="-48" type="curve"/>
			<point x="1731" y="-6"/>
			<point x="1727" y="35"/>
			<point x="1741" y="76" type="curve"/>
			<point x="1764" y="137"/>
			<point x="1798" y="168"/>
			<point x="1845" y="170" type="curve" smooth="yes"/>
			<point x="1859" y="171"/>
			<point x="1872" y="160"/>
			<point x="1884" y="138" type="curve" smooth="yes"/>
			<point x="1896" y="116"/>
			<point x="1911" y="105"/>
			<point x="1931" y="104" type="curve"/>
			<point x="1966" y="102"/>
			<point x="2003" y="132"/>
			<point x="2040" y="193" type="curve" smooth="yes"/>
			<point x="2045" y="200"/>
			<point x="2049" y="202"/>
			<point x="2053" y="197" type="curve" smooth="yes"/>
			<point x="2057" y="192"/>
			<point x="2057" y="184"/>
			<point x="2052" y="175" type="curve" smooth="yes"/>
			<point x="2047" y="166"/>
			<point x="2045" y="160"/>
			<point x="2045" y="158" type="curve" smooth="yes"/>
			<point x="2045" y="150"/>
			<point x="2050" y="144"/>
			<point x="2058" y="141" type="curve" smooth="yes"/>
			<point x="2087" y="129"/>
			<point x="2109" y="125"/>
			<point x="2125" y="130" type="curve" smooth="yes"/>
			<point x="2130" y="131"/>
			<point x="2126" y="141"/>
			<point x="2112" y="158" type="curve" smooth="yes"/>
			<point x="2111" y="160"/>
			<point x="2110" y="161"/>
			<point x="2111" y="163" type="curve" smooth="yes"/>
			<point x="2140" y="209" type="line" smooth="yes"/>
			<point x="2141" y="211"/>
			<point x="2143" y="211"/>
			<point x="2145" y="209" type="curve" smooth="yes"/>
			<point x="2162" y="189"/>
			<point x="2164" y="156"/>
			<point x="2151" y="111" type="curve" smooth="yes"/>
			<point x="2144" y="87"/>
			<point x="2136" y="72"/>
			<point x="2128" y="63" type="curve" smooth="yes"/>
			<point x="2120" y="54"/>
			<point x="2108" y="51"/>
			<point x="2092" y="53" type="curve"/>
			<point x="2057" y="58"/>
			<point x="2030" y="68"/>
			<point x="2009" y="82" type="curve" smooth="yes"/>
			<point x="2007" y="83"/>
			<point x="2005" y="83"/>
			<point x="2004" y="81" type="curve" smooth="yes"/>
			<point x="1977" y="43"/>
			<point x="1944" y="25"/>
			<point x="1905" y="29" type="curve" smooth="yes"/>
			<point x="1884" y="31"/>
			<point x="1866" y="47"/>
			<point x="1850" y="77" type="curve" smooth="yes"/>
			<point x="1845" y="87"/>
			<point x="1837" y="93"/>
			<point x="1827" y="95" type="curve"/>
			<point x="1800" y="100"/>
			<point x="1778" y="94"/>
			<point x="1762" y="76" type="curve"/>
			<point x="1762" y="53"/>
			<point x="1768" y="31"/>
			<point x="1780" y="12" type="curve" smooth="yes"/>
			<point x="1792" y="-7"/>
			<point x="1805" y="-20"/>
			<point x="1819" y="-28" type="curve"/>
			<point x="1824" y="-31"/>
			<point x="1835" y="-35"/>
			<point x="1853" y="-40" type="curve" smooth="yes"/>
			<point x="1871" y="-45"/>
			<point x="1885" y="-50"/>
			<point x="1894" y="-55" type="curve" smooth="yes"/>
			<point x="1903" y="-60"/>
			<point x="1907" y="-67"/>
			<point x="1907" y="-76" type="curve" smooth="yes"/>
			<point x="1906" y="-104"/>
			<point x="1904" y="-127"/>
			<point x="1900" y="-143" type="curve" smooth="yes"/>
			<point x="1898" y="-151"/>
			<point x="1894" y="-153"/>
			<point x="1887" y="-149" type="curve" smooth="yes"/>
			<point x="1838" y="-122"/>
			<point x="1806" y="-108"/>
			<point x="1790" y="-108" type="curve" smooth="yes"/>
			<point x="1774" y="-108"/>
			<point x="1753" y="-113"/>
			<point x="1727" y="-126" type="curve" smooth="yes"/>
			<point x="1701" y="-139"/>
			<point x="1643" y="-150"/>
			<point x="1556" y="-158" type="curve" smooth="yes"/>
			<point x="1469" y="-166"/>
			<point x="1252" y="-170"/>
			<point x="904" y="-170" type="curve" smooth="yes"/>
			<point x="556" y="-170"/>
			<point x="291" y="-163"/>
		</contour>
	</outline>
</glyph>
<glyph name="ray-ar" format="2">
	<unicode hex="0608"/>
	<advance width="860"/>
	<outline>
		<contour>
			<point x="667" y="92" type="curve"/>
			<point x="715" y="91"/>
			<point x="747" y="102"/>
			<point x="765" y="124" type="curve" smooth="yes"/>
			<point x="766" y="125"/>
			<point x="767" y="127"/>
			<point x="766" y="130" type="curve" smooth="yes"/>
			<point x="762" y="149"/>
			<point x="753" y="168"/>
			<point x="739" y="188" type="curve" smooth="yes"/>
			<point x="733" y="196"/>
			<point x="732" y="205"/>
			<point x="736" y="213" type="curve" smooth="yes"/>
			<point x="764" y="275" type="line" smooth="yes"/>
			<point x="770" y="288"/>
			<point x="776" y="287"/>
			<point x="783" y="275" type="curve" smooth="yes"/>
			<point x="810" y="225"/>
			<point x="814" y="167"/>
			<point x="797" y="100" type="curve" smooth="yes"/>
			<point x="780" y="33"/>
			<point x="736" y="0"/>
			<point x="665" y="1" type="curve"/>
			<point x="663" y="-10"/>
			<point x="657" y="-29"/>
			<point x="650" y="-55" type="curve" smooth="yes"/>
			<point x="641" y="-88"/>
			<point x="630" y="-113"/>
			<point x="617" y="-130" type="curve" smooth="yes"/>
			<point x="564" y="-201"/>
			<point x="486" y="-242"/>
			<point x="383" y="-255" type="curve" smooth="yes"/>
			<point x="325" y="-262"/>
			<point x="275" y="-253"/>
			<point x="234" y="-230" type="curve" smooth="yes"/>
			<point x="200" y="-210"/>
			<point x="178" y="-183"/>
			<point x="167" y="-146" type="curve" smooth="yes"/>
			<point x="151" y="-92"/>
			<point x="157" y="-33"/>
			<point x="187" y="31" type="curve"/>
			<point x="147" y="-5"/>
			<point x="103" y="-27"/>
			<point x="57" y="-33" type="curve" smooth="yes"/>
			<point x="48" y="-34"/>
			<point x="43" y="-30"/>
			<point x="44" y="-19" type="curve" smooth="yes"/>
			<point x="46" y="16" type="line" smooth="yes"/>
			<point x="47" y="28"/>
			<point x="50" y="34"/>
			<point x="57" y="34" type="curve" smooth="yes"/>
			<point x="120" y="37"/>
			<point x="177" y="64"/>
			<point x="229" y="114" type="curve" smooth="yes"/>
			<point x="238" y="123"/>
			<point x="245" y="126"/>
			<point x="250" y="122" type="curve" smooth="yes"/>
			<point x="256" y="117"/>
			<point x="257" y="112"/>
			<point x="252" y="105" type="curve" smooth="yes"/>
			<point x="194" y="22"/>
			<point x="184" y="-49"/>
			<point x="222" y="-107" type="curve" smooth="yes"/>
			<point x="243" y="-139"/>
			<point x="281" y="-158"/>
			<point x="339" y="-165" type="curve" smooth="yes"/>
			<point x="396" y="-172"/>
			<point x="453" y="-165"/>
			<point x="510" y="-142" type="curve" smooth="yes"/>
			<point x="570" y="-118"/>
			<point x="610" y="-84"/>
			<point x="629" y="-42" type="curve" smooth="yes"/>
			<point x="632" y="-35"/>
			<point x="632" y="-21"/>
			<point x="626" y="0" type="curve"/>
			<point x="565" y="2"/>
			<point x="525" y="11"/>
			<point x="504" y="30" type="curve" smooth="yes"/>
			<point x="482" y="50"/>
			<point x="488" y="92"/>
			<point x="521" y="155" type="curve" smooth="yes"/>
			<point x="545" y="200"/>
			<point x="565" y="223"/>
			<point x="583" y="223" type="curve" smooth="yes"/>
			<point x="624" y="223"/>
			<point x="652" y="179"/>
		</contour>
		<contour>
			<point x="599" y="97" type="curve"/>
			<point x="590" y="131"/>
			<point x="574" y="146"/>
			<point x="552" y="146" type="curve" smooth="yes"/>
			<point x="538" y="146"/>
			<point x="533" y="139"/>
			<point x="538" y="127" type="curve" smooth="yes"/>
			<point x="545" y="111"/>
			<point x="565" y="102"/>
		</contour>
	</outline>
</glyph>
<glyph name="afghani-ar" format="2">
	<unicode hex="060B"/>
	<advance width="500"/>
	<outline>
		<contour>
			<point x="340" y="409" type="curve" smooth="yes"/>
			<point x="349" y="409"/>
			<point x="360" y="404"/>
			<point x="373" y="393" type="curve" smooth="yes"/>
			<point x="433" y="341"/>
			<point x="460" y="274"/>
			<point x="457" y="195" type="curve" smooth="yes"/>
			<point x="455" y="158"/>
			<point x="445" y="125"/>
			<point x="426" y="95" type="curve" smooth="yes"/>
			<point x="377" y="19"/>
			<point x="262" y="-12"/>
			<point x="79" y="5" type="curve" smooth="yes"/>
			<point x="66" y="6"/>
			<point x="57" y="12"/>
			<point x="55" y="22" type="curve" smooth="yes"/>
			<point x="45" y="70" type="line" smooth="yes"/>
			<point x="41" y="90"/>
			<point x="51" y="98"/>
			<point x="74" y="95" type="curve" smooth="yes"/>
			<point x="237" y="77"/>
			<point x="350" y="100"/>
			<point x="413" y="162" type="curve"/>
			<point x="411" y="182"/>
			<point x="409" y="194"/>
			<point x="404" y="201" type="curve" smooth="yes"/>
			<point x="399" y="208"/>
			<point x="396" y="211"/>
			<point x="393" y="210" type="curve" smooth="yes"/>
			<point x="390" y="209"/>
			<point x="388" y="208"/>
			<point x="387" y="206" type="curve" smooth="yes"/>
			<point x="376" y="177"/>
			<point x="358" y="159"/>
			<point x="335" y="154" type="curve" smooth="yes"/>
			<point x="262" y="138"/>
			<point x="228" y="167"/>
			<point x="234" y="239" type="curve" smooth="yes"/>
			<point x="237" y="274"/>
			<point x="251" y="312"/>
			<point x="274" y="351" type="curve" smooth="yes"/>
			<point x="297" y="390"/>
			<point x="319" y="409"/>
		</contour>
		<contour>
			<point x="280" y="256" type="curve"/>
			<point x="316" y="249"/>
			<point x="339" y="253"/>
			<point x="349" y="266" type="curve"/>
			<point x="334" y="290"/>
			<point x="319" y="302"/>
			<point x="307" y="301" type="curve" smooth="yes"/>
			<point x="290" y="300"/>
			<point x="281" y="285"/>
		</contour>
		<component base="alefabove-ar" xOffset="117" yOffset="-1226"/>
		<component base="dotabove-ar" xOffset="303" yOffset="493"/>
	</outline>
</glyph>
<glyph name="comma-ar" format="2">
	<unicode hex="060C"/>
	<advance width="369"/>
	<outline>
		<contour>
			<point x="206" y="397" type="curve" smooth="yes"/>
			<point x="217" y="404"/>
			<point x="226" y="404"/>
			<point x="233" y="396" type="curve" smooth="yes"/>
			<point x="240" y="388"/>
			<point x="238" y="380"/>
			<point x="229" y="371" type="curve" smooth="yes"/>
			<point x="147" y="286"/>
			<point x="119" y="207"/>
			<point x="145" y="135" type="curve" smooth="yes"/>
			<point x="148" y="127"/>
			<point x="151" y="126"/>
			<point x="156" y="131" type="curve" smooth="yes"/>
			<point x="171" y="150"/>
			<point x="191" y="159"/>
			<point x="215" y="159" type="curve" smooth="yes"/>
			<point x="236" y="159"/>
			<point x="254" y="151"/>
			<point x="269" y="136" type="curve" smooth="yes"/>
			<point x="284" y="121"/>
			<point x="291" y="104"/>
			<point x="291" y="83" type="curve" smooth="yes"/>
			<point x="291" y="62"/>
			<point x="283" y="44"/>
			<point x="267" y="29" type="curve" smooth="yes"/>
			<point x="251" y="14"/>
			<point x="232" y="6"/>
			<point x="211" y="7" type="curve" smooth="yes"/>
			<point x="186" y="8"/>
			<point x="166" y="14"/>
			<point x="151" y="25" type="curve" smooth="yes"/>
			<point x="109" y="58"/>
			<point x="93" y="117"/>
			<point x="100" y="205" type="curve" smooth="yes"/>
			<point x="104" y="245"/>
			<point x="117" y="284"/>
			<point x="141" y="321" type="curve" smooth="yes"/>
			<point x="165" y="358"/>
			<point x="186" y="383"/>
		</contour>
	</outline>
</glyph>
<glyph name="dateseparator-ar" format="2">
	<unicode hex="060D"/>
	<advance width="316"/>
	<outline>
		<contour>
			<point x="268" y="460" type="curve" smooth="yes"/>
			<point x="253" y="428" type="line" smooth="yes"/>
			<point x="241" y="402"/>
			<point x="228" y="395"/>
			<point x="213" y="408" type="curve" smooth="yes"/>
			<point x="197" y="422"/>
			<point x="176" y="417"/>
			<point x="151" y="392" type="curve" smooth="yes"/>
			<point x="125" y="367"/>
			<point x="97" y="329"/>
			<point x="66" y="280" type="curve" smooth="yes"/>
			<point x="58" y="267"/>
			<point x="52" y="263"/>
			<point x="45" y="266" type="curve" smooth="yes"/>
			<point x="38" y="270"/>
			<point x="37" y="280"/>
			<point x="44" y="296" type="curve" smooth="yes"/>
			<point x="62" y="337"/>
			<point x="89" y="384"/>
			<point x="127" y="439" type="curve" smooth="yes"/>
			<point x="170" y="500"/>
			<point x="213" y="527"/>
			<point x="255" y="519" type="curve" smooth="yes"/>
			<point x="280" y="514"/>
			<point x="284" y="495"/>
		</contour>
	</outline>
</glyph>
<glyph name="verseComma-ar" format="2">
	<unicode hex="060E"/>
	<advance width="671"/>
	<outline>
		<contour>
			<point x="109" y="221" type="curve" smooth="yes"/>
			<point x="85" y="221"/>
			<point x="73" y="208"/>
			<point x="73" y="183" type="curve" smooth="yes"/>
			<point x="73" y="166"/>
			<point x="85" y="152"/>
			<point x="107" y="144" type="curve" smooth="yes"/>
			<point x="118" y="140"/>
			<point x="137" y="136"/>
			<point x="164" y="131" type="curve"/>
			<point x="164" y="191"/>
			<point x="146" y="221"/>
		</contour>
		<contour>
			<point x="87" y="86" type="curve" smooth="yes"/>
			<point x="74" y="92"/>
			<point x="63" y="101"/>
			<point x="53" y="112" type="curve" smooth="yes"/>
			<point x="43" y="123"/>
			<point x="39" y="137"/>
			<point x="39" y="152" type="curve" smooth="yes"/>
			<point x="39" y="187"/>
			<point x="52" y="218"/>
			<point x="76" y="246" type="curve"/>
			<point x="92" y="264"/>
			<point x="108" y="273"/>
			<point x="122" y="273" type="curve" smooth="yes"/>
			<point x="136" y="273"/>
			<point x="150" y="270"/>
			<point x="161" y="263" type="curve" smooth="yes"/>
			<point x="179" y="253"/>
			<point x="188" y="226"/>
			<point x="188" y="182" type="curve" smooth="yes"/>
			<point x="188" y="166"/>
			<point x="186" y="147"/>
			<point x="184" y="127" type="curve"/>
			<point x="226" y="121"/>
			<point x="275" y="118"/>
			<point x="331" y="119" type="curve" smooth="yes"/>
			<point x="407" y="120"/>
			<point x="500" y="129"/>
			<point x="610" y="148" type="curve" smooth="yes"/>
			<point x="625" y="151"/>
			<point x="633" y="151"/>
			<point x="633" y="148" type="curve" smooth="yes"/>
			<point x="633" y="146"/>
			<point x="629" y="142"/>
			<point x="622" y="137" type="curve" smooth="yes"/>
			<point x="580" y="109" type="line" smooth="yes"/>
			<point x="568" y="101"/>
			<point x="554" y="94"/>
			<point x="539" y="90" type="curve" smooth="yes"/>
			<point x="460" y="70"/>
			<point x="378" y="60"/>
			<point x="294" y="60" type="curve" smooth="yes"/>
			<point x="193" y="60"/>
			<point x="123" y="69"/>
		</contour>
	</outline>
</glyph>
<glyph name="misraComma-ar" format="2">
	<unicode hex="060F"/>
	<advance width="809"/>
	<outline>
		<contour>
			<point x="165" y="-177" type="curve"/>
			<point x="163" y="-48"/>
			<point x="207" y="64"/>
			<point x="298" y="160" type="curve"/>
			<point x="246" y="181"/>
			<point x="212" y="203"/>
			<point x="195" y="226" type="curve" smooth="yes"/>
			<point x="188" y="235"/>
			<point x="185" y="245"/>
			<point x="186" y="257" type="curve" smooth="yes"/>
			<point x="189" y="288"/>
			<point x="197" y="317"/>
			<point x="211" y="343" type="curve" smooth="yes"/>
			<point x="243" y="401"/>
			<point x="278" y="440"/>
			<point x="318" y="459" type="curve" smooth="yes"/>
			<point x="338" y="468"/>
			<point x="360" y="465"/>
			<point x="388" y="449" type="curve" smooth="yes"/>
			<point x="416" y="433"/>
			<point x="436" y="416"/>
			<point x="447" y="400" type="curve" smooth="yes"/>
			<point x="454" y="390"/>
			<point x="450" y="387"/>
			<point x="434" y="390" type="curve" smooth="yes"/>
			<point x="348" y="407"/>
			<point x="277" y="379"/>
			<point x="221" y="304" type="curve" smooth="yes"/>
			<point x="218" y="300"/>
			<point x="218" y="296"/>
			<point x="223" y="291" type="curve" smooth="yes"/>
			<point x="267" y="247"/>
			<point x="322" y="229"/>
			<point x="388" y="237" type="curve" smooth="yes"/>
			<point x="399" y="238"/>
			<point x="414" y="245"/>
			<point x="435" y="257" type="curve" smooth="yes"/>
			<point x="513" y="304"/>
			<point x="557" y="331"/>
			<point x="566" y="337" type="curve" smooth="yes"/>
			<point x="579" y="344"/>
			<point x="583" y="339"/>
			<point x="576" y="320" type="curve" smooth="yes"/>
			<point x="561" y="278"/>
			<point x="550" y="254"/>
			<point x="541" y="250" type="curve" smooth="yes"/>
			<point x="478" y="220"/>
			<point x="411" y="179"/>
			<point x="342" y="128" type="curve" smooth="yes"/>
			<point x="251" y="61"/>
			<point x="201" y="-32"/>
			<point x="193" y="-150" type="curve"/>
			<point x="270" y="-78"/>
			<point x="336" y="-29"/>
			<point x="391" y="-2" type="curve" smooth="yes"/>
			<point x="501" y="51"/>
			<point x="592" y="63"/>
			<point x="663" y="33" type="curve" smooth="yes"/>
			<point x="711" y="12"/>
			<point x="742" y="-20"/>
			<point x="757" y="-65" type="curve" smooth="yes"/>
			<point x="778" y="-133"/>
			<point x="762" y="-210"/>
			<point x="706" y="-297" type="curve" smooth="yes"/>
			<point x="629" y="-416"/>
			<point x="535" y="-477"/>
			<point x="426" y="-477" type="curve" smooth="yes"/>
			<point x="272" y="-477"/>
			<point x="185" y="-394"/>
			<point x="167" y="-229" type="curve"/>
			<point x="132" y="-264"/>
			<point x="96" y="-304"/>
			<point x="59" y="-348" type="curve" smooth="yes"/>
			<point x="46" y="-364"/>
			<point x="41" y="-363"/>
			<point x="45" y="-348" type="curve" smooth="yes"/>
			<point x="62" y="-287" type="line" smooth="yes"/>
			<point x="65" y="-277"/>
			<point x="100" y="-240"/>
		</contour>
		<contour>
			<point x="198" y="-201" type="curve"/>
			<point x="231" y="-326"/>
			<point x="318" y="-388"/>
			<point x="459" y="-388" type="curve" smooth="yes"/>
			<point x="590" y="-388"/>
			<point x="674" y="-332"/>
			<point x="711" y="-220" type="curve" smooth="yes"/>
			<point x="731" y="-160"/>
			<point x="716" y="-107"/>
			<point x="666" y="-61" type="curve" smooth="yes"/>
			<point x="616" y="-15"/>
			<point x="533" y="-13"/>
			<point x="418" y="-55" type="curve" smooth="yes"/>
			<point x="357" y="-77"/>
			<point x="283" y="-126"/>
		</contour>
	</outline>
</glyph>
<glyph name="sallallahouAlayheWassallamcomb-ar" format="2">
	<unicode hex="0610"/>
	<outline>
		<contour>
			<point x="280" y="999" type="curve"/>
			<point x="259" y="1018"/>
			<point x="238" y="1024"/>
			<point x="215" y="1018" type="curve" smooth="yes"/>
			<point x="192" y="1012"/>
			<point x="161" y="994"/>
			<point x="123" y="965" type="curve"/>
			<point x="193" y="961"/>
			<point x="245" y="973"/>
		</contour>
		<contour>
			<point x="41" y="979" type="curve"/>
			<point x="55" y="971"/>
			<point x="74" y="966"/>
			<point x="99" y="965" type="curve"/>
			<point x="128" y="995"/>
			<point x="158" y="1020"/>
			<point x="187" y="1041" type="curve" smooth="yes"/>
			<point x="216" y="1062"/>
			<point x="239" y="1072"/>
			<point x="256" y="1072" type="curve"/>
			<point x="281" y="1073"/>
			<point x="299" y="1058"/>
			<point x="310" y="1028" type="curve"/>
			<point x="312" y="1020"/>
			<point x="310" y="1009"/>
			<point x="303" y="994" type="curve" smooth="yes"/>
			<point x="296" y="979"/>
			<point x="290" y="969"/>
			<point x="285" y="964" type="curve" smooth="yes"/>
			<point x="261" y="938"/>
			<point x="216" y="923"/>
			<point x="150" y="917" type="curve" smooth="yes"/>
			<point x="116" y="914"/>
			<point x="85" y="915"/>
			<point x="54" y="921" type="curve"/>
			<point x="56" y="889"/>
			<point x="51" y="856"/>
			<point x="37" y="820" type="curve" smooth="yes"/>
			<point x="34" y="813"/>
			<point x="29" y="810"/>
			<point x="24" y="811" type="curve" smooth="yes"/>
			<point x="19" y="812"/>
			<point x="17" y="816"/>
			<point x="19" y="823" type="curve" smooth="yes"/>
			<point x="30" y="874"/>
			<point x="25" y="919"/>
			<point x="3" y="958" type="curve" smooth="yes"/>
			<point x="0" y="963"/>
			<point x="-1" y="966"/>
			<point x="0" y="967" type="curve" smooth="yes"/>
			<point x="16" y="1008" type="line" smooth="yes"/>
			<point x="18" y="1014"/>
			<point x="22" y="1013"/>
			<point x="27" y="1006" type="curve" smooth="yes"/>
			<point x="32" y="999"/>
			<point x="37" y="989"/>
		</contour>
	</outline>
</glyph>
<glyph name="alayheAssallamcomb-ar" format="2">
	<unicode hex="0611"/>
	<outline>
		<contour>
			<point x="54" y="921" type="curve"/>
			<point x="56" y="889"/>
			<point x="51" y="856"/>
			<point x="37" y="820" type="curve" smooth="yes"/>
			<point x="34" y="813"/>
			<point x="29" y="810"/>
			<point x="24" y="811" type="curve" smooth="yes"/>
			<point x="19" y="812"/>
			<point x="17" y="816"/>
			<point x="19" y="823" type="curve" smooth="yes"/>
			<point x="30" y="874"/>
			<point x="25" y="919"/>
			<point x="3" y="958" type="curve" smooth="yes"/>
			<point x="0" y="963"/>
			<point x="-1" y="966"/>
			<point x="0" y="967" type="curve" smooth="yes"/>
			<point x="16" y="1008" type="line" smooth="yes"/>
			<point x="20" y="1018"/>
			<point x="29" y="1009"/>
			<point x="41" y="979" type="curve"/>
			<point x="62" y="969"/>
			<point x="90" y="964"/>
			<point x="124" y="965" type="curve"/>
			<point x="114" y="978"/>
			<point x="108" y="993"/>
			<point x="107" y="1010" type="curve" smooth="yes"/>
			<point x="104" y="1042"/>
			<point x="112" y="1068"/>
			<point x="132" y="1087" type="curve" smooth="yes"/>
			<point x="152" y="1106"/>
			<point x="172" y="1118"/>
			<point x="192" y="1122" type="curve" smooth="yes"/>
			<point x="212" y="1126"/>
			<point x="237" y="1114"/>
			<point x="269" y="1086" type="curve" smooth="yes"/>
			<point x="273" y="1082"/>
			<point x="274" y="1079"/>
			<point x="271" y="1074" type="curve"/>
			<point x="268" y="1070"/>
			<point x="265" y="1068"/>
			<point x="260" y="1070" type="curve" smooth="yes"/>
			<point x="226" y="1083"/>
			<point x="193" y="1083"/>
			<point x="159" y="1071" type="curve" smooth="yes"/>
			<point x="144" y="1066"/>
			<point x="136" y="1060"/>
			<point x="133" y="1052" type="curve"/>
			<point x="130" y="1044"/>
			<point x="135" y="1030"/>
			<point x="148" y="1010" type="curve" smooth="yes"/>
			<point x="161" y="990"/>
			<point x="171" y="979"/>
			<point x="181" y="978" type="curve"/>
			<point x="203" y="974"/>
			<point x="231" y="982"/>
			<point x="265" y="1003" type="curve" smooth="yes"/>
			<point x="277" y="1010"/>
			<point x="285" y="1013"/>
			<point x="287" y="1011" type="curve" smooth="yes"/>
			<point x="289" y="1009"/>
			<point x="290" y="1006"/>
			<point x="289" y="1004" type="curve" smooth="yes"/>
			<point x="270" y="963" type="line" smooth="yes"/>
			<point x="268" y="958"/>
			<point x="265" y="956"/>
			<point x="263" y="954" type="curve"/>
			<point x="201" y="917"/>
			<point x="132" y="905"/>
		</contour>
	</outline>
</glyph>
<glyph name="rehHahabove-ar" format="2">
	<unicode hex="0612"/>
	<outline>
		<contour>
			<point x="0" y="820" type="curve" smooth="yes"/>
			<point x="0" y="915"/>
			<point x="42" y="982"/>
			<point x="127" y="1020" type="curve"/>
			<point x="89" y="1029"/>
			<point x="55" y="1028"/>
			<point x="25" y="1016" type="curve" smooth="yes"/>
			<point x="19" y="1014"/>
			<point x="17" y="1015"/>
			<point x="17" y="1019" type="curve" smooth="yes"/>
			<point x="18" y="1053"/>
			<point x="36" y="1069"/>
			<point x="70" y="1071" type="curve" smooth="yes"/>
			<point x="83" y="1072"/>
			<point x="104" y="1070"/>
			<point x="132" y="1064" type="curve" smooth="yes"/>
			<point x="160" y="1058"/>
			<point x="183" y="1056"/>
			<point x="203" y="1056" type="curve" smooth="yes"/>
			<point x="223" y="1056"/>
			<point x="246" y="1059"/>
			<point x="275" y="1064" type="curve" smooth="yes"/>
			<point x="285" y="1066"/>
			<point x="289" y="1063"/>
			<point x="285" y="1055" type="curve" smooth="yes"/>
			<point x="272" y="1028" type="line" smooth="yes"/>
			<point x="271" y="1025"/>
			<point x="269" y="1024"/>
			<point x="267" y="1023" type="curve" smooth="yes"/>
			<point x="185" y="1011"/>
			<point x="130" y="997"/>
			<point x="100" y="977" type="curve" smooth="yes"/>
			<point x="45" y="941"/>
			<point x="17" y="889"/>
			<point x="17" y="820" type="curve" smooth="yes"/>
			<point x="16" y="814"/>
			<point x="13" y="812"/>
			<point x="8" y="812" type="curve" smooth="yes"/>
			<point x="4" y="812"/>
			<point x="1" y="814"/>
		</contour>
		<component base="aRaa.isol" xScale="0.5" yScale="0.5" xOffset="220" yOffset="915"/>
	</outline>
</glyph>
<glyph name="takhallusabove-ar" format="2">
	<unicode hex="0614"/>
	<outline>
		<contour>
			<point x="284" y="884" type="curve"/>
			<point x="192" y="847"/>
			<point x="95" y="837"/>
			<point x="-9" y="856" type="curve" smooth="yes"/>
			<point x="-20" y="858"/>
			<point x="-25" y="864"/>
			<point x="-24" y="872" type="curve" smooth="yes"/>
			<point x="-23" y="879"/>
			<point x="-17" y="882"/>
			<point x="-6" y="881" type="curve" smooth="yes"/>
			<point x="148" y="875"/>
			<point x="250" y="896"/>
			<point x="301" y="944" type="curve" smooth="yes"/>
			<point x="307" y="949"/>
			<point x="311" y="951"/>
			<point x="314" y="949" type="curve" smooth="yes"/>
			<point x="319" y="946"/>
			<point x="320" y="942"/>
			<point x="317" y="935" type="curve" smooth="yes"/>
			<point x="313" y="925" type="line"/>
			<point x="341" y="904"/>
			<point x="370" y="894"/>
			<point x="398" y="896" type="curve"/>
			<point x="398" y="901"/>
			<point x="396" y="907"/>
			<point x="390" y="917" type="curve" smooth="yes"/>
			<point x="387" y="923"/>
			<point x="386" y="929"/>
			<point x="390" y="937" type="curve" smooth="yes"/>
			<point x="406" y="970" type="line" smooth="yes"/>
			<point x="410" y="978"/>
			<point x="414" y="976"/>
			<point x="419" y="964" type="curve" smooth="yes"/>
			<point x="426" y="947"/>
			<point x="426" y="926"/>
			<point x="422" y="900" type="curve" smooth="yes"/>
			<point x="416" y="867"/>
			<point x="407" y="850"/>
			<point x="392" y="848" type="curve" smooth="yes"/>
			<point x="357" y="844"/>
			<point x="321" y="856"/>
		</contour>
	</outline>
</glyph>
<glyph name="tahabove-ar" format="2">
	<unicode hex="0615"/>
	<outline>
		<contour>
			<point x="175" y="1744" type="curve" smooth="yes"/>
			<point x="193" y="1603"/>
			<point x="198" y="1500"/>
			<point x="191" y="1438" type="curve"/>
			<point x="266" y="1518"/>
			<point x="324" y="1546"/>
			<point x="364" y="1521" type="curve" smooth="yes"/>
			<point x="385" y="1508"/>
			<point x="396" y="1494"/>
			<point x="398" y="1478" type="curve" smooth="yes"/>
			<point x="400" y="1462"/>
			<point x="396" y="1443"/>
			<point x="384" y="1420" type="curve" smooth="yes"/>
			<point x="372" y="1397"/>
			<point x="362" y="1383"/>
			<point x="356" y="1379" type="curve" smooth="yes"/>
			<point x="303" y="1343"/>
			<point x="214" y="1320"/>
			<point x="89" y="1311" type="curve"/>
			<point x="67" y="1315"/>
			<point x="48" y="1322"/>
			<point x="33" y="1332" type="curve" smooth="yes"/>
			<point x="18" y="1342"/>
			<point x="8" y="1352"/>
			<point x="3" y="1362" type="curve" smooth="yes"/>
			<point x="-2" y="1372"/>
			<point x="-2" y="1377"/>
			<point x="5" y="1376" type="curve"/>
			<point x="34" y="1372"/>
			<point x="73" y="1372"/>
			<point x="120" y="1375" type="curve"/>
			<point x="159" y="1413" type="line"/>
			<point x="159" y="1514"/>
			<point x="152" y="1612"/>
			<point x="137" y="1709" type="curve" smooth="yes"/>
			<point x="135" y="1722"/>
			<point x="136" y="1731"/>
			<point x="140" y="1737" type="curve" smooth="yes"/>
			<point x="155" y="1761" type="line" smooth="yes"/>
			<point x="164" y="1775"/>
			<point x="171" y="1769"/>
		</contour>
		<contour>
			<point x="264" y="1460" type="curve" smooth="yes"/>
			<point x="245" y="1454"/>
			<point x="209" y="1427"/>
			<point x="155" y="1379" type="curve"/>
			<point x="237" y="1388"/>
			<point x="303" y="1406"/>
			<point x="352" y="1432" type="curve"/>
			<point x="334" y="1464"/>
			<point x="305" y="1473"/>
		</contour>
	</outline>
	<anchor name="_MarkAbove" x="233" y="1270"/>
</glyph>
<glyph name="alefLamYehabove-ar" format="2">
	<unicode hex="0616"/>
	<outline>
		<contour>
			<point x="265" y="1162" type="curve" smooth="yes"/>
			<point x="275" y="1080"/>
			<point x="279" y="1023"/>
			<point x="277" y="991" type="curve" smooth="yes"/>
			<point x="275" y="959"/>
			<point x="272" y="937"/>
			<point x="267" y="923" type="curve" smooth="yes"/>
			<point x="262" y="909"/>
			<point x="258" y="901"/>
			<point x="255" y="901" type="curve" smooth="yes"/>
			<point x="250" y="901"/>
			<point x="249" y="906"/>
			<point x="250" y="914" type="curve"/>
			<point x="252" y="947"/>
			<point x="248" y="1014"/>
			<point x="238" y="1117" type="curve" smooth="yes"/>
			<point x="237" y="1126"/>
			<point x="237" y="1133"/>
			<point x="239" y="1136" type="curve" smooth="yes"/>
			<point x="251" y="1160" type="line" smooth="yes"/>
			<point x="258" y="1175"/>
			<point x="263" y="1176"/>
		</contour>
		<contour>
			<point x="147" y="1158" type="curve" smooth="yes"/>
			<point x="158" y="1085"/>
			<point x="160" y="1029"/>
			<point x="153" y="990" type="curve" smooth="yes"/>
			<point x="146" y="951"/>
			<point x="120" y="919"/>
			<point x="77" y="893" type="curve"/>
			<point x="144" y="883"/>
			<point x="261" y="884"/>
			<point x="428" y="899" type="curve" smooth="yes"/>
			<point x="436" y="900"/>
			<point x="439" y="896"/>
			<point x="434" y="889" type="curve" smooth="yes"/>
			<point x="416" y="863" type="line" smooth="yes"/>
			<point x="413" y="859"/>
			<point x="409" y="856"/>
			<point x="406" y="855" type="curve" smooth="yes"/>
			<point x="376" y="850"/>
			<point x="323" y="847"/>
			<point x="246" y="844" type="curve" smooth="yes"/>
			<point x="169" y="841"/>
			<point x="113" y="843"/>
			<point x="75" y="849" type="curve" smooth="yes"/>
			<point x="63" y="851"/>
			<point x="56" y="856"/>
			<point x="54" y="865" type="curve"/>
			<point x="52" y="879"/>
			<point x="56" y="894"/>
			<point x="64" y="908" type="curve" smooth="yes"/>
			<point x="72" y="922"/>
			<point x="81" y="932"/>
			<point x="91" y="939" type="curve" smooth="yes"/>
			<point x="121" y="960"/>
			<point x="135" y="983"/>
			<point x="134" y="1008" type="curve"/>
			<point x="129" y="1056"/>
			<point x="126" y="1096"/>
			<point x="121" y="1128" type="curve" smooth="yes"/>
			<point x="120" y="1136"/>
			<point x="120" y="1143"/>
			<point x="123" y="1147" type="curve" smooth="yes"/>
			<point x="132" y="1162" type="line" smooth="yes"/>
			<point x="140" y="1174"/>
			<point x="145" y="1172"/>
		</contour>
	</outline>
	<anchor name="_MarkAbove" x="214" y="801"/>
	<anchor name="_TashkilAboveDot" x="213" y="801"/>
	<anchor name="_TashkilAbove" x="213" y="801"/>
</glyph>
<glyph name="zainabove-ar" format="2">
	<unicode hex="0617"/>
	<outline>
		<contour>
			<point x="215" y="1770" type="line" smooth="yes"/>
			<point x="216" y="1772"/>
			<point x="222" y="1770"/>
			<point x="231" y="1767" type="curve" smooth="yes"/>
			<point x="240" y="1764"/>
			<point x="251" y="1757"/>
			<point x="263" y="1746" type="curve" smooth="yes"/>
			<point x="265" y="1744"/>
			<point x="265" y="1742"/>
			<point x="264" y="1740" type="curve" smooth="yes"/>
			<point x="235" y="1695" type="line" smooth="yes"/>
			<point x="234" y="1693"/>
			<point x="232" y="1694"/>
			<point x="229" y="1696" type="curve" smooth="yes"/>
			<point x="226" y="1698"/>
			<point x="212" y="1707"/>
			<point x="187" y="1722" type="curve" smooth="yes"/>
			<point x="185" y="1723"/>
			<point x="185" y="1725"/>
			<point x="186" y="1726" type="curve"/>
		</contour>
		<contour>
			<point x="277" y="1607" type="line" smooth="yes"/>
			<point x="278" y="1612"/>
			<point x="282" y="1612"/>
			<point x="288" y="1606" type="curve" smooth="yes"/>
			<point x="304" y="1590"/>
			<point x="315" y="1569"/>
			<point x="323" y="1542" type="curve" smooth="yes"/>
			<point x="331" y="1515"/>
			<point x="333" y="1486"/>
			<point x="329" y="1455" type="curve" smooth="yes"/>
			<point x="325" y="1424"/>
			<point x="312" y="1394"/>
			<point x="289" y="1364" type="curve" smooth="yes"/>
			<point x="266" y="1334"/>
			<point x="235" y="1315"/>
			<point x="198" y="1305" type="curve" smooth="yes"/>
			<point x="188" y="1302"/>
			<point x="178" y="1302"/>
			<point x="169" y="1305" type="curve" smooth="yes"/>
			<point x="109" y="1326"/>
			<point x="79" y="1338"/>
			<point x="79" y="1343" type="curve" smooth="yes"/>
			<point x="79" y="1348"/>
			<point x="82" y="1349"/>
			<point x="86" y="1348" type="curve" smooth="yes"/>
			<point x="113" y="1340"/>
			<point x="137" y="1336"/>
			<point x="157" y="1339" type="curve" smooth="yes"/>
			<point x="223" y="1348"/>
			<point x="274" y="1387"/>
			<point x="309" y="1455" type="curve" smooth="yes"/>
			<point x="311" y="1458"/>
			<point x="311" y="1461"/>
			<point x="310" y="1464" type="curve" smooth="yes"/>
			<point x="304" y="1485"/>
			<point x="288" y="1511"/>
			<point x="263" y="1543" type="curve" smooth="yes"/>
			<point x="262" y="1545"/>
			<point x="261" y="1546"/>
			<point x="262" y="1547" type="curve" smooth="yes"/>
		</contour>
	</outline>
	<anchor name="_MarkAbove" x="233" y="1270"/>
</glyph>
<glyph name="fathasmall-ar" format="2">
	<unicode hex="0618"/>
	<outline>
		<contour>
			<point x="143" y="872" type="curve" smooth="yes"/>
			<point x="314" y="948" type="line" smooth="yes"/>
			<point x="323" y="952"/>
			<point x="327" y="949"/>
			<point x="326" y="941" type="curve" smooth="yes"/>
			<point x="323" y="914" type="line" smooth="yes"/>
			<point x="322" y="909"/>
			<point x="320" y="905"/>
			<point x="316" y="903" type="curve" smooth="yes"/>
			<point x="148" y="844" type="line" smooth="yes"/>
			<point x="137" y="840"/>
			<point x="131" y="843"/>
			<point x="132" y="851" type="curve" smooth="yes"/>
			<point x="134" y="862" type="line" smooth="yes"/>
			<point x="135" y="867"/>
			<point x="138" y="870"/>
		</contour>
	</outline>
	<anchor name="_MarkAbove" x="249" y="801"/>
	<anchor name="_TashkilAboveDot" x="247" y="801"/>
	<anchor name="_TashkilAbove" x="247" y="801"/>
</glyph>
<glyph name="dammasmall-ar" format="2">
	<unicode hex="0619"/>
	<outline>
		<contour>
			<point x="269" y="1054" type="curve" smooth="yes"/>
			<point x="277" y="1056"/>
			<point x="285" y="1054"/>
			<point x="290" y="1047" type="curve" smooth="yes"/>
			<point x="295" y="1040"/>
			<point x="296" y="1031"/>
			<point x="297" y="1019" type="curve" smooth="yes"/>
			<point x="298" y="1007"/>
			<point x="293" y="987"/>
			<point x="282" y="962" type="curve"/>
			<point x="291" y="956"/>
			<point x="298" y="952"/>
			<point x="302" y="950" type="curve" smooth="yes"/>
			<point x="306" y="948"/>
			<point x="307" y="944"/>
			<point x="304" y="937" type="curve" smooth="yes"/>
			<point x="294" y="917" type="line" smooth="yes"/>
			<point x="291" y="911"/>
			<point x="281" y="914"/>
			<point x="262" y="925" type="curve"/>
			<point x="232" y="886"/>
			<point x="204" y="860"/>
			<point x="180" y="847" type="curve" smooth="yes"/>
			<point x="169" y="841"/>
			<point x="162" y="840"/>
			<point x="159" y="845" type="curve" smooth="yes"/>
			<point x="156" y="850"/>
			<point x="160" y="857"/>
			<point x="174" y="867" type="curve" smooth="yes"/>
			<point x="200" y="886"/>
			<point x="224" y="908"/>
			<point x="245" y="936" type="curve"/>
			<point x="212" y="952"/>
			<point x="201" y="973"/>
			<point x="213" y="998" type="curve" smooth="yes"/>
			<point x="228" y="1029"/>
			<point x="247" y="1048"/>
		</contour>
		<contour>
			<point x="264" y="1000" type="curve" smooth="yes"/>
			<point x="260" y="1007"/>
			<point x="253" y="1009"/>
			<point x="243" y="1005" type="curve" smooth="yes"/>
			<point x="233" y="1001"/>
			<point x="229" y="997"/>
			<point x="232" y="994" type="curve" smooth="yes"/>
			<point x="237" y="988"/>
			<point x="248" y="980"/>
			<point x="264" y="972" type="curve"/>
			<point x="268" y="984"/>
			<point x="268" y="993"/>
		</contour>
	</outline>
	<anchor name="_MarkAbove" x="244" y="801"/>
	<anchor name="_TashkilAbove" x="244" y="801"/>
	<anchor name="_TashkilAboveDot" x="244" y="801"/>
</glyph>
<glyph name="uni061D" format="2">
	<unicode hex="061D"/>
	<advance width="674"/>
	<outline>
		<contour>
			<point x="378" y="154" type="curve" smooth="yes"/>
			<point x="361" y="212"/>
			<point x="336" y="276"/>
			<point x="294" y="329" type="curve" smooth="yes"/>
			<point x="276" y="350"/>
			<point x="246" y="378"/>
			<point x="203" y="413" type="curve" smooth="yes"/>
			<point x="168" y="441"/>
			<point x="141" y="465"/>
			<point x="122" y="485" type="curve" smooth="yes"/>
			<point x="116" y="491"/>
			<point x="119" y="508"/>
			<point x="123" y="513" type="curve" smooth="yes"/>
			<point x="152" y="568"/>
			<point x="227" y="655"/>
			<point x="304" y="655" type="curve" smooth="yes"/>
			<point x="352" y="655"/>
			<point x="381" y="631"/>
			<point x="381" y="579" type="curve" smooth="yes"/>
			<point x="381" y="556"/>
			<point x="373" y="525"/>
			<point x="357" y="486" type="curve"/>
			<point x="372" y="476" type="line"/>
			<point x="399" y="516"/>
			<point x="420" y="574"/>
			<point x="420" y="635" type="curve" smooth="yes"/>
			<point x="420" y="707"/>
			<point x="387" y="758"/>
			<point x="317" y="758" type="curve" smooth="yes"/>
			<point x="206" y="758"/>
			<point x="116" y="642"/>
			<point x="87" y="583" type="curve" smooth="yes"/>
			<point x="78" y="564"/>
			<point x="72" y="542"/>
			<point x="72" y="517" type="curve" smooth="yes"/>
			<point x="72" y="459"/>
			<point x="99" y="398"/>
			<point x="131" y="370" type="curve" smooth="yes"/>
			<point x="173" y="331"/>
			<point x="227" y="297"/>
			<point x="262" y="250" type="curve" smooth="yes"/>
			<point x="316" y="183"/>
			<point x="336" y="134"/>
			<point x="376" y="47" type="curve" smooth="yes"/>
			<point x="395" y="1"/>
			<point x="433" y="-43"/>
			<point x="488" y="-43" type="curve" smooth="yes"/>
			<point x="548" y="-43"/>
			<point x="603" y="18"/>
			<point x="603" y="80" type="curve" smooth="yes"/>
			<point x="603" y="124"/>
			<point x="577" y="166"/>
			<point x="534" y="166" type="curve" smooth="yes"/>
			<point x="493" y="166"/>
			<point x="466" y="136"/>
			<point x="466" y="95" type="curve" smooth="yes"/>
			<point x="466" y="83"/>
			<point x="468" y="70"/>
			<point x="473" y="55" type="curve"/>
			<point x="466" y="53"/>
			<point x="461" y="52"/>
			<point x="455" y="52" type="curve" smooth="yes"/>
			<point x="406" y="52"/>
			<point x="386" y="125"/>
		</contour>
	</outline>
</glyph>
<glyph name="question-ar" format="2">
	<unicode hex="061F"/>
	<advance width="413"/>
	<outline>
		<contour>
			<point x="322" y="519" type="curve"/>
			<point x="325" y="565"/>
			<point x="310" y="598"/>
			<point x="276" y="620" type="curve" smooth="yes"/>
			<point x="255" y="634"/>
			<point x="233" y="640"/>
			<point x="207" y="640" type="curve" smooth="yes"/>
			<point x="179" y="639"/>
			<point x="158" y="631"/>
			<point x="144" y="614" type="curve" smooth="yes"/>
			<point x="113" y="579"/>
			<point x="114" y="532"/>
			<point x="148" y="476" type="curve" smooth="yes"/>
			<point x="193" y="402"/>
			<point x="216" y="327"/>
			<point x="219" y="252" type="curve" smooth="yes"/>
			<point x="220" y="218"/>
			<point x="219" y="190"/>
			<point x="214" y="168" type="curve" smooth="yes"/>
			<point x="212" y="160"/>
			<point x="208" y="156"/>
			<point x="201" y="156" type="curve" smooth="yes"/>
			<point x="193" y="156"/>
			<point x="189" y="161"/>
			<point x="190" y="171" type="curve" smooth="yes"/>
			<point x="191" y="184"/>
			<point x="191" y="198"/>
			<point x="191" y="210" type="curve" smooth="yes"/>
			<point x="191" y="245"/>
			<point x="181" y="270"/>
			<point x="162" y="287" type="curve" smooth="yes"/>
			<point x="93" y="346"/>
			<point x="53" y="392"/>
			<point x="42" y="428" type="curve" smooth="yes"/>
			<point x="21" y="493"/>
			<point x="29" y="551"/>
			<point x="65" y="601" type="curve" smooth="yes"/>
			<point x="98" y="646"/>
			<point x="146" y="668"/>
			<point x="210" y="669" type="curve" smooth="yes"/>
			<point x="237" y="669"/>
			<point x="264" y="662"/>
			<point x="290" y="647" type="curve" smooth="yes"/>
			<point x="318" y="631"/>
			<point x="338" y="605"/>
			<point x="349" y="570" type="curve" smooth="yes"/>
			<point x="354" y="554"/>
			<point x="356" y="534"/>
			<point x="354" y="510" type="curve" smooth="yes"/>
			<point x="352" y="486"/>
			<point x="349" y="469"/>
			<point x="344" y="458" type="curve" smooth="yes"/>
			<point x="331" y="429"/>
			<point x="311" y="415"/>
			<point x="284" y="415" type="curve" smooth="yes"/>
			<point x="265" y="415"/>
			<point x="250" y="422"/>
			<point x="239" y="435" type="curve" smooth="yes"/>
			<point x="229" y="448"/>
			<point x="224" y="461"/>
			<point x="224" y="476" type="curve" smooth="yes"/>
			<point x="224" y="491"/>
			<point x="228" y="504"/>
			<point x="237" y="516" type="curve" smooth="yes"/>
			<point x="246" y="528"/>
			<point x="260" y="534"/>
			<point x="278" y="535" type="curve" smooth="yes"/>
			<point x="297" y="536"/>
			<point x="311" y="530"/>
		</contour>
		<component base="dot.2" xOffset="44"/>
	</outline>
</glyph>
<glyph name="hamza-ar" format="2">
	<unicode hex="0621"/>
	<advance width="381"/>
	<outline>
		<contour>
			<point x="308" y="125" type="line" smooth="yes"/>
			<point x="305" y="116"/>
			<point x="301" y="109"/>
			<point x="295" y="105" type="curve"/>
			<point x="245" y="87"/>
			<point x="183" y="54"/>
			<point x="109" y="4" type="curve" smooth="yes"/>
			<point x="102" y="0"/>
			<point x="97" y="0"/>
			<point x="93" y="4" type="curve" smooth="yes"/>
			<point x="82" y="15"/>
			<point x="97" y="38"/>
			<point x="138" y="73" type="curve"/>
			<point x="84" y="93"/>
			<point x="58" y="119"/>
			<point x="63" y="152" type="curve"/>
			<point x="66" y="179"/>
			<point x="87" y="215"/>
			<point x="125" y="259" type="curve" smooth="yes"/>
			<point x="148" y="285"/>
			<point x="168" y="298"/>
			<point x="184" y="298" type="curve" smooth="yes"/>
			<point x="218" y="298"/>
			<point x="233" y="279"/>
			<point x="230" y="242" type="curve" smooth="yes"/>
			<point x="229" y="229"/>
			<point x="224" y="216"/>
			<point x="217" y="204" type="curve" smooth="yes"/>
			<point x="210" y="192"/>
			<point x="201" y="190"/>
			<point x="192" y="199" type="curve" smooth="yes"/>
			<point x="162" y="228"/>
			<point x="140" y="232"/>
			<point x="127" y="214" type="curve" smooth="yes"/>
			<point x="113" y="193"/>
			<point x="125" y="174"/>
			<point x="163" y="156" type="curve" smooth="yes"/>
			<point x="186" y="145"/>
			<point x="212" y="142"/>
			<point x="243" y="148" type="curve" smooth="yes"/>
			<point x="252" y="150"/>
			<point x="262" y="154"/>
			<point x="274" y="161" type="curve" smooth="yes"/>
			<point x="286" y="168"/>
			<point x="297" y="172"/>
			<point x="305" y="174" type="curve"/>
			<point x="318" y="176"/>
			<point x="321" y="168"/>
			<point x="316" y="151" type="curve" smooth="yes"/>
		</contour>
	</outline>
	<anchor name="TashkilBelow" x="210" y="29"/>
	<anchor name="TashkilAbove" x="146" y="342"/>
</glyph>
<glyph name="kashida-ar" format="2">
	<unicode hex="0640"/>
	<advance width="185"/>
	<outline>
		<contour>
			<point x="0" y="0" type="line" smooth="yes"/>
			<point x="-6" y="0"/>
			<point x="-10" y="5"/>
			<point x="-13" y="15" type="curve" smooth="yes"/>
			<point x="-25" y="59" type="line" smooth="yes"/>
			<point x="-31" y="81"/>
			<point x="-22" y="91"/>
			<point x="0" y="90" type="curve" smooth="yes"/>
			<point x="186" y="90" type="line" smooth="yes"/>
			<point x="208" y="91"/>
			<point x="217" y="81"/>
			<point x="211" y="59" type="curve" smooth="yes"/>
			<point x="198" y="15" type="line" smooth="yes"/>
			<point x="195" y="5"/>
			<point x="192" y="0"/>
			<point x="186" y="0" type="curve" smooth="yes"/>
		</contour>
	</outline>
	<anchor name="HamzaBelow" x="93" y="-92.773"/>
	<anchor name="HamzaAbove" x="93" y="244"/>
	<anchor name="NoonAbove" x="93" y="244"/>
	<anchor name="AlefAbove" x="93" y="244"/>
	<anchor name="MarkBelow" x="93" y="-327"/>
	<anchor name="MarkAbove" x="93" y="801"/>
</glyph>
<glyph name="fathatan-ar" format="2">
	<unicode hex="064B"/>
	<outline>
		<contour>
			<point x="336" y="1012" type="line" smooth="yes"/>
			<point x="357" y="1027"/>
			<point x="366" y="1024"/>
			<point x="359" y="1004" type="curve" smooth="yes"/>
			<point x="349" y="973" type="line" smooth="yes"/>
			<point x="346" y="963"/>
			<point x="340" y="955"/>
			<point x="332" y="950" type="curve" smooth="yes"/>
			<point x="157" y="843" type="line" smooth="yes"/>
			<point x="143" y="835"/>
			<point x="138" y="837"/>
			<point x="140" y="852" type="curve" smooth="yes"/>
			<point x="143" y="871" type="line" smooth="yes"/>
			<point x="145" y="880"/>
			<point x="150" y="888"/>
			<point x="159" y="895" type="curve" smooth="yes"/>
		</contour>
		<contour>
			<point x="333" y="1112" type="line" smooth="yes"/>
			<point x="352" y="1124"/>
			<point x="359" y="1122"/>
			<point x="354" y="1104" type="curve" smooth="yes"/>
			<point x="347" y="1078" type="line" smooth="yes"/>
			<point x="344" y="1067"/>
			<point x="337" y="1058"/>
			<point x="326" y="1052" type="curve" smooth="yes"/>
			<point x="149" y="949" type="line" smooth="yes"/>
			<point x="127" y="936"/>
			<point x="120" y="939"/>
			<point x="128" y="959" type="curve" smooth="yes"/>
			<point x="137" y="978" type="line" smooth="yes"/>
			<point x="141" y="987"/>
			<point x="145" y="994"/>
			<point x="152" y="998" type="curve" smooth="yes"/>
		</contour>
	</outline>
	<anchor name="TashkilTashkilAbove" x="140" y="1060"/>
	<anchor name="_MarkAbove" x="258" y="801"/>
	<anchor name="_TashkilAboveDot" x="258" y="801"/>
	<anchor name="_TashkilAbove" x="258" y="801"/>
</glyph>
<glyph name="dammatan-ar" format="2">
	<unicode hex="064C"/>
	<outline>
		<contour>
			<point x="298" y="1106" type="curve" smooth="yes"/>
			<point x="307" y="1105"/>
			<point x="314" y="1098"/>
			<point x="318" y="1084" type="curve" smooth="yes"/>
			<point x="322" y="1070"/>
			<point x="325" y="1055"/>
			<point x="324" y="1041" type="curve" smooth="yes"/>
			<point x="323" y="1027"/>
			<point x="321" y="1012"/>
			<point x="316" y="998" type="curve"/>
			<point x="327" y="991"/>
			<point x="335" y="986"/>
			<point x="340" y="983" type="curve" smooth="yes"/>
			<point x="345" y="980"/>
			<point x="348" y="977"/>
			<point x="347" y="974" type="curve" smooth="yes"/>
			<point x="340" y="941" type="line" smooth="yes"/>
			<point x="338" y="931"/>
			<point x="330" y="929"/>
			<point x="316" y="938" type="curve" smooth="yes"/>
			<point x="305" y="945"/>
			<point x="296" y="951"/>
			<point x="292" y="955" type="curve"/>
			<point x="263" y="901"/>
			<point x="219" y="866"/>
			<point x="158" y="848" type="curve" smooth="yes"/>
			<point x="143" y="843"/>
			<point x="135" y="846"/>
			<point x="133" y="855" type="curve" smooth="yes"/>
			<point x="131" y="864"/>
			<point x="138" y="871"/>
			<point x="154" y="876" type="curve" smooth="yes"/>
			<point x="209" y="892"/>
			<point x="249" y="923"/>
			<point x="273" y="968" type="curve"/>
			<point x="250" y="985"/>
			<point x="237" y="998"/>
			<point x="234" y="1008" type="curve" smooth="yes"/>
			<point x="231" y="1018"/>
			<point x="232" y="1032"/>
			<point x="238" y="1049" type="curve" smooth="yes"/>
			<point x="244" y="1066"/>
			<point x="252" y="1081"/>
			<point x="263" y="1092" type="curve" smooth="yes"/>
			<point x="274" y="1103"/>
			<point x="286" y="1107"/>
		</contour>
		<contour>
			<point x="289" y="1045" type="curve" smooth="yes"/>
			<point x="282" y="1053"/>
			<point x="272" y="1054"/>
			<point x="259" y="1047" type="curve" smooth="yes"/>
			<point x="253" y="1044"/>
			<point x="254" y="1039"/>
			<point x="261" y="1033" type="curve" smooth="yes"/>
			<point x="272" y="1024"/>
			<point x="283" y="1018"/>
			<point x="292" y="1014" type="curve" smooth="yes"/>
			<point x="295" y="1013"/>
			<point x="295" y="1018"/>
			<point x="294" y="1028" type="curve" smooth="yes"/>
			<point x="293" y="1036"/>
			<point x="292" y="1041"/>
		</contour>
		<contour>
			<point x="213" y="1012" type="curve" smooth="yes"/>
			<point x="218" y="1013"/>
			<point x="219" y="1009"/>
			<point x="216" y="1000" type="curve" smooth="yes"/>
			<point x="208" y="974" type="line" smooth="yes"/>
			<point x="204" y="963"/>
			<point x="197" y="959"/>
			<point x="185" y="962" type="curve" smooth="yes"/>
			<point x="174" y="966"/>
			<point x="165" y="976"/>
			<point x="159" y="992" type="curve" smooth="yes"/>
			<point x="153" y="1008"/>
			<point x="152" y="1025"/>
			<point x="156" y="1042" type="curve" smooth="yes"/>
			<point x="163" y="1073"/>
			<point x="180" y="1103"/>
			<point x="207" y="1132" type="curve" smooth="yes"/>
			<point x="268" y="1199"/>
			<point x="311" y="1226"/>
			<point x="337" y="1213" type="curve" smooth="yes"/>
			<point x="346" y="1208"/>
			<point x="352" y="1200"/>
			<point x="353" y="1187" type="curve" smooth="yes"/>
			<point x="354" y="1174"/>
			<point x="350" y="1160"/>
			<point x="342" y="1147" type="curve" smooth="yes"/>
			<point x="335" y="1136"/>
			<point x="326" y="1135"/>
			<point x="316" y="1145" type="curve" smooth="yes"/>
			<point x="298" y="1163"/>
			<point x="276" y="1162"/>
			<point x="250" y="1143" type="curve" smooth="yes"/>
			<point x="227" y="1127"/>
			<point x="211" y="1110"/>
			<point x="201" y="1094" type="curve" smooth="yes"/>
			<point x="189" y="1075"/>
			<point x="182" y="1060"/>
			<point x="181" y="1048" type="curve" smooth="yes"/>
			<point x="180" y="1036"/>
			<point x="183" y="1027"/>
			<point x="190" y="1020" type="curve" smooth="yes"/>
			<point x="197" y="1013"/>
			<point x="205" y="1011"/>
		</contour>
	</outline>
	<anchor name="TashkilTashkilAbove" x="91" y="1060"/>
	<anchor name="_MarkAbove" x="249" y="801"/>
	<anchor name="_TashkilAbove" x="249" y="801"/>
	<anchor name="_TashkilAboveDot" x="249" y="801"/>
</glyph>
<glyph name="fatha-ar" format="2">
	<unicode hex="064E"/>
	<outline>
		<contour>
			<point x="354" y="1021" type="line" smooth="yes"/>
			<point x="371" y="1031"/>
			<point x="377" y="1028"/>
			<point x="372" y="1011" type="curve" smooth="yes"/>
			<point x="362" y="979" type="line" smooth="yes"/>
			<point x="360" y="971"/>
			<point x="352" y="962"/>
			<point x="340" y="955" type="curve" smooth="yes"/>
			<point x="146" y="843" type="line" smooth="yes"/>
			<point x="134" y="836"/>
			<point x="128" y="839"/>
			<point x="128" y="852" type="curve" smooth="yes"/>
			<point x="128" y="869" type="line" smooth="yes"/>
			<point x="128" y="876"/>
			<point x="135" y="883"/>
			<point x="146" y="892" type="curve" smooth="yes"/>
		</contour>
	</outline>
	<anchor name="_MarkAbove" x="268" y="801"/>
	<anchor name="TashkilTashkilAbove" x="145" y="955"/>
	<anchor name="_TashkilAbove" x="271" y="801"/>
	<anchor name="_TashkilAboveDot" x="271" y="801"/>
</glyph>
<glyph name="damma-ar" format="2">
	<unicode hex="064F"/>
	<outline>
		<contour>
			<point x="311" y="1146" type="curve" smooth="yes"/>
			<point x="322" y="1148"/>
			<point x="331" y="1142"/>
			<point x="339" y="1130" type="curve" smooth="yes"/>
			<point x="356" y="1104"/>
			<point x="356" y="1070"/>
			<point x="339" y="1026" type="curve"/>
			<point x="350" y="1020"/>
			<point x="357" y="1015"/>
			<point x="362" y="1013" type="curve" smooth="yes"/>
			<point x="371" y="1009"/>
			<point x="373" y="1003"/>
			<point x="368" y="993" type="curve" smooth="yes"/>
			<point x="357" y="972" type="line" smooth="yes"/>
			<point x="353" y="965"/>
			<point x="348" y="963"/>
			<point x="342" y="965" type="curve" smooth="yes"/>
			<point x="336" y="967"/>
			<point x="327" y="971"/>
			<point x="315" y="978" type="curve"/>
			<point x="269" y="917"/>
			<point x="217" y="872"/>
			<point x="158" y="843" type="curve" smooth="yes"/>
			<point x="145" y="836"/>
			<point x="137" y="837"/>
			<point x="132" y="845" type="curve" smooth="yes"/>
			<point x="127" y="855"/>
			<point x="131" y="864"/>
			<point x="146" y="872" type="curve" smooth="yes"/>
			<point x="206" y="907"/>
			<point x="254" y="948"/>
			<point x="289" y="993" type="curve"/>
			<point x="270" y="1003"/>
			<point x="256" y="1012"/>
			<point x="247" y="1021" type="curve" smooth="yes"/>
			<point x="231" y="1036"/>
			<point x="227" y="1053"/>
			<point x="234" y="1070" type="curve" smooth="yes"/>
			<point x="253" y="1116"/>
			<point x="279" y="1141"/>
		</contour>
		<contour>
			<point x="300" y="1082" type="curve" smooth="yes"/>
			<point x="285" y="1096"/>
			<point x="273" y="1094"/>
			<point x="264" y="1079" type="curve" smooth="yes"/>
			<point x="261" y="1075"/>
			<point x="263" y="1070"/>
			<point x="269" y="1064" type="curve" smooth="yes"/>
			<point x="275" y="1058"/>
			<point x="290" y="1049"/>
			<point x="311" y="1039" type="curve"/>
			<point x="314" y="1059"/>
			<point x="310" y="1074"/>
		</contour>
	</outline>
	<anchor name="_MarkAbove" x="278" y="801"/>
	<anchor name="TashkilTashkilAbove" x="195" y="1074"/>
	<anchor name="_TashkilAboveDot" x="278" y="801"/>
	<anchor name="_TashkilAbove" x="278" y="801"/>
</glyph>
<glyph name="shadda-ar" format="2">
	<unicode hex="0651"/>
	<outline>
		<contour>
			<point x="299" y="983" type="curve" smooth="yes"/>
			<point x="301" y="998"/>
			<point x="306" y="1005"/>
			<point x="314" y="1004" type="curve" smooth="yes"/>
			<point x="324" y="1003"/>
			<point x="329" y="996"/>
			<point x="328" y="983" type="curve" smooth="yes"/>
			<point x="326" y="947"/>
			<point x="319" y="918"/>
			<point x="308" y="894" type="curve" smooth="yes"/>
			<point x="295" y="866"/>
			<point x="276" y="850"/>
			<point x="252" y="848" type="curve" smooth="yes"/>
			<point x="236" y="847"/>
			<point x="222" y="855"/>
			<point x="208" y="872" type="curve"/>
			<point x="199" y="855"/>
			<point x="185" y="843"/>
			<point x="170" y="835" type="curve" smooth="yes"/>
			<point x="153" y="826"/>
			<point x="137" y="825"/>
			<point x="121" y="832" type="curve" smooth="yes"/>
			<point x="82" y="848"/>
			<point x="78" y="894"/>
			<point x="108" y="972" type="curve" smooth="yes"/>
			<point x="113" y="984"/>
			<point x="120" y="988"/>
			<point x="129" y="984" type="curve" smooth="yes"/>
			<point x="136" y="981"/>
			<point x="139" y="974"/>
			<point x="136" y="962" type="curve" smooth="yes"/>
			<point x="125" y="923"/>
			<point x="129" y="902"/>
			<point x="150" y="899" type="curve" smooth="yes"/>
			<point x="175" y="896"/>
			<point x="195" y="923"/>
			<point x="210" y="980" type="curve" smooth="yes"/>
			<point x="213" y="991"/>
			<point x="219" y="996"/>
			<point x="226" y="994" type="curve" smooth="yes"/>
			<point x="234" y="992"/>
			<point x="238" y="987"/>
			<point x="236" y="979" type="curve" smooth="yes"/>
			<point x="230" y="945"/>
			<point x="238" y="928"/>
			<point x="260" y="928" type="curve" smooth="yes"/>
			<point x="282" y="928"/>
			<point x="295" y="946"/>
		</contour>
	</outline>
	<anchor name="_MarkAbove" x="208" y="801"/>
	<anchor name="TashkilTashkilBelow" x="198" y="801"/>
	<anchor name="TashkilTashkilAbove" x="200" y="1003"/>
	<anchor name="_TashkilAbove" x="208" y="801"/>
	<anchor name="_TashkilAboveDot" x="208" y="801"/>
</glyph>
<glyph name="sukun-ar" format="2">
	<unicode hex="0652"/>
	<outline>
		<contour>
			<point x="117" y="984" type="curve" smooth="yes"/>
			<point x="144" y="1033"/>
			<point x="178" y="1041"/>
			<point x="220" y="1009" type="curve" smooth="yes"/>
			<point x="247" y="988"/>
			<point x="262" y="964"/>
			<point x="264" y="934" type="curve" smooth="yes"/>
			<point x="266" y="898"/>
			<point x="255" y="871"/>
			<point x="231" y="854" type="curve" smooth="yes"/>
			<point x="213" y="842"/>
			<point x="192" y="837"/>
			<point x="166" y="839" type="curve" smooth="yes"/>
			<point x="112" y="843"/>
			<point x="91" y="876"/>
			<point x="101" y="939" type="curve" smooth="yes"/>
			<point x="104" y="956"/>
			<point x="110" y="970"/>
		</contour>
		<contour>
			<point x="223" y="909" type="curve" smooth="yes"/>
			<point x="242" y="914"/>
			<point x="242" y="927"/>
			<point x="222" y="947" type="curve" smooth="yes"/>
			<point x="208" y="961"/>
			<point x="190" y="969"/>
			<point x="169" y="969" type="curve" smooth="yes"/>
			<point x="144" y="970"/>
			<point x="131" y="959"/>
			<point x="130" y="937" type="curve" smooth="yes"/>
			<point x="130" y="923"/>
			<point x="135" y="913"/>
			<point x="146" y="909" type="curve" smooth="yes"/>
			<point x="169" y="901"/>
			<point x="195" y="901"/>
		</contour>
	</outline>
	<anchor name="_MarkAbove" x="180" y="801"/>
	<anchor name="_TashkilTashkilAbove" x="112" y="791"/>
	<anchor name="_TashkilAboveDot" x="182" y="801"/>
	<anchor name="_TashkilAbove" x="182" y="801"/>
</glyph>
<glyph name="madda-ar" format="2">
	<unicode hex="0653"/>
	<outline>
		<contour>
			<point x="196" y="912" type="curve" smooth="yes"/>
			<point x="208" y="915"/>
			<point x="216" y="911"/>
			<point x="220" y="901" type="curve" smooth="yes"/>
			<point x="224" y="891"/>
			<point x="220" y="882"/>
			<point x="211" y="876" type="curve" smooth="yes"/>
			<point x="139" y="829"/>
			<point x="23" y="808"/>
			<point x="-138" y="813" type="curve"/>
			<point x="-144" y="800"/>
			<point x="-150" y="790"/>
			<point x="-156" y="783" type="curve" smooth="yes"/>
			<point x="-162" y="776"/>
			<point x="-166" y="775"/>
			<point x="-170" y="779" type="curve" smooth="yes"/>
			<point x="-217" y="827" type="line"/>
			<point x="-226" y="835"/>
			<point x="-216" y="856"/>
			<point x="-186" y="891" type="curve" smooth="yes"/>
			<point x="-180" y="897"/>
			<point x="-171" y="899"/>
			<point x="-158" y="897" type="curve" smooth="yes"/>
			<point x="-40" y="878"/>
			<point x="79" y="883"/>
		</contour>
	</outline>
	<anchor name="_MarkAbove" x="0" y="767"/>
	<anchor name="_TashkilAbove" x="0" y="801"/>
</glyph>
<glyph name="hamzaabove-ar" format="2">
	<unicode hex="0654"/>
	<outline>
		<contour>
			<point x="74" y="480" type="curve" smooth="yes"/>
			<point x="38" y="473"/>
			<point x="12" y="468"/>
			<point x="-3" y="463" type="curve" smooth="yes"/>
			<point x="-18" y="458"/>
			<point x="-46" y="446"/>
			<point x="-87" y="428" type="curve" smooth="yes"/>
			<point x="-96" y="424"/>
			<point x="-102" y="426"/>
			<point x="-106" y="432" type="curve" smooth="yes"/>
			<point x="-114" y="444"/>
			<point x="-101" y="460"/>
			<point x="-67" y="481" type="curve"/>
			<point x="-92" y="493"/>
			<point x="-106" y="507"/>
			<point x="-109" y="523" type="curve" smooth="yes"/>
			<point x="-114" y="550"/>
			<point x="-103" y="584"/>
			<point x="-75" y="622" type="curve"/>
			<point x="-47" y="660"/>
			<point x="-18" y="678"/>
			<point x="14" y="675" type="curve" smooth="yes"/>
			<point x="34" y="673"/>
			<point x="43" y="662"/>
			<point x="41" y="641" type="curve" smooth="yes"/>
			<point x="39" y="620"/>
			<point x="33" y="603"/>
			<point x="23" y="589" type="curve" smooth="yes"/>
			<point x="13" y="575"/>
			<point x="6" y="573"/>
			<point x="-1" y="584" type="curve" smooth="yes"/>
			<point x="-8" y="595"/>
			<point x="-18" y="602"/>
			<point x="-31" y="603" type="curve" smooth="yes"/>
			<point x="-44" y="604"/>
			<point x="-55" y="600"/>
			<point x="-62" y="591" type="curve" smooth="yes"/>
			<point x="-69" y="582"/>
			<point x="-70" y="573"/>
			<point x="-61" y="565" type="curve" smooth="yes"/>
			<point x="-39" y="544"/>
			<point x="-6" y="533"/>
			<point x="37" y="532" type="curve" smooth="yes"/>
			<point x="44" y="532"/>
			<point x="53" y="534"/>
			<point x="67" y="537" type="curve" smooth="yes"/>
			<point x="81" y="540"/>
			<point x="91" y="542"/>
			<point x="96" y="542" type="curve" smooth="yes"/>
			<point x="101" y="542"/>
			<point x="106" y="539"/>
			<point x="108" y="535" type="curve" smooth="yes"/>
			<point x="110" y="531"/>
			<point x="111" y="528"/>
			<point x="109" y="524" type="curve" smooth="yes"/>
			<point x="96" y="497"/>
			<point x="85" y="482"/>
		</contour>
	</outline>
	<anchor name="_TashkilAbove" x="0" y="464"/>
	<anchor name="_MarkAbove" x="0" y="405"/>
	<anchor name="TashkilTashkilAbove" x="-24" y="718"/>
	<anchor name="_HamzaAbove" x="0" y="464"/>
</glyph>
<glyph name="noonghunnaabove-ar" format="2">
	<unicode hex="0658"/>
	<outline>
		<contour>
			<point x="147" y="1009" type="curve" smooth="yes"/>
			<point x="152" y="1016"/>
			<point x="157" y="1020"/>
			<point x="161" y="1020" type="curve" smooth="yes"/>
			<point x="165" y="1020"/>
			<point x="167" y="1014"/>
			<point x="166" y="1006" type="curve" smooth="yes"/>
			<point x="159" y="952"/>
			<point x="176" y="922"/>
			<point x="216" y="917" type="curve" smooth="yes"/>
			<point x="229" y="915"/>
			<point x="240" y="923"/>
			<point x="250" y="937" type="curve" smooth="yes"/>
			<point x="257" y="947"/>
			<point x="262" y="951"/>
			<point x="266" y="949" type="curve" smooth="yes"/>
			<point x="270" y="947"/>
			<point x="270" y="942"/>
			<point x="267" y="931" type="curve" smooth="yes"/>
			<point x="249" y="873"/>
			<point x="221" y="843"/>
			<point x="183" y="843" type="curve" smooth="yes"/>
			<point x="141" y="843"/>
			<point x="118" y="863"/>
			<point x="115" y="904" type="curve" smooth="yes"/>
			<point x="113" y="938"/>
			<point x="123" y="973"/>
		</contour>
	</outline>
	<anchor name="_MarkAbove" x="180" y="801"/>
	<anchor name="_TashkilAboveDot" x="182" y="801"/>
	<anchor name="_TashkilAbove" x="182" y="801"/>
</glyph>
<glyph name="fathaHorizont-ar" format="2">
	<unicode hex="0659"/>
	<outline>
		<contour>
			<point x="132" y="845" type="line" smooth="yes"/>
			<point x="112" y="845"/>
			<point x="108" y="851"/>
			<point x="121" y="863" type="curve" smooth="yes"/>
			<point x="146" y="886" type="line" smooth="yes"/>
			<point x="153" y="892"/>
			<point x="163" y="896"/>
			<point x="177" y="896" type="curve" smooth="yes"/>
			<point x="411" y="896" type="line" smooth="yes"/>
			<point x="431" y="896"/>
			<point x="435" y="889"/>
			<point x="422" y="877" type="curve" smooth="yes"/>
			<point x="396" y="854" type="line" smooth="yes"/>
			<point x="389" y="848"/>
			<point x="380" y="845"/>
			<point x="366" y="845" type="curve" smooth="yes"/>
		</contour>
	</outline>
	<anchor name="_MarkAbove" x="268" y="801"/>
	<anchor name="_TashkilAbove" x="271" y="801"/>
	<anchor name="_TashkilAboveDot" x="271" y="801"/>
</glyph>
<glyph name="vabove-ar" format="2">
	<unicode hex="065A"/>
	<outline>
		<contour>
			<point x="69" y="638" type="curve" smooth="yes"/>
			<point x="88" y="611" type="line" smooth="yes"/>
			<point x="90" y="607"/>
			<point x="91" y="605"/>
			<point x="91" y="602" type="curve" smooth="yes"/>
			<point x="91" y="599"/>
			<point x="90" y="595"/>
			<point x="88" y="592" type="curve" smooth="yes"/>
			<point x="55" y="538"/>
			<point x="33" y="491"/>
			<point x="22" y="452" type="curve" smooth="yes"/>
			<point x="13" y="445" type="line" smooth="yes"/>
			<point x="12" y="444"/>
			<point x="10" y="444"/>
			<point x="8" y="444" type="curve" smooth="yes"/>
			<point x="5" y="444"/>
			<point x="3" y="446"/>
			<point x="0" y="449" type="curve" smooth="yes"/>
			<point x="-38" y="496"/>
			<point x="-68" y="546"/>
			<point x="-89" y="599" type="curve" smooth="yes"/>
			<point x="-91" y="604"/>
			<point x="-92" y="608"/>
			<point x="-92" y="611" type="curve" smooth="yes"/>
			<point x="-92" y="617"/>
			<point x="-89" y="621"/>
			<point x="-83" y="623" type="curve" smooth="yes"/>
			<point x="-75" y="626"/>
			<point x="-68" y="621"/>
			<point x="-64" y="610" type="curve" smooth="yes"/>
			<point x="-55" y="586"/>
			<point x="-37" y="552"/>
			<point x="-12" y="509" type="curve"/>
			<point x="2" y="558"/>
			<point x="22" y="601"/>
			<point x="51" y="636" type="curve" smooth="yes"/>
			<point x="55" y="641"/>
			<point x="59" y="643"/>
			<point x="62" y="643" type="curve" smooth="yes"/>
			<point x="65" y="643"/>
			<point x="67" y="641"/>
		</contour>
	</outline>
	<anchor name="_TashkilAbove" x="0" y="464"/>
	<anchor name="_MarkAbove" x="0" y="410"/>
	<anchor name="TashkilTashkilAbove" x="0" y="732"/>
	<anchor name="_MarkDotAbove" x="0" y="464"/>
	<anchor name="_VAbove" x="0" y="464"/>
</glyph>
<glyph name="vinvertedabove-ar" format="2">
	<unicode hex="065B"/>
	<outline>
		<contour>
			<point x="77" y="458" type="line" smooth="yes"/>
			<point x="75" y="455"/>
			<point x="73" y="453"/>
			<point x="70" y="453" type="curve" smooth="yes"/>
			<point x="67" y="452"/>
			<point x="63" y="454"/>
			<point x="59" y="458" type="curve" smooth="yes"/>
			<point x="27" y="490"/>
			<point x="1" y="529"/>
			<point x="-18" y="577" type="curve"/>
			<point x="-39" y="532"/>
			<point x="-51" y="497"/>
			<point x="-58" y="472" type="curve" smooth="yes"/>
			<point x="-61" y="461"/>
			<point x="-67" y="455"/>
			<point x="-75" y="457" type="curve" smooth="yes"/>
			<point x="-82" y="458"/>
			<point x="-85" y="462"/>
			<point x="-86" y="468" type="curve" smooth="yes"/>
			<point x="-86" y="471"/>
			<point x="-85" y="474"/>
			<point x="-84" y="479" type="curve" smooth="yes"/>
			<point x="-68" y="534"/>
			<point x="-44" y="588"/>
			<point x="-11" y="639" type="curve" smooth="yes"/>
			<point x="-9" y="643"/>
			<point x="-7" y="645"/>
			<point x="-4" y="645" type="curve" smooth="yes"/>
			<point x="-2" y="645"/>
			<point x="-1" y="645"/>
			<point x="0" y="644" type="curve" smooth="yes"/>
			<point x="10" y="638" type="line" smooth="yes"/>
			<point x="26" y="600"/>
			<point x="53" y="555"/>
			<point x="91" y="505" type="curve" smooth="yes"/>
			<point x="94" y="502"/>
			<point x="95" y="500"/>
			<point x="95" y="497" type="curve" smooth="yes"/>
			<point x="95" y="494"/>
			<point x="95" y="491"/>
			<point x="93" y="487" type="curve" smooth="yes"/>
		</contour>
	</outline>
	<anchor name="_TashkilAbove" x="0" y="464"/>
	<anchor name="_MarkAbove" x="0" y="410"/>
	<anchor name="TashkilTashkilAbove" x="0" y="732"/>
	<anchor name="_TashkilAboveDot" x="0" y="464"/>
	<anchor name="_VAbove" x="0" y="464"/>
</glyph>
<glyph name="dammareversed-ar" format="2">
	<unicode hex="065D"/>
	<outline>
		<contour>
			<point x="189" y="1146" type="curve" smooth="yes"/>
			<point x="221" y="1141"/>
			<point x="247" y="1116"/>
			<point x="266" y="1070" type="curve" smooth="yes"/>
			<point x="273" y="1053"/>
			<point x="268" y="1036"/>
			<point x="252" y="1021" type="curve" smooth="yes"/>
			<point x="243" y="1012"/>
			<point x="229" y="1003"/>
			<point x="210" y="993" type="curve"/>
			<point x="245" y="948"/>
			<point x="294" y="907"/>
			<point x="354" y="872" type="curve" smooth="yes"/>
			<point x="369" y="864"/>
			<point x="373" y="855"/>
			<point x="368" y="845" type="curve" smooth="yes"/>
			<point x="363" y="837"/>
			<point x="354" y="836"/>
			<point x="341" y="843" type="curve" smooth="yes"/>
			<point x="282" y="872"/>
			<point x="231" y="917"/>
			<point x="185" y="978" type="curve"/>
			<point x="173" y="971"/>
			<point x="163" y="967"/>
			<point x="157" y="965" type="curve" smooth="yes"/>
			<point x="151" y="963"/>
			<point x="147" y="965"/>
			<point x="143" y="972" type="curve" smooth="yes"/>
			<point x="131" y="993" type="line" smooth="yes"/>
			<point x="126" y="1003"/>
			<point x="128" y="1009"/>
			<point x="137" y="1013" type="curve" smooth="yes"/>
			<point x="142" y="1015"/>
			<point x="150" y="1020"/>
			<point x="161" y="1026" type="curve"/>
			<point x="144" y="1070"/>
			<point x="143" y="1104"/>
			<point x="160" y="1130" type="curve" smooth="yes"/>
			<point x="168" y="1142"/>
			<point x="178" y="1148"/>
		</contour>
		<contour>
			<point x="199" y="1082" type="curve" smooth="yes"/>
			<point x="189" y="1074"/>
			<point x="186" y="1059"/>
			<point x="189" y="1039" type="curve"/>
			<point x="210" y="1049"/>
			<point x="224" y="1058"/>
			<point x="230" y="1064" type="curve" smooth="yes"/>
			<point x="236" y="1070"/>
			<point x="238" y="1075"/>
			<point x="235" y="1079" type="curve" smooth="yes"/>
			<point x="226" y="1094"/>
			<point x="214" y="1096"/>
		</contour>
	</outline>
	<anchor name="_MarkAbove" x="278" y="801"/>
	<anchor name="_TashkilAbove" x="278" y="801"/>
	<anchor name="_TashkilAboveDot" x="278" y="801"/>
</glyph>
<glyph name="fathatwodots-ar" format="2">
	<unicode hex="065E"/>
	<outline>
		<contour>
			<point x="153" y="1017" type="line" smooth="yes"/>
			<point x="153" y="1018"/>
			<point x="154" y="1018"/>
			<point x="155" y="1018" type="curve" smooth="yes"/>
			<point x="164" y="1018"/>
			<point x="176" y="1011"/>
			<point x="192" y="997" type="curve" smooth="yes"/>
			<point x="193" y="996"/>
			<point x="194" y="994"/>
			<point x="193" y="992" type="curve" smooth="yes"/>
			<point x="169" y="955" type="line" smooth="yes"/>
			<point x="168" y="953"/>
			<point x="167" y="953"/>
			<point x="165" y="955" type="curve" smooth="yes"/>
			<point x="163" y="957"/>
			<point x="156" y="961"/>
			<point x="145" y="968" type="curve" smooth="yes"/>
			<point x="134" y="975"/>
			<point x="128" y="978"/>
			<point x="128" y="979" type="curve" smooth="yes"/>
			<point x="128" y="980"/>
			<point x="128" y="980"/>
			<point x="128" y="980" type="curve" smooth="yes"/>
		</contour>
		<contour>
			<point x="331" y="912" type="line" smooth="yes"/>
			<point x="332" y="913"/>
			<point x="332" y="913"/>
			<point x="333" y="913" type="curve" smooth="yes"/>
			<point x="334" y="913"/>
			<point x="338" y="912"/>
			<point x="346" y="909" type="curve" smooth="yes"/>
			<point x="354" y="906"/>
			<point x="359" y="902"/>
			<point x="364" y="897" type="curve" smooth="yes"/>
			<point x="369" y="891"/>
			<point x="372" y="888"/>
			<point x="371" y="887" type="curve" smooth="yes"/>
			<point x="347" y="850" type="line" smooth="yes"/>
			<point x="347" y="849"/>
			<point x="347" y="849"/>
			<point x="346" y="849" type="curve" smooth="yes"/>
			<point x="345" y="849"/>
			<point x="342" y="851"/>
			<point x="335" y="856" type="curve" smooth="yes"/>
			<point x="328" y="861"/>
			<point x="322" y="865"/>
			<point x="315" y="868" type="curve" smooth="yes"/>
			<point x="308" y="871"/>
			<point x="306" y="873"/>
			<point x="306" y="874" type="curve" smooth="yes"/>
			<point x="306" y="875"/>
			<point x="306" y="875"/>
			<point x="306" y="875" type="curve" smooth="yes"/>
		</contour>
		<component base="fatha-ar"/>
	</outline>
	<anchor name="_MarkAbove" x="268" y="801"/>
	<anchor name="_TashkilAbove" x="271" y="801"/>
	<anchor name="_TashkilAboveDot" x="271" y="801"/>
</glyph>
<glyph name="wavyhamzabelow-ar" format="2">
	<unicode hex="065F"/>
	<outline>
		<contour>
			<point x="-84" y="-450" type="curve" smooth="yes"/>
			<point x="-77" y="-447"/>
			<point x="-71" y="-443"/>
			<point x="-67" y="-438" type="curve"/>
			<point x="-92" y="-426"/>
			<point x="-106" y="-412"/>
			<point x="-109" y="-396" type="curve" smooth="yes"/>
			<point x="-114" y="-369"/>
			<point x="-103" y="-336"/>
			<point x="-75" y="-298" type="curve"/>
			<point x="-47" y="-260"/>
			<point x="-18" y="-242"/>
			<point x="14" y="-245" type="curve" smooth="yes"/>
			<point x="34" y="-247"/>
			<point x="43" y="-258"/>
			<point x="41" y="-279" type="curve" smooth="yes"/>
			<point x="39" y="-300"/>
			<point x="33" y="-317"/>
			<point x="23" y="-331" type="curve" smooth="yes"/>
			<point x="13" y="-345"/>
			<point x="6" y="-346"/>
			<point x="-1" y="-335" type="curve" smooth="yes"/>
			<point x="-8" y="-324"/>
			<point x="-18" y="-318"/>
			<point x="-31" y="-317" type="curve" smooth="yes"/>
			<point x="-44" y="-316"/>
			<point x="-55" y="-320"/>
			<point x="-62" y="-329" type="curve" smooth="yes"/>
			<point x="-69" y="-338"/>
			<point x="-70" y="-346"/>
			<point x="-61" y="-354" type="curve" smooth="yes"/>
			<point x="-39" y="-375"/>
			<point x="-6" y="-387"/>
			<point x="37" y="-388" type="curve" smooth="yes"/>
			<point x="44" y="-388"/>
			<point x="53" y="-386"/>
			<point x="67" y="-383" type="curve" smooth="yes"/>
			<point x="81" y="-380"/>
			<point x="91" y="-378"/>
			<point x="96" y="-378" type="curve" smooth="yes"/>
			<point x="101" y="-378"/>
			<point x="106" y="-381"/>
			<point x="108" y="-385" type="curve" smooth="yes"/>
			<point x="110" y="-389"/>
			<point x="111" y="-392"/>
			<point x="109" y="-396" type="curve" smooth="yes"/>
			<point x="97" y="-423"/>
			<point x="85" y="-437"/>
			<point x="74" y="-439" type="curve" smooth="yes"/>
			<point x="23" y="-450"/>
			<point x="-30" y="-468"/>
			<point x="-87" y="-492" type="curve" smooth="yes"/>
			<point x="-104" y="-499"/>
			<point x="-130" y="-495"/>
			<point x="-165" y="-481" type="curve" smooth="yes"/>
			<point x="-182" y="-474"/>
			<point x="-195" y="-476"/>
			<point x="-207" y="-484" type="curve" smooth="yes"/>
			<point x="-219" y="-492"/>
			<point x="-232" y="-506"/>
			<point x="-246" y="-526" type="curve"/>
			<point x="-248" y="-529"/>
			<point x="-250" y="-529"/>
			<point x="-253" y="-526" type="curve" smooth="yes"/>
			<point x="-256" y="-523"/>
			<point x="-256" y="-520"/>
			<point x="-255" y="-517" type="curve" smooth="yes"/>
			<point x="-232" y="-477"/>
			<point x="-212" y="-451"/>
			<point x="-195" y="-440" type="curve" smooth="yes"/>
			<point x="-180" y="-430"/>
			<point x="-164" y="-427"/>
			<point x="-148" y="-434" type="curve" smooth="yes"/>
			<point x="-113" y="-448"/>
			<point x="-91" y="-453"/>
		</contour>
	</outline>
	<anchor name="_TashkilBelow" x="0" y="-244"/>
	<anchor name="_MarkBelow" x="0" y="-225"/>
	<anchor name="TashkilTashkilBelow" x="0" y="-547"/>
	<anchor name="_HamzaBelow" x="0" y="-244"/>
</glyph>
<glyph name="zero-ar" format="2">
	<unicode hex="0660"/>
	<advance width="585"/>
	<outline>
		<contour>
			<point x="251" y="312" type="line" smooth="yes"/>
			<point x="256" y="326"/>
			<point x="266" y="328"/>
			<point x="281" y="318" type="curve" smooth="yes"/>
			<point x="364" y="265" type="line" smooth="yes"/>
			<point x="376" y="257"/>
			<point x="379" y="246"/>
			<point x="374" y="231" type="curve" smooth="yes"/>
			<point x="342" y="132" type="line" smooth="yes"/>
			<point x="336" y="115"/>
			<point x="325" y="113"/>
			<point x="308" y="123" type="curve" smooth="yes"/>
			<point x="217" y="176" type="line" smooth="yes"/>
			<point x="209" y="181"/>
			<point x="208" y="191"/>
			<point x="213" y="206" type="curve" smooth="yes"/>
		</contour>
	</outline>
</glyph>
<glyph name="one-ar" format="2">
	<unicode hex="0661"/>
	<advance width="585"/>
	<outline>
		<contour>
			<point x="246" y="524" type="line" smooth="yes"/>
			<point x="255" y="552"/>
			<point x="269" y="546"/>
			<point x="286" y="506" type="curve"/>
			<point x="325" y="406"/>
			<point x="352" y="310"/>
			<point x="365" y="218" type="curve" smooth="yes"/>
			<point x="383" y="89"/>
			<point x="379" y="-10"/>
			<point x="356" y="-79" type="curve" smooth="yes"/>
			<point x="352" y="-89"/>
			<point x="347" y="-94"/>
			<point x="338" y="-92" type="curve" smooth="yes"/>
			<point x="329" y="-90"/>
			<point x="325" y="-84"/>
			<point x="325" y="-72" type="curve" smooth="yes"/>
			<point x="327" y="99"/>
			<point x="292" y="247"/>
			<point x="221" y="373" type="curve" smooth="yes"/>
			<point x="210" y="393"/>
			<point x="207" y="410"/>
			<point x="212" y="424" type="curve" smooth="yes"/>
		</contour>
	</outline>
</glyph>
<glyph name="two-ar" format="2">
	<unicode hex="0662"/>
	<advance width="585"/>
	<outline>
		<contour>
			<point x="137" y="521" type="line" smooth="yes"/>
			<point x="144" y="551"/>
			<point x="157" y="548"/>
			<point x="176" y="512" type="curve" smooth="yes"/>
			<point x="209" y="450"/>
			<point x="253" y="418"/>
			<point x="308" y="418" type="curve" smooth="yes"/>
			<point x="387" y="418"/>
			<point x="430" y="454"/>
			<point x="439" y="523" type="curve" smooth="yes"/>
			<point x="441" y="535"/>
			<point x="447" y="541"/>
			<point x="456" y="541" type="curve" smooth="yes"/>
			<point x="465" y="541"/>
			<point x="471" y="537"/>
			<point x="474" y="530" type="curve" smooth="yes"/>
			<point x="477" y="523"/>
			<point x="474" y="499"/>
			<point x="468" y="462" type="curve" smooth="yes"/>
			<point x="462" y="425"/>
			<point x="449" y="392"/>
			<point x="428" y="362" type="curve" smooth="yes"/>
			<point x="395" y="313"/>
			<point x="338" y="295"/>
			<point x="259" y="308" type="curve"/>
			<point x="301" y="150"/>
			<point x="313" y="22"/>
			<point x="293" y="-77" type="curve" smooth="yes"/>
			<point x="292" y="-84"/>
			<point x="289" y="-89"/>
			<point x="283" y="-91" type="curve" smooth="yes"/>
			<point x="277" y="-93"/>
			<point x="272" y="-93"/>
			<point x="268" y="-89" type="curve" smooth="yes"/>
			<point x="264" y="-85"/>
			<point x="262" y="-80"/>
			<point x="261" y="-73" type="curve" smooth="yes"/>
			<point x="250" y="99"/>
			<point x="204" y="248"/>
			<point x="125" y="372" type="curve" smooth="yes"/>
			<point x="113" y="391"/>
			<point x="109" y="406"/>
			<point x="112" y="419" type="curve" smooth="yes"/>
		</contour>
	</outline>
</glyph>
<glyph name="three-ar" format="2">
	<unicode hex="0663"/>
	<advance width="585"/>
	<outline>
		<contour>
			<point x="487" y="531" type="curve" smooth="yes"/>
			<point x="488" y="543"/>
			<point x="493" y="549"/>
			<point x="503" y="549" type="curve" smooth="yes"/>
			<point x="513" y="549"/>
			<point x="519" y="540"/>
			<point x="518" y="520" type="curve" smooth="yes"/>
			<point x="516" y="479"/>
			<point x="509" y="433"/>
			<point x="496" y="384" type="curve" smooth="yes"/>
			<point x="478" y="319"/>
			<point x="438" y="296"/>
			<point x="375" y="316" type="curve" smooth="yes"/>
			<point x="355" y="322"/>
			<point x="338" y="331"/>
			<point x="324" y="342" type="curve"/>
			<point x="292" y="307"/>
			<point x="257" y="291"/>
			<point x="218" y="294" type="curve"/>
			<point x="260" y="125"/>
			<point x="271" y="2"/>
			<point x="251" y="-77" type="curve" smooth="yes"/>
			<point x="249" y="-84"/>
			<point x="246" y="-88"/>
			<point x="240" y="-90" type="curve" smooth="yes"/>
			<point x="234" y="-92"/>
			<point x="230" y="-92"/>
			<point x="226" y="-89" type="curve" smooth="yes"/>
			<point x="222" y="-86"/>
			<point x="220" y="-80"/>
			<point x="219" y="-72" type="curve" smooth="yes"/>
			<point x="208" y="106"/>
			<point x="163" y="254"/>
			<point x="84" y="371" type="curve" smooth="yes"/>
			<point x="70" y="391"/>
			<point x="65" y="407"/>
			<point x="68" y="420" type="curve" smooth="yes"/>
			<point x="93" y="521" type="line" smooth="yes"/>
			<point x="99" y="544"/>
			<point x="111" y="544"/>
			<point x="128" y="518" type="curve" smooth="yes"/>
			<point x="167" y="461"/>
			<point x="191" y="430"/>
			<point x="199" y="425" type="curve" smooth="yes"/>
			<point x="218" y="414"/>
			<point x="241" y="410"/>
			<point x="270" y="413" type="curve" smooth="yes"/>
			<point x="310" y="417"/>
			<point x="336" y="453"/>
			<point x="350" y="522" type="curve" smooth="yes"/>
			<point x="353" y="535"/>
			<point x="357" y="542"/>
			<point x="365" y="541" type="curve" smooth="yes"/>
			<point x="373" y="540"/>
			<point x="378" y="535"/>
			<point x="380" y="527" type="curve" smooth="yes"/>
			<point x="382" y="519"/>
			<point x="381" y="501"/>
			<point x="376" y="476" type="curve" smooth="yes"/>
			<point x="371" y="451"/>
			<point x="387" y="433"/>
			<point x="423" y="423" type="curve"/>
			<point x="461" y="413"/>
			<point x="482" y="449"/>
		</contour>
	</outline>
</glyph>
<glyph name="four-ar" format="2">
	<unicode hex="0664"/>
	<advance width="585"/>
	<outline>
		<contour>
			<point x="292" y="542" type="curve" smooth="yes"/>
			<point x="296" y="546"/>
			<point x="301" y="548"/>
			<point x="308" y="548" type="curve" smooth="yes"/>
			<point x="315" y="548"/>
			<point x="320" y="547"/>
			<point x="324" y="542" type="curve" smooth="yes"/>
			<point x="328" y="537"/>
			<point x="329" y="532"/>
			<point x="328" y="526" type="curve" smooth="yes"/>
			<point x="310" y="450" type="line" smooth="yes"/>
			<point x="309" y="445"/>
			<point x="303" y="440"/>
			<point x="295" y="437" type="curve" smooth="yes"/>
			<point x="257" y="424"/>
			<point x="234" y="409"/>
			<point x="226" y="393" type="curve" smooth="yes"/>
			<point x="220" y="382"/>
			<point x="223" y="372"/>
			<point x="236" y="364" type="curve" smooth="yes"/>
			<point x="282" y="335"/>
			<point x="324" y="316"/>
			<point x="362" y="307" type="curve" smooth="yes"/>
			<point x="378" y="303"/>
			<point x="382" y="291"/>
			<point x="373" y="271" type="curve" smooth="yes"/>
			<point x="355" y="232" type="line" smooth="yes"/>
			<point x="348" y="217"/>
			<point x="339" y="205"/>
			<point x="328" y="198" type="curve" smooth="yes"/>
			<point x="289" y="172"/>
			<point x="259" y="146"/>
			<point x="237" y="120" type="curve" smooth="yes"/>
			<point x="223" y="103"/>
			<point x="224" y="90"/>
			<point x="241" y="79" type="curve" smooth="yes"/>
			<point x="297" y="44"/>
			<point x="355" y="22"/>
			<point x="415" y="15" type="curve" smooth="yes"/>
			<point x="434" y="13"/>
			<point x="439" y="3"/>
			<point x="432" y="-15" type="curve" smooth="yes"/>
			<point x="403" y="-84" type="line" smooth="yes"/>
			<point x="399" y="-94"/>
			<point x="391" y="-98"/>
			<point x="380" y="-97" type="curve" smooth="yes"/>
			<point x="301" y="-89"/>
			<point x="232" y="-64"/>
			<point x="174" y="-23" type="curve" smooth="yes"/>
			<point x="161" y="-14"/>
			<point x="158" y="3"/>
			<point x="165" y="28" type="curve" smooth="yes"/>
			<point x="187" y="111" type="line" smooth="yes"/>
			<point x="194" y="135"/>
			<point x="223" y="170"/>
			<point x="275" y="216" type="curve"/>
			<point x="239" y="229"/>
			<point x="204" y="248"/>
			<point x="167" y="273" type="curve" smooth="yes"/>
			<point x="148" y="286"/>
			<point x="146" y="308"/>
			<point x="161" y="341" type="curve" smooth="yes"/>
			<point x="193" y="409" type="line" smooth="yes"/>
			<point x="213" y="452"/>
			<point x="246" y="496"/>
		</contour>
	</outline>
</glyph>
<glyph name="five-ar" format="2">
	<unicode hex="0665"/>
	<advance width="585"/>
	<outline>
		<contour>
			<point x="236" y="399" type="curve" smooth="yes"/>
			<point x="256" y="422"/>
			<point x="278" y="430"/>
			<point x="302" y="424" type="curve" smooth="yes"/>
			<point x="346" y="413"/>
			<point x="384" y="391"/>
			<point x="416" y="357" type="curve" smooth="yes"/>
			<point x="460" y="310"/>
			<point x="473" y="240"/>
			<point x="454" y="146" type="curve" smooth="yes"/>
			<point x="445" y="99"/>
			<point x="424" y="64"/>
			<point x="391" y="39" type="curve" smooth="yes"/>
			<point x="358" y="14"/>
			<point x="316" y="1"/>
			<point x="266" y="1" type="curve" smooth="yes"/>
			<point x="216" y="1"/>
			<point x="179" y="11"/>
			<point x="157" y="32" type="curve" smooth="yes"/>
			<point x="135" y="53"/>
			<point x="124" y="86"/>
			<point x="124" y="133" type="curve" smooth="yes"/>
			<point x="123" y="225"/>
			<point x="160" y="314"/>
		</contour>
		<contour>
			<point x="391" y="219" type="curve" smooth="yes"/>
			<point x="342" y="274"/>
			<point x="293" y="299"/>
			<point x="242" y="295" type="curve" smooth="yes"/>
			<point x="211" y="293"/>
			<point x="193" y="270"/>
			<point x="188" y="223" type="curve" smooth="yes"/>
			<point x="184" y="193"/>
			<point x="189" y="170"/>
			<point x="203" y="154" type="curve" smooth="yes"/>
			<point x="224" y="129"/>
			<point x="261" y="121"/>
			<point x="311" y="133" type="curve" smooth="yes"/>
			<point x="347" y="141"/>
			<point x="375" y="155"/>
			<point x="396" y="175" type="curve" smooth="yes"/>
			<point x="409" y="186"/>
			<point x="407" y="200"/>
		</contour>
	</outline>
</glyph>
<glyph name="six-ar" format="2">
	<unicode hex="0666"/>
	<advance width="585"/>
	<outline>
		<contour>
			<point x="111" y="522" type="line" smooth="yes"/>
			<point x="116" y="549"/>
			<point x="128" y="549"/>
			<point x="147" y="521" type="curve" smooth="yes"/>
			<point x="185" y="464"/>
			<point x="260" y="452"/>
			<point x="369" y="485" type="curve" smooth="yes"/>
			<point x="387" y="490"/>
			<point x="395" y="484"/>
			<point x="393" y="468" type="curve" smooth="yes"/>
			<point x="380" y="338"/>
			<point x="409" y="210"/>
			<point x="480" y="82" type="curve" smooth="yes"/>
			<point x="489" y="65"/>
			<point x="493" y="47"/>
			<point x="490" y="30" type="curve" smooth="yes"/>
			<point x="473" y="-65" type="line" smooth="yes"/>
			<point x="467" y="-97"/>
			<point x="456" y="-100"/>
			<point x="441" y="-71" type="curve" smooth="yes"/>
			<point x="371" y="61"/>
			<point x="340" y="203"/>
			<point x="345" y="353" type="curve" smooth="yes"/>
			<point x="345" y="362"/>
			<point x="343" y="366"/>
			<point x="339" y="365" type="curve" smooth="yes"/>
			<point x="234" y="338"/>
			<point x="156" y="352"/>
			<point x="106" y="408" type="curve" smooth="yes"/>
			<point x="97" y="418"/>
			<point x="93" y="430"/>
			<point x="96" y="443" type="curve" smooth="yes"/>
		</contour>
	</outline>
</glyph>
<glyph name="seven-ar" format="2">
	<unicode hex="0667"/>
	<advance width="585"/>
	<outline>
		<contour>
			<point x="311" y="-77" type="curve" smooth="yes"/>
			<point x="309" y="-84"/>
			<point x="307" y="-89"/>
			<point x="302" y="-91" type="curve" smooth="yes"/>
			<point x="297" y="-93"/>
			<point x="293" y="-93"/>
			<point x="289" y="-90" type="curve" smooth="yes"/>
			<point x="285" y="-87"/>
			<point x="282" y="-83"/>
			<point x="282" y="-76" type="curve" smooth="yes"/>
			<point x="280" y="-31"/>
			<point x="260" y="37"/>
			<point x="222" y="127" type="curve" smooth="yes"/>
			<point x="184" y="217"/>
			<point x="138" y="310"/>
			<point x="81" y="405" type="curve" smooth="yes"/>
			<point x="78" y="411"/>
			<point x="77" y="419"/>
			<point x="79" y="429" type="curve" smooth="yes"/>
			<point x="92" y="510" type="line" smooth="yes"/>
			<point x="97" y="545"/>
			<point x="105" y="553"/>
			<point x="116" y="533" type="curve" smooth="yes"/>
			<point x="186" y="409"/>
			<point x="247" y="269"/>
			<point x="302" y="110" type="curve" smooth="yes"/>
			<point x="309" y="89"/>
			<point x="316" y="87"/>
			<point x="320" y="106" type="curve" smooth="yes"/>
			<point x="347" y="227"/>
			<point x="400" y="362"/>
			<point x="479" y="511" type="curve" smooth="yes"/>
			<point x="484" y="521"/>
			<point x="489" y="527"/>
			<point x="494" y="527" type="curve" smooth="yes"/>
			<point x="499" y="527"/>
			<point x="501" y="523"/>
			<point x="502" y="514" type="curve" smooth="yes"/>
			<point x="508" y="417" type="line" smooth="yes"/>
			<point x="508" y="409"/>
			<point x="506" y="400"/>
			<point x="500" y="389" type="curve" smooth="yes"/>
			<point x="455" y="313"/>
			<point x="416" y="239"/>
			<point x="387" y="166" type="curve" smooth="yes"/>
			<point x="358" y="93"/>
			<point x="332" y="12"/>
		</contour>
	</outline>
</glyph>
<glyph name="eight-ar" format="2">
	<unicode hex="0668"/>
	<advance width="585"/>
	<outline>
		<contour>
			<point x="275" y="527" type="curve" smooth="yes"/>
			<point x="277" y="534"/>
			<point x="279" y="540"/>
			<point x="284" y="542" type="curve" smooth="yes"/>
			<point x="289" y="544"/>
			<point x="293" y="544"/>
			<point x="297" y="541" type="curve" smooth="yes"/>
			<point x="301" y="538"/>
			<point x="304" y="533"/>
			<point x="304" y="526" type="curve" smooth="yes"/>
			<point x="306" y="481"/>
			<point x="326" y="413"/>
			<point x="364" y="323" type="curve" smooth="yes"/>
			<point x="402" y="233"/>
			<point x="448" y="140"/>
			<point x="505" y="45" type="curve" smooth="yes"/>
			<point x="508" y="39"/>
			<point x="509" y="31"/>
			<point x="507" y="21" type="curve" smooth="yes"/>
			<point x="494" y="-60" type="line" smooth="yes"/>
			<point x="489" y="-95"/>
			<point x="481" y="-103"/>
			<point x="470" y="-83" type="curve" smooth="yes"/>
			<point x="400" y="41"/>
			<point x="339" y="181"/>
			<point x="284" y="340" type="curve" smooth="yes"/>
			<point x="277" y="361"/>
			<point x="270" y="363"/>
			<point x="266" y="344" type="curve" smooth="yes"/>
			<point x="239" y="223"/>
			<point x="186" y="88"/>
			<point x="107" y="-61" type="curve" smooth="yes"/>
			<point x="102" y="-71"/>
			<point x="97" y="-76"/>
			<point x="92" y="-76" type="curve" smooth="yes"/>
			<point x="87" y="-76"/>
			<point x="84" y="-73"/>
			<point x="83" y="-64" type="curve" smooth="yes"/>
			<point x="78" y="33" type="line" smooth="yes"/>
			<point x="78" y="41"/>
			<point x="80" y="51"/>
			<point x="86" y="62" type="curve" smooth="yes"/>
			<point x="131" y="138"/>
			<point x="169" y="211"/>
			<point x="198" y="284" type="curve" smooth="yes"/>
			<point x="227" y="357"/>
			<point x="254" y="438"/>
		</contour>
	</outline>
</glyph>
<glyph name="nine-ar" format="2">
	<unicode hex="0669"/>
	<advance width="585"/>
	<outline>
		<contour>
			<point x="220" y="500" type="curve" smooth="yes"/>
			<point x="266" y="556"/>
			<point x="309" y="556"/>
			<point x="348" y="500" type="curve" smooth="yes"/>
			<point x="380" y="455"/>
			<point x="396" y="389"/>
			<point x="399" y="302" type="curve" smooth="yes"/>
			<point x="402" y="216"/>
			<point x="420" y="143"/>
			<point x="452" y="84" type="curve" smooth="yes"/>
			<point x="462" y="66"/>
			<point x="465" y="50"/>
			<point x="462" y="35" type="curve" smooth="yes"/>
			<point x="444" y="-70" type="line" smooth="yes"/>
			<point x="438" y="-103"/>
			<point x="429" y="-101"/>
			<point x="414" y="-66" type="curve" smooth="yes"/>
			<point x="375" y="25"/>
			<point x="353" y="112"/>
			<point x="348" y="194" type="curve"/>
			<point x="202" y="180"/>
			<point x="127" y="215"/>
			<point x="123" y="301" type="curve" smooth="yes"/>
			<point x="121" y="348"/>
			<point x="153" y="414"/>
		</contour>
		<contour>
			<point x="322" y="348" type="curve" smooth="yes"/>
			<point x="311" y="383"/>
			<point x="290" y="405"/>
			<point x="260" y="414" type="curve" smooth="yes"/>
			<point x="224" y="424"/>
			<point x="200" y="409"/>
			<point x="188" y="370" type="curve" smooth="yes"/>
			<point x="181" y="349"/>
			<point x="186" y="333"/>
			<point x="202" y="323" type="curve" smooth="yes"/>
			<point x="224" y="309"/>
			<point x="260" y="303"/>
			<point x="310" y="306" type="curve" smooth="yes"/>
			<point x="326" y="307"/>
			<point x="330" y="321"/>
		</contour>
	</outline>
</glyph>
<glyph name="decimalseparator-ar" format="2">
	<unicode hex="066B"/>
	<advance width="299"/>
	<outline>
		<contour>
			<point x="145" y="146" type="line" smooth="yes"/>
			<point x="150" y="170"/>
			<point x="168" y="174"/>
			<point x="198" y="157" type="curve" smooth="yes"/>
			<point x="242" y="132"/>
			<point x="259" y="90"/>
			<point x="250" y="29" type="curve" smooth="yes"/>
			<point x="240" y="-41"/>
			<point x="216" y="-99"/>
			<point x="180" y="-145" type="curve" smooth="yes"/>
			<point x="144" y="-191"/>
			<point x="105" y="-215"/>
			<point x="63" y="-217" type="curve" smooth="yes"/>
			<point x="22" y="-219"/>
			<point x="16" y="-210"/>
			<point x="44" y="-189" type="curve" smooth="yes"/>
			<point x="85" y="-159"/>
			<point x="121" y="-125"/>
			<point x="152" y="-86" type="curve" smooth="yes"/>
			<point x="180" y="-51"/>
			<point x="201" y="-11"/>
			<point x="215" y="35" type="curve" smooth="yes"/>
			<point x="218" y="44"/>
			<point x="212" y="50"/>
			<point x="198" y="53" type="curve" smooth="yes"/>
			<point x="151" y="63" type="line" smooth="yes"/>
			<point x="136" y="66"/>
			<point x="131" y="75"/>
			<point x="134" y="90" type="curve" smooth="yes"/>
		</contour>
	</outline>
</glyph>
<glyph name="thousandseparator-ar" format="2">
	<unicode hex="066C"/>
	<advance width="299"/>
	<outline>
		<contour>
			<point x="155" y="214" type="line" smooth="yes"/>
			<point x="150" y="190"/>
			<point x="132" y="186"/>
			<point x="102" y="203" type="curve" smooth="yes"/>
			<point x="58" y="228"/>
			<point x="41" y="270"/>
			<point x="50" y="331" type="curve" smooth="yes"/>
			<point x="60" y="401"/>
			<point x="84" y="459"/>
			<point x="120" y="505" type="curve" smooth="yes"/>
			<point x="156" y="551"/>
			<point x="195" y="575"/>
			<point x="237" y="577" type="curve" smooth="yes"/>
			<point x="278" y="579"/>
			<point x="284" y="570"/>
			<point x="256" y="549" type="curve" smooth="yes"/>
			<point x="217" y="521"/>
			<point x="180" y="486"/>
			<point x="147" y="446" type="curve" smooth="yes"/>
			<point x="118" y="411"/>
			<point x="97" y="370"/>
			<point x="84" y="325" type="curve" smooth="yes"/>
			<point x="81" y="316"/>
			<point x="88" y="310"/>
			<point x="102" y="307" type="curve" smooth="yes"/>
			<point x="148" y="297" type="line" smooth="yes"/>
			<point x="163" y="294"/>
			<point x="169" y="285"/>
			<point x="166" y="270" type="curve" smooth="yes"/>
		</contour>
	</outline>
</glyph>
<glyph name="asterisk-ar" format="2">
	<unicode hex="066D"/>
	<advance width="544"/>
	<outline>
		<contour>
			<point x="42" y="371" type="line"/>
			<point x="218" y="371" type="line"/>
			<point x="272" y="537" type="line"/>
			<point x="327" y="371" type="line"/>
			<point x="502" y="371" type="line"/>
			<point x="361" y="267" type="line"/>
			<point x="415" y="101" type="line"/>
			<point x="272" y="204" type="line"/>
			<point x="130" y="101" type="line"/>
			<point x="184" y="267" type="line"/>
		</contour>
	</outline>
</glyph>
<glyph name="alefabove-ar" format="2">
	<unicode hex="0670"/>
	<outline>
		<contour>
			<point x="118" y="1162" type="line" smooth="yes"/>
			<point x="121" y="1172"/>
			<point x="127" y="1172"/>
			<point x="136" y="1161" type="curve" smooth="yes"/>
			<point x="199" y="1091"/>
			<point x="221" y="1001"/>
			<point x="201" y="893" type="curve" smooth="yes"/>
			<point x="200" y="886"/>
			<point x="196" y="883"/>
			<point x="191" y="882" type="curve" smooth="yes"/>
			<point x="185" y="881"/>
			<point x="182" y="885"/>
			<point x="181" y="893" type="curve" smooth="yes"/>
			<point x="172" y="962"/>
			<point x="147" y="1023"/>
			<point x="104" y="1076" type="curve" smooth="yes"/>
			<point x="98" y="1083"/>
			<point x="97" y="1090"/>
			<point x="99" y="1098" type="curve" smooth="yes"/>
		</contour>
	</outline>
	<anchor name="_TashkilAbove" x="193" y="801"/>
	<anchor name="_MarkAbove" x="190" y="801"/>
	<anchor name="TashkilTashkilAbove2" x="120" y="1230"/>
	<anchor name="_HamzaAbove" x="153" y="969"/>
	<anchor name="_TashkilTashkilAbove" x="195" y="867"/>
	<anchor name="_AlefAbove" x="193" y="801"/>
</glyph>
<glyph name="fullstop-ar" format="2">
	<unicode hex="06D4"/>
	<advance width="491"/>
	<outline>
		<contour>
			<point x="408" y="90" type="line" smooth="yes"/>
			<point x="420" y="90"/>
			<point x="422" y="85"/>
			<point x="414" y="77" type="curve" smooth="yes"/>
			<point x="356" y="14" type="line" smooth="yes"/>
			<point x="347" y="5"/>
			<point x="334" y="0"/>
			<point x="316" y="0" type="curve" smooth="yes"/>
			<point x="84" y="0" type="line" smooth="yes"/>
			<point x="72" y="0"/>
			<point x="70" y="5"/>
			<point x="78" y="13" type="curve" smooth="yes"/>
			<point x="136" y="76" type="line" smooth="yes"/>
			<point x="145" y="85"/>
			<point x="158" y="90"/>
			<point x="176" y="90" type="curve" smooth="yes"/>
		</contour>
	</outline>
</glyph>
<glyph name="sadLamAlefMaksuraabove-ar" format="2">
	<unicode hex="06D6"/>
	<outline>
		<contour>
			<point x="104" y="1527" type="curve" smooth="yes"/>
			<point x="103" y="1546"/>
			<point x="101" y="1573"/>
			<point x="99" y="1608" type="curve" smooth="yes"/>
			<point x="98" y="1617"/>
			<point x="97" y="1642"/>
			<point x="95" y="1681" type="curve" smooth="yes"/>
			<point x="94" y="1694"/>
			<point x="95" y="1702"/>
			<point x="98" y="1706" type="curve" smooth="yes"/>
			<point x="110" y="1724" type="line" smooth="yes"/>
			<point x="122" y="1743"/>
			<point x="129" y="1740"/>
			<point x="130" y="1719" type="curve" smooth="yes"/>
			<point x="135" y="1603"/>
			<point x="141" y="1537"/>
			<point x="147" y="1523" type="curve" smooth="yes"/>
			<point x="156" y="1502"/>
			<point x="169" y="1493"/>
			<point x="185" y="1495" type="curve" smooth="yes"/>
			<point x="200" y="1497"/>
			<point x="217" y="1509"/>
			<point x="237" y="1531" type="curve" smooth="yes"/>
			<point x="244" y="1538"/>
			<point x="249" y="1541"/>
			<point x="254" y="1538" type="curve" smooth="yes"/>
			<point x="276" y="1524"/>
			<point x="291" y="1516"/>
			<point x="298" y="1514" type="curve"/>
			<point x="300" y="1515"/>
			<point x="313" y="1526"/>
			<point x="336" y="1548" type="curve" smooth="yes"/>
			<point x="376" y="1584"/>
			<point x="412" y="1603"/>
			<point x="442" y="1606" type="curve" smooth="yes"/>
			<point x="460" y="1608"/>
			<point x="473" y="1601"/>
			<point x="482" y="1587" type="curve" smooth="yes"/>
			<point x="491" y="1572"/>
			<point x="490" y="1551"/>
			<point x="478" y="1523" type="curve" smooth="yes"/>
			<point x="459" y="1482"/>
			<point x="430" y="1459"/>
			<point x="391" y="1453" type="curve" smooth="yes"/>
			<point x="341" y="1446"/>
			<point x="290" y="1456"/>
			<point x="239" y="1483" type="curve"/>
			<point x="225" y="1467"/>
			<point x="216" y="1457"/>
			<point x="212" y="1454" type="curve" smooth="yes"/>
			<point x="190" y="1434"/>
			<point x="168" y="1434"/>
			<point x="147" y="1452" type="curve"/>
			<point x="133" y="1465"/>
			<point x="123" y="1484"/>
			<point x="118" y="1510" type="curve"/>
			<point x="113" y="1481"/>
			<point x="104" y="1456"/>
			<point x="91" y="1435" type="curve" smooth="yes"/>
			<point x="78" y="1415"/>
			<point x="58" y="1396"/>
			<point x="29" y="1378" type="curve"/>
			<point x="60" y="1373"/>
			<point x="99" y="1370"/>
			<point x="148" y="1369" type="curve" smooth="yes"/>
			<point x="214" y="1367"/>
			<point x="280" y="1369"/>
			<point x="343" y="1374" type="curve" smooth="yes"/>
			<point x="359" y="1376"/>
			<point x="404" y="1380"/>
			<point x="479" y="1387" type="curve" smooth="yes"/>
			<point x="490" y="1388"/>
			<point x="493" y="1384"/>
			<point x="487" y="1375" type="curve" smooth="yes"/>
			<point x="464" y="1341" type="line" smooth="yes"/>
			<point x="460" y="1335"/>
			<point x="457" y="1332"/>
			<point x="452" y="1331" type="curve" smooth="yes"/>
			<point x="413" y="1325"/>
			<point x="343" y="1321"/>
			<point x="240" y="1317" type="curve" smooth="yes"/>
			<point x="146" y="1314"/>
			<point x="75" y="1316"/>
			<point x="27" y="1323" type="curve" smooth="yes"/>
			<point x="12" y="1325"/>
			<point x="4" y="1332"/>
			<point x="1" y="1344" type="curve"/>
			<point x="-2" y="1362"/>
			<point x="2" y="1380"/>
			<point x="12" y="1397" type="curve" smooth="yes"/>
			<point x="23" y="1416"/>
			<point x="35" y="1430"/>
			<point x="48" y="1439" type="curve" smooth="yes"/>
			<point x="86" y="1466"/>
			<point x="105" y="1495"/>
		</contour>
		<contour>
			<point x="441" y="1544" type="curve" smooth="yes"/>
			<point x="417" y="1570"/>
			<point x="375" y="1559"/>
			<point x="316" y="1510" type="curve"/>
			<point x="354" y="1502"/>
			<point x="398" y="1501"/>
			<point x="446" y="1509" type="curve"/>
			<point x="450" y="1525"/>
			<point x="448" y="1537"/>
		</contour>
	</outline>
	<anchor name="_MarkAbove" x="244" y="1270"/>
</glyph>
<glyph name="qafLamAlefMaksuraabove-ar" format="2">
	<unicode hex="06D7"/>
	<outline>
		<contour>
			<point x="205" y="1493" type="curve" smooth="yes"/>
			<point x="241" y="1493"/>
			<point x="272" y="1507"/>
			<point x="299" y="1534" type="curve"/>
			<point x="298" y="1545"/>
			<point x="296" y="1552"/>
			<point x="293" y="1557" type="curve" smooth="yes"/>
			<point x="288" y="1564"/>
			<point x="285" y="1565"/>
			<point x="283" y="1560" type="curve" smooth="yes"/>
			<point x="274" y="1538"/>
			<point x="261" y="1527"/>
			<point x="242" y="1526" type="curve" smooth="yes"/>
			<point x="212" y="1525"/>
			<point x="196" y="1543"/>
			<point x="195" y="1579" type="curve" smooth="yes"/>
			<point x="194" y="1598"/>
			<point x="201" y="1620"/>
			<point x="216" y="1644" type="curve" smooth="yes"/>
			<point x="239" y="1682"/>
			<point x="265" y="1683"/>
			<point x="294" y="1647" type="curve" smooth="yes"/>
			<point x="315" y="1621"/>
			<point x="325" y="1590"/>
			<point x="324" y="1554" type="curve" smooth="yes"/>
			<point x="323" y="1533"/>
			<point x="317" y="1514"/>
			<point x="306" y="1496" type="curve" smooth="yes"/>
			<point x="282" y="1458"/>
			<point x="249" y="1438"/>
			<point x="205" y="1438" type="curve" smooth="yes"/>
			<point x="157" y="1438"/>
			<point x="128" y="1462"/>
			<point x="118" y="1510" type="curve"/>
			<point x="113" y="1481"/>
			<point x="104" y="1456"/>
			<point x="91" y="1435" type="curve" smooth="yes"/>
			<point x="78" y="1415"/>
			<point x="58" y="1396"/>
			<point x="29" y="1378" type="curve"/>
			<point x="60" y="1373"/>
			<point x="99" y="1370"/>
			<point x="148" y="1369" type="curve" smooth="yes"/>
			<point x="225" y="1367"/>
			<point x="291" y="1369"/>
			<point x="343" y="1374" type="curve" smooth="yes"/>
			<point x="397" y="1380"/>
			<point x="442" y="1384"/>
			<point x="479" y="1387" type="curve" smooth="yes"/>
			<point x="490" y="1388"/>
			<point x="493" y="1384"/>
			<point x="487" y="1375" type="curve" smooth="yes"/>
			<point x="464" y="1341" type="line" smooth="yes"/>
			<point x="460" y="1335"/>
			<point x="457" y="1332"/>
			<point x="452" y="1331" type="curve" smooth="yes"/>
			<point x="413" y="1325"/>
			<point x="343" y="1321"/>
			<point x="240" y="1317" type="curve" smooth="yes"/>
			<point x="146" y="1314"/>
			<point x="75" y="1316"/>
			<point x="27" y="1323" type="curve" smooth="yes"/>
			<point x="12" y="1325"/>
			<point x="4" y="1332"/>
			<point x="1" y="1344" type="curve"/>
			<point x="-2" y="1362"/>
			<point x="2" y="1380"/>
			<point x="12" y="1397" type="curve" smooth="yes"/>
			<point x="23" y="1416"/>
			<point x="35" y="1430"/>
			<point x="48" y="1439" type="curve" smooth="yes"/>
			<point x="86" y="1466"/>
			<point x="105" y="1495"/>
			<point x="104" y="1527" type="curve" smooth="yes"/>
			<point x="103" y="1546"/>
			<point x="101" y="1573"/>
			<point x="99" y="1608" type="curve" smooth="yes"/>
			<point x="98" y="1617"/>
			<point x="97" y="1642"/>
			<point x="95" y="1681" type="curve" smooth="yes"/>
			<point x="94" y="1694"/>
			<point x="95" y="1702"/>
			<point x="98" y="1706" type="curve" smooth="yes"/>
			<point x="110" y="1724" type="line" smooth="yes"/>
			<point x="122" y="1743"/>
			<point x="129" y="1740"/>
			<point x="130" y="1719" type="curve" smooth="yes"/>
			<point x="135" y="1603"/>
			<point x="141" y="1537"/>
			<point x="147" y="1523" type="curve" smooth="yes"/>
			<point x="156" y="1503"/>
			<point x="176" y="1493"/>
		</contour>
		<contour>
			<point x="214" y="1799" type="line" smooth="yes"/>
			<point x="215" y="1801"/>
			<point x="217" y="1801"/>
			<point x="219" y="1800" type="curve" smooth="yes"/>
			<point x="232" y="1796"/>
			<point x="244" y="1790"/>
			<point x="254" y="1782" type="curve"/>
			<point x="274" y="1812" type="line" smooth="yes"/>
			<point x="275" y="1814"/>
			<point x="277" y="1814"/>
			<point x="279" y="1813" type="curve" smooth="yes"/>
			<point x="285" y="1811"/>
			<point x="299" y="1804"/>
			<point x="320" y="1790" type="curve" smooth="yes"/>
			<point x="322" y="1789"/>
			<point x="322" y="1786"/>
			<point x="321" y="1784" type="curve" smooth="yes"/>
			<point x="293" y="1741" type="line" smooth="yes"/>
			<point x="292" y="1739"/>
			<point x="291" y="1739"/>
			<point x="288" y="1742" type="curve" smooth="yes"/>
			<point x="286" y="1744"/>
			<point x="275" y="1750"/>
			<point x="255" y="1762" type="curve"/>
			<point x="233" y="1728" type="line" smooth="yes"/>
			<point x="232" y="1727"/>
			<point x="231" y="1727"/>
			<point x="228" y="1729" type="curve" smooth="yes"/>
			<point x="220" y="1733"/>
			<point x="206" y="1741"/>
			<point x="187" y="1754" type="curve" smooth="yes"/>
			<point x="186" y="1755"/>
			<point x="185" y="1756"/>
			<point x="186" y="1757" type="curve" smooth="yes"/>
		</contour>
	</outline>
	<anchor name="_MarkAbove" x="244" y="1270"/>
</glyph>
<glyph name="meemabove-ar" format="2">
	<unicode hex="06D8"/>
	<outline>
		<contour>
			<point x="201" y="1426" type="curve"/>
			<point x="164" y="1360"/>
			<point x="112" y="1319"/>
			<point x="46" y="1304" type="curve" smooth="yes"/>
			<point x="32" y="1301"/>
			<point x="23" y="1301"/>
			<point x="21" y="1306" type="curve" smooth="yes"/>
			<point x="17" y="1315"/>
			<point x="22" y="1323"/>
			<point x="36" y="1330" type="curve" smooth="yes"/>
			<point x="99" y="1361"/>
			<point x="146" y="1399"/>
			<point x="177" y="1445" type="curve"/>
			<point x="191" y="1526"/>
			<point x="216" y="1566"/>
			<point x="251" y="1565" type="curve" smooth="yes"/>
			<point x="290" y="1564"/>
			<point x="310" y="1528"/>
			<point x="310" y="1456" type="curve"/>
			<point x="292" y="1418" type="line" smooth="yes"/>
			<point x="290" y="1414"/>
			<point x="287" y="1413"/>
			<point x="282" y="1413" type="curve" smooth="yes"/>
			<point x="249" y="1414"/>
			<point x="222" y="1418"/>
		</contour>
	</outline>
	<anchor name="_MarkAbove" x="209" y="1270"/>
</glyph>
<glyph name="lamAlefabove-ar" format="2">
	<unicode hex="06D9"/>
	<outline>
		<contour>
			<point x="228" y="1463" type="curve"/>
			<point x="253" y="1519"/>
			<point x="262" y="1600"/>
			<point x="254" y="1705" type="curve" smooth="yes"/>
			<point x="253" y="1720"/>
			<point x="254" y="1729"/>
			<point x="256" y="1733" type="curve" smooth="yes"/>
			<point x="264" y="1748"/>
			<point x="270" y="1757"/>
			<point x="271" y="1759" type="curve" smooth="yes"/>
			<point x="272" y="1761"/>
			<point x="274" y="1762"/>
			<point x="276" y="1762" type="curve" smooth="yes"/>
			<point x="278" y="1762"/>
			<point x="280" y="1760"/>
			<point x="281" y="1758" type="curve" smooth="yes"/>
			<point x="287" y="1736"/>
			<point x="292" y="1721"/>
			<point x="298" y="1715" type="curve" smooth="yes"/>
			<point x="304" y="1709"/>
			<point x="304" y="1702"/>
			<point x="299" y="1697" type="curve" smooth="yes"/>
			<point x="283" y="1681" type="line"/>
			<point x="286" y="1586"/>
			<point x="271" y="1505"/>
			<point x="238" y="1440" type="curve"/>
			<point x="249" y="1412"/>
			<point x="256" y="1387"/>
			<point x="257" y="1365" type="curve"/>
			<point x="258" y="1343"/>
			<point x="253" y="1330"/>
			<point x="240" y="1327" type="curve" smooth="yes"/>
			<point x="204" y="1318"/>
			<point x="165" y="1317"/>
			<point x="122" y="1324" type="curve" smooth="yes"/>
			<point x="117" y="1325"/>
			<point x="115" y="1326"/>
			<point x="114" y="1328" type="curve"/>
			<point x="107" y="1345"/>
			<point x="108" y="1358"/>
			<point x="117" y="1370" type="curve" smooth="yes"/>
			<point x="120" y="1374"/>
			<point x="123" y="1376"/>
			<point x="125" y="1375" type="curve" smooth="yes"/>
			<point x="132" y="1374"/>
			<point x="139" y="1374"/>
			<point x="146" y="1373" type="curve" smooth="yes"/>
			<point x="146" y="1374" type="line" smooth="yes"/>
			<point x="173" y="1389"/>
			<point x="196" y="1410"/>
			<point x="213" y="1436" type="curve"/>
			<point x="174" y="1518"/>
			<point x="126" y="1586"/>
			<point x="69" y="1640" type="curve"/>
			<point x="61" y="1625" type="line"/>
			<point x="56" y="1622"/>
			<point x="51" y="1622"/>
			<point x="47" y="1627" type="curve"/>
			<point x="7" y="1670" type="line"/>
			<point x="1" y="1677"/>
			<point x="-1" y="1684"/>
			<point x="0" y="1692" type="curve" smooth="yes"/>
			<point x="8" y="1743" type="line" smooth="yes"/>
			<point x="9" y="1748"/>
			<point x="10" y="1751"/>
			<point x="13" y="1751" type="curve" smooth="yes"/>
			<point x="21" y="1752"/>
			<point x="43" y="1731"/>
			<point x="78" y="1688" type="curve" smooth="yes"/>
			<point x="147" y="1605"/>
			<point x="197" y="1530"/>
		</contour>
		<contour>
			<point x="223" y="1413" type="curve"/>
			<point x="213" y="1398"/>
			<point x="201" y="1385"/>
			<point x="188" y="1372" type="curve" smooth="yes"/>
			<point x="188" y="1371" type="line"/>
			<point x="209" y="1371"/>
			<point x="223" y="1372"/>
			<point x="232" y="1376" type="curve"/>
			<point x="231" y="1387"/>
			<point x="228" y="1399"/>
		</contour>
	</outline>
	<anchor name="_MarkAbove" x="190" y="1270"/>
</glyph>
<glyph name="jeemabove-ar" format="2">
	<unicode hex="06DA"/>
	<outline>
		<contour>
			<point x="180" y="1557" type="line" smooth="yes"/>
			<point x="181" y="1559"/>
			<point x="183" y="1559"/>
			<point x="185" y="1558" type="curve" smooth="yes"/>
			<point x="200" y="1553"/>
			<point x="214" y="1545"/>
			<point x="226" y="1534" type="curve" smooth="yes"/>
			<point x="228" y="1532"/>
			<point x="228" y="1531"/>
			<point x="227" y="1529" type="curve" smooth="yes"/>
			<point x="199" y="1485" type="line" smooth="yes"/>
			<point x="198" y="1483"/>
			<point x="196" y="1484"/>
			<point x="193" y="1486" type="curve" smooth="yes"/>
			<point x="190" y="1488"/>
			<point x="177" y="1496"/>
			<point x="153" y="1511" type="curve" smooth="yes"/>
			<point x="151" y="1512"/>
			<point x="151" y="1514"/>
			<point x="152" y="1515" type="curve" smooth="yes"/>
		</contour>
		<contour>
			<point x="329" y="1744" type="curve" smooth="yes"/>
			<point x="315" y="1712" type="line" smooth="yes"/>
			<point x="313" y="1709"/>
			<point x="312" y="1708"/>
			<point x="309" y="1708" type="curve" smooth="yes"/>
			<point x="217" y="1696"/>
			<point x="152" y="1677"/>
			<point x="115" y="1653" type="curve" smooth="yes"/>
			<point x="42" y="1605"/>
			<point x="14" y="1548"/>
			<point x="30" y="1481" type="curve" smooth="yes"/>
			<point x="39" y="1444"/>
			<point x="67" y="1416"/>
			<point x="114" y="1395" type="curve" smooth="yes"/>
			<point x="139" y="1384"/>
			<point x="180" y="1376"/>
			<point x="235" y="1373" type="curve" smooth="yes"/>
			<point x="290" y="1370"/>
			<point x="341" y="1370"/>
			<point x="388" y="1374" type="curve" smooth="yes"/>
			<point x="394" y="1375"/>
			<point x="398" y="1374"/>
			<point x="400" y="1372" type="curve" smooth="yes"/>
			<point x="402" y="1370"/>
			<point x="402" y="1368"/>
			<point x="400" y="1365" type="curve" smooth="yes"/>
			<point x="398" y="1362"/>
			<point x="396" y="1360"/>
			<point x="393" y="1359" type="curve" smooth="yes"/>
			<point x="370" y="1352"/>
			<point x="350" y="1345"/>
			<point x="337" y="1337" type="curve" smooth="yes"/>
			<point x="317" y="1325"/>
			<point x="306" y="1319"/>
			<point x="301" y="1319" type="curve" smooth="yes"/>
			<point x="188" y="1309"/>
			<point x="106" y="1322"/>
			<point x="56" y="1359" type="curve" smooth="yes"/>
			<point x="6" y="1396"/>
			<point x="-11" y="1453"/>
			<point x="7" y="1531" type="curve" smooth="yes"/>
			<point x="25" y="1609"/>
			<point x="71" y="1667"/>
			<point x="147" y="1703" type="curve"/>
			<point x="95" y="1716"/>
			<point x="56" y="1714"/>
			<point x="30" y="1699" type="curve" smooth="yes"/>
			<point x="28" y="1698"/>
			<point x="25" y="1698"/>
			<point x="23" y="1698" type="curve" smooth="yes"/>
			<point x="21" y="1698"/>
			<point x="20" y="1699"/>
			<point x="20" y="1701" type="curve" smooth="yes"/>
			<point x="20" y="1710"/>
			<point x="22" y="1720"/>
			<point x="26" y="1730" type="curve" smooth="yes"/>
			<point x="33" y="1750"/>
			<point x="52" y="1761"/>
			<point x="82" y="1763" type="curve" smooth="yes"/>
			<point x="97" y="1764"/>
			<point x="120" y="1760"/>
			<point x="153" y="1754" type="curve" smooth="yes"/>
			<point x="186" y="1748"/>
			<point x="213" y="1745"/>
			<point x="235" y="1745" type="curve" smooth="yes"/>
			<point x="257" y="1745"/>
			<point x="285" y="1748"/>
			<point x="318" y="1754" type="curve" smooth="yes"/>
			<point x="329" y="1756"/>
			<point x="333" y="1753"/>
		</contour>
	</outline>
	<anchor name="_MarkAbove" x="195" y="1270"/>
</glyph>
<glyph name="threedotsabove-ar" format="2">
	<unicode hex="06DB"/>
	<outline>
		<contour>
			<point x="178" y="1519" type="line" smooth="yes"/>
			<point x="180" y="1521"/>
			<point x="182" y="1522"/>
			<point x="185" y="1520" type="curve" smooth="yes"/>
			<point x="205" y="1509"/>
			<point x="220" y="1495"/>
			<point x="234" y="1477" type="curve" smooth="yes"/>
			<point x="236" y="1474"/>
			<point x="236" y="1471"/>
			<point x="234" y="1469" type="curve" smooth="yes"/>
			<point x="186" y="1417" type="line" smooth="yes"/>
			<point x="184" y="1415"/>
			<point x="181" y="1415"/>
			<point x="178" y="1419" type="curve" smooth="yes"/>
			<point x="175" y="1423"/>
			<point x="158" y="1438"/>
			<point x="129" y="1464" type="curve" smooth="yes"/>
			<point x="127" y="1466"/>
			<point x="127" y="1467"/>
			<point x="129" y="1469" type="curve" smooth="yes"/>
		</contour>
		<contour>
			<point x="248" y="1421" type="line" smooth="yes"/>
			<point x="250" y="1423"/>
			<point x="251" y="1423"/>
			<point x="254" y="1422" type="curve" smooth="yes"/>
			<point x="274" y="1411"/>
			<point x="291" y="1397"/>
			<point x="304" y="1379" type="curve" smooth="yes"/>
			<point x="306" y="1376"/>
			<point x="306" y="1374"/>
			<point x="304" y="1372" type="curve" smooth="yes"/>
			<point x="255" y="1319" type="line" smooth="yes"/>
			<point x="253" y="1317"/>
			<point x="251" y="1318"/>
			<point x="248" y="1322" type="curve" smooth="yes"/>
			<point x="248" y="1322"/>
			<point x="231" y="1337"/>
			<point x="199" y="1367" type="curve" smooth="yes"/>
			<point x="197" y="1369"/>
			<point x="197" y="1370"/>
			<point x="198" y="1372" type="curve" smooth="yes"/>
		</contour>
		<contour>
			<point x="107" y="1421" type="line" smooth="yes"/>
			<point x="109" y="1423"/>
			<point x="112" y="1424"/>
			<point x="114" y="1422" type="curve" smooth="yes"/>
			<point x="134" y="1411"/>
			<point x="150" y="1397"/>
			<point x="164" y="1379" type="curve" smooth="yes"/>
			<point x="166" y="1376"/>
			<point x="166" y="1374"/>
			<point x="164" y="1372" type="curve" smooth="yes"/>
			<point x="115" y="1319" type="line" smooth="yes"/>
			<point x="114" y="1317"/>
			<point x="111" y="1319"/>
			<point x="107" y="1322" type="curve" smooth="yes"/>
			<point x="107" y="1322"/>
			<point x="91" y="1337"/>
			<point x="59" y="1367" type="curve" smooth="yes"/>
			<point x="57" y="1369"/>
			<point x="57" y="1370"/>
			<point x="58" y="1372" type="curve" smooth="yes"/>
		</contour>
	</outline>
	<anchor name="_MarkAbove" x="185" y="1270"/>
</glyph>
<glyph name="seenabove-ar" format="2">
	<unicode hex="06DC"/>
	<outline>
		<contour>
			<point x="479" y="1662" type="line" smooth="yes"/>
			<point x="480" y="1666"/>
			<point x="482" y="1667"/>
			<point x="485" y="1667" type="curve" smooth="yes"/>
			<point x="488" y="1667"/>
			<point x="491" y="1666"/>
			<point x="493" y="1663" type="curve" smooth="yes"/>
			<point x="498" y="1655"/>
			<point x="500" y="1642"/>
			<point x="500" y="1624" type="curve" smooth="yes"/>
			<point x="500" y="1596"/>
			<point x="494" y="1570"/>
			<point x="480" y="1548" type="curve" smooth="yes"/>
			<point x="476" y="1542"/>
			<point x="472" y="1539"/>
			<point x="466" y="1538" type="curve" smooth="yes"/>
			<point x="448" y="1534"/>
			<point x="427" y="1540"/>
			<point x="403" y="1554" type="curve"/>
			<point x="386" y="1523"/>
			<point x="362" y="1509"/>
			<point x="329" y="1514" type="curve"/>
			<point x="327" y="1481"/>
			<point x="321" y="1452"/>
			<point x="313" y="1428" type="curve" smooth="yes"/>
			<point x="305" y="1404"/>
			<point x="291" y="1384"/>
			<point x="271" y="1368" type="curve" smooth="yes"/>
			<point x="227" y="1333"/>
			<point x="178" y="1317"/>
			<point x="125" y="1319" type="curve" smooth="yes"/>
			<point x="59" y="1321"/>
			<point x="18" y="1348"/>
			<point x="3" y="1401" type="curve" smooth="yes"/>
			<point x="-1" y="1416"/>
			<point x="-1" y="1438"/>
			<point x="5" y="1466" type="curve" smooth="yes"/>
			<point x="11" y="1494"/>
			<point x="22" y="1524"/>
			<point x="40" y="1557" type="curve" smooth="yes"/>
			<point x="41" y="1560"/>
			<point x="44" y="1561"/>
			<point x="46" y="1561" type="curve" smooth="yes"/>
			<point x="48" y="1561"/>
			<point x="50" y="1561"/>
			<point x="51" y="1559" type="curve" smooth="yes"/>
			<point x="52" y="1557"/>
			<point x="52" y="1554"/>
			<point x="51" y="1552" type="curve" smooth="yes"/>
			<point x="27" y="1505"/>
			<point x="16" y="1474"/>
			<point x="21" y="1458" type="curve" smooth="yes"/>
			<point x="35" y="1408"/>
			<point x="71" y="1382"/>
			<point x="130" y="1380" type="curve" smooth="yes"/>
			<point x="210" y="1378"/>
			<point x="268" y="1405"/>
			<point x="302" y="1458" type="curve"/>
			<point x="304" y="1488"/>
			<point x="296" y="1521"/>
			<point x="279" y="1558" type="curve" smooth="yes"/>
			<point x="277" y="1562"/>
			<point x="276" y="1564"/>
			<point x="277" y="1567" type="curve" smooth="yes"/>
			<point x="285" y="1585"/>
			<point x="292" y="1598"/>
			<point x="298" y="1606" type="curve" smooth="yes"/>
			<point x="300" y="1608"/>
			<point x="301" y="1609"/>
			<point x="303" y="1607" type="curve" smooth="yes"/>
			<point x="305" y="1605"/>
			<point x="310" y="1599"/>
			<point x="316" y="1588" type="curve" smooth="yes"/>
			<point x="322" y="1577"/>
			<point x="327" y="1572"/>
			<point x="330" y="1571" type="curve" smooth="yes"/>
			<point x="350" y="1567"/>
			<point x="370" y="1573"/>
			<point x="390" y="1589" type="curve" smooth="yes"/>
			<point x="398" y="1596"/>
			<point x="405" y="1613"/>
			<point x="412" y="1642" type="curve" smooth="yes"/>
			<point x="413" y="1645"/>
			<point x="414" y="1647"/>
			<point x="416" y="1648" type="curve" smooth="yes"/>
			<point x="418" y="1649"/>
			<point x="420" y="1649"/>
			<point x="422" y="1648" type="curve" smooth="yes"/>
			<point x="426" y="1645"/>
			<point x="427" y="1635"/>
			<point x="423" y="1615" type="curve"/>
			<point x="438" y="1604"/>
			<point x="455" y="1599"/>
			<point x="474" y="1601" type="curve"/>
			<point x="474" y="1607"/>
			<point x="473" y="1611"/>
			<point x="471" y="1613" type="curve" smooth="yes"/>
			<point x="469" y="1615"/>
			<point x="468" y="1618"/>
			<point x="469" y="1620" type="curve" smooth="yes"/>
		</contour>
	</outline>
	<anchor name="_MarkAbove" x="288" y="1270"/>
	<anchor name="_SeenAbove" x="249" y="1318"/>
</glyph>
<glyph name="endofayah-ar" format="2">
	<unicode hex="06DD"/>
	<advance width="1279"/>
	<outline>
		<contour>
			<point x="979" y="482" type="curve"/>
			<point x="982" y="476"/>
			<point x="982" y="468"/>
			<point x="979" y="455" type="curve" smooth="yes"/>
			<point x="976" y="442"/>
			<point x="968" y="432"/>
			<point x="953" y="426" type="curve"/>
			<point x="932" y="419"/>
			<point x="912" y="423"/>
			<point x="893" y="436" type="curve"/>
			<point x="885" y="442"/>
			<point x="884" y="446"/>
			<point x="890" y="448" type="curve" smooth="yes"/>
			<point x="903" y="453"/>
			<point x="910" y="460"/>
			<point x="911" y="468" type="curve"/>
			<point x="910" y="481"/>
			<point x="901" y="492"/>
			<point x="884" y="502" type="curve"/>
			<point x="790" y="510"/>
			<point x="720" y="493"/>
			<point x="674" y="452" type="curve"/>
			<point x="686" y="434"/>
			<point x="685" y="421"/>
			<point x="668" y="413" type="curve"/>
			<point x="659" y="410"/>
			<point x="651" y="410"/>
			<point x="647" y="415" type="curve" smooth="yes"/>
			<point x="643" y="420"/>
			<point x="641" y="424"/>
			<point x="640" y="429" type="curve"/>
			<point x="639" y="424"/>
			<point x="636" y="420"/>
			<point x="632" y="415" type="curve" smooth="yes"/>
			<point x="628" y="410"/>
			<point x="620" y="410"/>
			<point x="611" y="413" type="curve"/>
			<point x="594" y="421"/>
			<point x="593" y="434"/>
			<point x="605" y="452" type="curve"/>
			<point x="559" y="493"/>
			<point x="489" y="510"/>
			<point x="395" y="502" type="curve"/>
			<point x="378" y="492"/>
			<point x="369" y="481"/>
			<point x="368" y="468" type="curve"/>
			<point x="369" y="460"/>
			<point x="376" y="453"/>
			<point x="389" y="448" type="curve" smooth="yes"/>
			<point x="395" y="446"/>
			<point x="394" y="442"/>
			<point x="386" y="436" type="curve"/>
			<point x="367" y="423"/>
			<point x="347" y="419"/>
			<point x="326" y="426" type="curve"/>
			<point x="311" y="432"/>
			<point x="302" y="442"/>
			<point x="299" y="455" type="curve" smooth="yes"/>
			<point x="296" y="468"/>
			<point x="296" y="476"/>
			<point x="299" y="482" type="curve"/>
			<point x="262" y="469"/>
			<point x="227" y="450"/>
			<point x="193" y="425" type="curve"/>
			<point x="112" y="364"/>
			<point x="71" y="278"/>
			<point x="71" y="166" type="curve" smooth="yes"/>
			<point x="71" y="54"/>
			<point x="112" y="-32"/>
			<point x="193" y="-94" type="curve"/>
			<point x="227" y="-119"/>
			<point x="262" y="-137"/>
			<point x="299" y="-150" type="curve"/>
			<point x="296" y="-145"/>
			<point x="296" y="-136"/>
			<point x="299" y="-123" type="curve" smooth="yes"/>
			<point x="302" y="-110"/>
			<point x="311" y="-100"/>
			<point x="326" y="-94" type="curve"/>
			<point x="347" y="-88"/>
			<point x="367" y="-91"/>
			<point x="386" y="-104" type="curve"/>
			<point x="393" y="-110"/>
			<point x="393" y="-114"/>
			<point x="384" y="-117" type="curve"/>
			<point x="374" y="-119"/>
			<point x="369" y="-126"/>
			<point x="368" y="-136" type="curve"/>
			<point x="369" y="-149"/>
			<point x="378" y="-160"/>
			<point x="395" y="-170" type="curve"/>
			<point x="490" y="-177"/>
			<point x="559" y="-161"/>
			<point x="605" y="-120" type="curve"/>
			<point x="593" y="-102"/>
			<point x="594" y="-89"/>
			<point x="611" y="-81" type="curve"/>
			<point x="620" y="-78"/>
			<point x="628" y="-78"/>
			<point x="632" y="-83" type="curve" smooth="yes"/>
			<point x="636" y="-88"/>
			<point x="639" y="-92"/>
			<point x="640" y="-97" type="curve"/>
			<point x="641" y="-92"/>
			<point x="643" y="-88"/>
			<point x="647" y="-83" type="curve" smooth="yes"/>
			<point x="651" y="-78"/>
			<point x="659" y="-78"/>
			<point x="668" y="-81" type="curve"/>
			<point x="685" y="-89"/>
			<point x="686" y="-102"/>
			<point x="674" y="-120" type="curve"/>
			<point x="720" y="-161"/>
			<point x="790" y="-177"/>
			<point x="885" y="-170" type="curve"/>
			<point x="902" y="-160"/>
			<point x="910" y="-149"/>
			<point x="911" y="-136" type="curve"/>
			<point x="910" y="-126"/>
			<point x="906" y="-119"/>
			<point x="896" y="-117" type="curve"/>
			<point x="887" y="-114"/>
			<point x="887" y="-110"/>
			<point x="894" y="-104" type="curve"/>
			<point x="913" y="-91"/>
			<point x="932" y="-88"/>
			<point x="953" y="-94" type="curve"/>
			<point x="968" y="-100"/>
			<point x="977" y="-110"/>
			<point x="980" y="-123" type="curve" smooth="yes"/>
			<point x="983" y="-136"/>
			<point x="983" y="-145"/>
			<point x="980" y="-150" type="curve"/>
			<point x="1017" y="-137"/>
			<point x="1052" y="-119"/>
			<point x="1086" y="-94" type="curve"/>
			<point x="1167" y="-32"/>
			<point x="1208" y="54"/>
			<point x="1208" y="166" type="curve" smooth="yes"/>
			<point x="1208" y="278"/>
			<point x="1167" y="364"/>
			<point x="1086" y="425" type="curve"/>
			<point x="1052" y="450"/>
			<point x="1016" y="469"/>
		</contour>
		<contour>
			<point x="625" y="-123" type="curve" smooth="yes"/>
			<point x="577" y="-158"/>
			<point x="553" y="-194"/>
			<point x="554" y="-231" type="curve"/>
			<point x="555" y="-264"/>
			<point x="584" y="-301"/>
			<point x="640" y="-343" type="curve"/>
			<point x="696" y="-301"/>
			<point x="725" y="-264"/>
			<point x="726" y="-231" type="curve"/>
			<point x="727" y="-194"/>
			<point x="702" y="-158"/>
			<point x="654" y="-123" type="curve" smooth="yes"/>
			<point x="646" y="-117"/>
			<point x="641" y="-111"/>
			<point x="640" y="-104" type="curve"/>
			<point x="639" y="-111"/>
			<point x="633" y="-117"/>
		</contour>
		<contour>
			<point x="834" y="-263" type="curve" smooth="yes"/>
			<point x="833" y="-254"/>
			<point x="837" y="-246"/>
			<point x="844" y="-239" type="curve" smooth="yes"/>
			<point x="851" y="-233"/>
			<point x="859" y="-229"/>
			<point x="868" y="-229" type="curve" smooth="yes"/>
			<point x="875" y="-229"/>
			<point x="884" y="-232"/>
			<point x="892" y="-239" type="curve" smooth="yes"/>
			<point x="898" y="-244"/>
			<point x="902" y="-252"/>
			<point x="902" y="-263" type="curve" smooth="yes"/>
			<point x="902" y="-272"/>
			<point x="899" y="-280"/>
			<point x="892" y="-287" type="curve" smooth="yes"/>
			<point x="886" y="-293"/>
			<point x="878" y="-297"/>
			<point x="868" y="-297" type="curve" smooth="yes"/>
			<point x="859" y="-297"/>
			<point x="851" y="-294"/>
			<point x="844" y="-287" type="curve" smooth="yes"/>
			<point x="838" y="-281"/>
			<point x="835" y="-273"/>
		</contour>
		<contour>
			<point x="377" y="-263" type="curve" smooth="yes"/>
			<point x="376" y="-254"/>
			<point x="380" y="-246"/>
			<point x="387" y="-239" type="curve" smooth="yes"/>
			<point x="394" y="-233"/>
			<point x="402" y="-229"/>
			<point x="411" y="-229" type="curve" smooth="yes"/>
			<point x="418" y="-229"/>
			<point x="427" y="-232"/>
			<point x="435" y="-239" type="curve" smooth="yes"/>
			<point x="441" y="-244"/>
			<point x="444" y="-252"/>
			<point x="444" y="-263" type="curve" smooth="yes"/>
			<point x="444" y="-272"/>
			<point x="442" y="-280"/>
			<point x="435" y="-287" type="curve" smooth="yes"/>
			<point x="429" y="-293"/>
			<point x="421" y="-297"/>
			<point x="411" y="-297" type="curve" smooth="yes"/>
			<point x="402" y="-297"/>
			<point x="394" y="-294"/>
			<point x="387" y="-287" type="curve" smooth="yes"/>
			<point x="381" y="-281"/>
			<point x="378" y="-273"/>
		</contour>
		<contour>
			<point x="834" y="594" type="curve" smooth="yes"/>
			<point x="833" y="603"/>
			<point x="837" y="611"/>
			<point x="844" y="618" type="curve" smooth="yes"/>
			<point x="851" y="624"/>
			<point x="859" y="628"/>
			<point x="868" y="628" type="curve" smooth="yes"/>
			<point x="875" y="628"/>
			<point x="884" y="625"/>
			<point x="892" y="618" type="curve" smooth="yes"/>
			<point x="898" y="613"/>
			<point x="902" y="605"/>
			<point x="902" y="594" type="curve" smooth="yes"/>
			<point x="902" y="585"/>
			<point x="899" y="577"/>
			<point x="892" y="570" type="curve" smooth="yes"/>
			<point x="886" y="564"/>
			<point x="878" y="561"/>
			<point x="868" y="561" type="curve" smooth="yes"/>
			<point x="859" y="561"/>
			<point x="851" y="563"/>
			<point x="844" y="570" type="curve" smooth="yes"/>
			<point x="838" y="576"/>
			<point x="835" y="584"/>
		</contour>
		<contour>
			<point x="377" y="594" type="curve" smooth="yes"/>
			<point x="376" y="603"/>
			<point x="380" y="611"/>
			<point x="387" y="618" type="curve" smooth="yes"/>
			<point x="394" y="624"/>
			<point x="402" y="628"/>
			<point x="411" y="628" type="curve" smooth="yes"/>
			<point x="418" y="628"/>
			<point x="427" y="625"/>
			<point x="435" y="618" type="curve" smooth="yes"/>
			<point x="441" y="613"/>
			<point x="444" y="605"/>
			<point x="444" y="594" type="curve" smooth="yes"/>
			<point x="444" y="585"/>
			<point x="442" y="577"/>
			<point x="435" y="570" type="curve" smooth="yes"/>
			<point x="429" y="564"/>
			<point x="421" y="561"/>
			<point x="411" y="561" type="curve" smooth="yes"/>
			<point x="402" y="561"/>
			<point x="394" y="563"/>
			<point x="387" y="570" type="curve" smooth="yes"/>
			<point x="381" y="576"/>
			<point x="378" y="584"/>
		</contour>
		<contour>
			<point x="640" y="-373" type="curve"/>
			<point x="635" y="-369"/>
			<point x="613" y="-353"/>
			<point x="574" y="-325" type="curve" smooth="yes"/>
			<point x="535" y="-297"/>
			<point x="511" y="-273"/>
			<point x="503" y="-252" type="curve" smooth="yes"/>
			<point x="495" y="-231"/>
			<point x="495" y="-211"/>
			<point x="504" y="-193" type="curve"/>
			<point x="479" y="-196"/>
			<point x="456" y="-197"/>
			<point x="433" y="-197" type="curve" smooth="yes"/>
			<point x="336" y="-196"/>
			<point x="251" y="-169"/>
			<point x="178" y="-114" type="curve" smooth="yes"/>
			<point x="89" y="-47"/>
			<point x="44" y="46"/>
			<point x="44" y="166" type="curve" smooth="yes"/>
			<point x="44" y="286"/>
			<point x="89" y="379"/>
			<point x="178" y="446" type="curve"/>
			<point x="252" y="500"/>
			<point x="337" y="528"/>
			<point x="433" y="529" type="curve" smooth="yes"/>
			<point x="456" y="529"/>
			<point x="479" y="527"/>
			<point x="504" y="524" type="curve"/>
			<point x="495" y="543"/>
			<point x="495" y="563"/>
			<point x="503" y="584" type="curve" smooth="yes"/>
			<point x="511" y="605"/>
			<point x="535" y="629"/>
			<point x="574" y="657" type="curve" smooth="yes"/>
			<point x="613" y="685"/>
			<point x="635" y="701"/>
			<point x="640" y="705" type="curve"/>
			<point x="645" y="701"/>
			<point x="667" y="685"/>
			<point x="706" y="657" type="curve" smooth="yes"/>
			<point x="745" y="629"/>
			<point x="768" y="605"/>
			<point x="776" y="584" type="curve" smooth="yes"/>
			<point x="784" y="563"/>
			<point x="784" y="543"/>
			<point x="775" y="524" type="curve"/>
			<point x="800" y="527"/>
			<point x="824" y="529"/>
			<point x="847" y="529" type="curve" smooth="yes"/>
			<point x="943" y="528"/>
			<point x="1028" y="500"/>
			<point x="1102" y="446" type="curve"/>
			<point x="1191" y="379"/>
			<point x="1235" y="286"/>
			<point x="1235" y="166" type="curve" smooth="yes"/>
			<point x="1235" y="46"/>
			<point x="1191" y="-47"/>
			<point x="1102" y="-114" type="curve" smooth="yes"/>
			<point x="1029" y="-169"/>
			<point x="944" y="-196"/>
			<point x="847" y="-197" type="curve" smooth="yes"/>
			<point x="824" y="-197"/>
			<point x="800" y="-196"/>
			<point x="775" y="-193" type="curve"/>
			<point x="784" y="-211"/>
			<point x="784" y="-231"/>
			<point x="776" y="-252" type="curve" smooth="yes"/>
			<point x="768" y="-273"/>
			<point x="744" y="-297"/>
			<point x="705" y="-325" type="curve" smooth="yes"/>
			<point x="666" y="-353"/>
			<point x="645" y="-369"/>
		</contour>
		<contour>
			<point x="640" y="436" type="curve"/>
			<point x="641" y="443"/>
			<point x="646" y="449"/>
			<point x="654" y="455" type="curve" smooth="yes"/>
			<point x="702" y="490"/>
			<point x="726" y="527"/>
			<point x="726" y="563" type="curve"/>
			<point x="725" y="597"/>
			<point x="696" y="634"/>
			<point x="640" y="675" type="curve"/>
			<point x="584" y="634"/>
			<point x="555" y="597"/>
			<point x="554" y="563" type="curve"/>
			<point x="554" y="526"/>
			<point x="577" y="490"/>
			<point x="625" y="455" type="curve" smooth="yes"/>
			<point x="633" y="449"/>
			<point x="639" y="443"/>
		</contour>
	</outline>
</glyph>
<glyph name="hizb-ar" format="2">
	<unicode hex="06DE"/>
	<advance width="652"/>
	<outline>
		<contour>
			<point x="462" y="352" type="line" smooth="yes"/>
			<point x="485" y="380"/>
			<point x="506" y="385"/>
			<point x="525" y="366" type="curve" smooth="yes"/>
			<point x="544" y="347"/>
			<point x="540" y="325"/>
			<point x="512" y="302" type="curve" smooth="yes"/>
			<point x="367" y="183" type="line"/>
			<point x="554" y="201" type="line" smooth="yes"/>
			<point x="590" y="205"/>
			<point x="608" y="193"/>
			<point x="608" y="166" type="curve" smooth="yes"/>
			<point x="608" y="139"/>
			<point x="590" y="127"/>
			<point x="554" y="131" type="curve" smooth="yes"/>
			<point x="367" y="149" type="line"/>
			<point x="512" y="30" type="line" smooth="yes"/>
			<point x="540" y="7"/>
			<point x="545" y="-15"/>
			<point x="526" y="-34" type="curve" smooth="yes"/>
			<point x="507" y="-53"/>
			<point x="485" y="-49"/>
			<point x="462" y="-20" type="curve" smooth="yes"/>
			<point x="343" y="125" type="line"/>
			<point x="361" y="-62" type="line" smooth="yes"/>
			<point x="365" y="-98"/>
			<point x="353" y="-116"/>
			<point x="326" y="-116" type="curve" smooth="yes"/>
			<point x="299" y="-116"/>
			<point x="287" y="-98"/>
			<point x="291" y="-62" type="curve" smooth="yes"/>
			<point x="309" y="125" type="line"/>
			<point x="190" y="-20" type="line" smooth="yes"/>
			<point x="167" y="-48"/>
			<point x="145" y="-53"/>
			<point x="126" y="-34" type="curve" smooth="yes"/>
			<point x="107" y="-15"/>
			<point x="113" y="7"/>
			<point x="141" y="30" type="curve" smooth="yes"/>
			<point x="286" y="149" type="line"/>
			<point x="99" y="131" type="line" smooth="yes"/>
			<point x="63" y="127"/>
			<point x="44" y="139"/>
			<point x="44" y="166" type="curve" smooth="yes"/>
			<point x="44" y="193"/>
			<point x="63" y="205"/>
			<point x="99" y="201" type="curve" smooth="yes"/>
			<point x="286" y="183" type="line"/>
			<point x="141" y="302" type="line" smooth="yes"/>
			<point x="113" y="325"/>
			<point x="108" y="347"/>
			<point x="127" y="366" type="curve" smooth="yes"/>
			<point x="146" y="385"/>
			<point x="167" y="380"/>
			<point x="190" y="352" type="curve" smooth="yes"/>
			<point x="309" y="207" type="line"/>
			<point x="291" y="394" type="line" smooth="yes"/>
			<point x="287" y="430"/>
			<point x="299" y="448"/>
			<point x="326" y="448" type="curve" smooth="yes"/>
			<point x="353" y="448"/>
			<point x="365" y="430"/>
			<point x="361" y="394" type="curve" smooth="yes"/>
			<point x="343" y="206" type="line"/>
		</contour>
	</outline>
</glyph>
<glyph name="sukunround-ar" format="2">
	<unicode hex="06DF"/>
	<outline>
		<contour>
			<point x="120" y="965" type="curve" smooth="yes"/>
			<point x="145" y="1009"/>
			<point x="178" y="1018"/>
			<point x="218" y="989" type="curve" smooth="yes"/>
			<point x="248" y="967"/>
			<point x="261" y="943"/>
			<point x="259" y="917" type="curve" smooth="yes"/>
			<point x="256" y="884"/>
			<point x="246" y="859"/>
			<point x="228" y="842" type="curve" smooth="yes"/>
			<point x="217" y="831"/>
			<point x="197" y="826"/>
			<point x="167" y="828" type="curve" smooth="yes"/>
			<point x="116" y="830"/>
			<point x="95" y="861"/>
			<point x="105" y="922" type="curve" smooth="yes"/>
			<point x="108" y="938"/>
			<point x="113" y="952"/>
		</contour>
		<contour>
			<point x="225" y="897" type="curve" smooth="yes"/>
			<point x="237" y="900"/>
			<point x="235" y="909"/>
			<point x="220" y="925" type="curve" smooth="yes"/>
			<point x="204" y="941"/>
			<point x="187" y="949"/>
			<point x="170" y="950" type="curve" smooth="yes"/>
			<point x="144" y="950"/>
			<point x="130" y="941"/>
			<point x="128" y="920" type="curve" smooth="yes"/>
			<point x="127" y="911"/>
			<point x="130" y="904"/>
			<point x="138" y="901" type="curve" smooth="yes"/>
			<point x="162" y="891"/>
			<point x="192" y="890"/>
		</contour>
	</outline>
	<anchor name="_MarkAbove" x="180" y="801"/>
	<anchor name="_TashkilAbove" x="182" y="801"/>
</glyph>
<glyph name="sukunoval-ar" format="2">
	<unicode hex="06E0"/>
	<outline>
		<contour>
			<point x="216" y="973" type="curve" smooth="yes"/>
			<point x="216" y="1012"/>
			<point x="214" y="1039"/>
			<point x="210" y="1053" type="curve" smooth="yes"/>
			<point x="205" y="1071"/>
			<point x="195" y="1080"/>
			<point x="178" y="1080" type="curve" smooth="yes"/>
			<point x="163" y="1080"/>
			<point x="152" y="1071"/>
			<point x="146" y="1053" type="curve" smooth="yes"/>
			<point x="142" y="1041"/>
			<point x="141" y="1014"/>
			<point x="141" y="973" type="curve" smooth="yes"/>
			<point x="141" y="933"/>
			<point x="142" y="906"/>
			<point x="146" y="892" type="curve" smooth="yes"/>
			<point x="151" y="874"/>
			<point x="162" y="866"/>
			<point x="178" y="866" type="curve" smooth="yes"/>
			<point x="195" y="866"/>
			<point x="205" y="874"/>
			<point x="210" y="892" type="curve" smooth="yes"/>
			<point x="214" y="906"/>
			<point x="216" y="933"/>
		</contour>
		<contour>
			<point x="101" y="973" type="curve" smooth="yes"/>
			<point x="101" y="1011"/>
			<point x="109" y="1042"/>
			<point x="125" y="1064" type="curve" smooth="yes"/>
			<point x="141" y="1087"/>
			<point x="159" y="1099"/>
			<point x="178" y="1099" type="curve" smooth="yes"/>
			<point x="198" y="1099"/>
			<point x="215" y="1087"/>
			<point x="231" y="1064" type="curve" smooth="yes"/>
			<point x="247" y="1041"/>
			<point x="256" y="1011"/>
			<point x="256" y="973" type="curve" smooth="yes"/>
			<point x="256" y="934"/>
			<point x="247" y="904"/>
			<point x="231" y="881" type="curve" smooth="yes"/>
			<point x="215" y="858"/>
			<point x="198" y="847"/>
			<point x="178" y="847" type="curve" smooth="yes"/>
			<point x="159" y="847"/>
			<point x="141" y="858"/>
			<point x="125" y="881" type="curve" smooth="yes"/>
			<point x="109" y="904"/>
			<point x="101" y="934"/>
		</contour>
	</outline>
	<anchor name="_MarkAbove" x="180" y="801"/>
	<anchor name="_TashkilAbove" x="182" y="801"/>
</glyph>
<glyph name="hahabove-ar" format="2">
	<unicode hex="06E1"/>
	<outline>
		<contour>
			<point x="260" y="995" type="line" smooth="yes"/>
			<point x="275" y="991"/>
			<point x="280" y="980"/>
			<point x="273" y="962" type="curve" smooth="yes"/>
			<point x="269" y="952"/>
			<point x="262" y="942"/>
			<point x="254" y="934" type="curve" smooth="yes"/>
			<point x="230" y="910"/>
			<point x="212" y="893"/>
			<point x="199" y="883" type="curve" smooth="yes"/>
			<point x="189" y="874"/>
			<point x="177" y="868"/>
			<point x="164" y="866" type="curve" smooth="yes"/>
			<point x="142" y="863"/>
			<point x="117" y="865"/>
			<point x="87" y="872" type="curve" smooth="yes"/>
			<point x="81" y="873"/>
			<point x="79" y="877"/>
			<point x="80" y="883" type="curve"/>
			<point x="81" y="887"/>
			<point x="83" y="890"/>
			<point x="87" y="890" type="curve" smooth="yes"/>
			<point x="139" y="894"/>
			<point x="181" y="909"/>
			<point x="214" y="935" type="curve"/>
			<point x="193" y="944"/>
			<point x="176" y="948"/>
			<point x="159" y="949" type="curve" smooth="yes"/>
			<point x="141" y="950"/>
			<point x="123" y="946"/>
			<point x="107" y="939" type="curve" smooth="yes"/>
			<point x="102" y="937"/>
			<point x="99" y="937"/>
			<point x="96" y="941" type="curve" smooth="yes"/>
			<point x="92" y="947"/>
			<point x="91" y="952"/>
			<point x="95" y="957" type="curve" smooth="yes"/>
			<point x="111" y="977"/>
			<point x="126" y="991"/>
			<point x="139" y="1001" type="curve" smooth="yes"/>
			<point x="154" y="1013"/>
			<point x="174" y="1016"/>
			<point x="199" y="1010" type="curve" smooth="yes"/>
		</contour>
	</outline>
	<anchor name="TashkilTashkilAbove" x="179" y="1069"/>
	<anchor name="_MarkAbove" x="180" y="801"/>
	<anchor name="_TashkilAbove" x="182" y="801"/>
	<anchor name="_TashkilAboveDot" x="182" y="801"/>
</glyph>
<glyph name="meemStopabove-ar" format="2">
	<unicode hex="06E2"/>
	<outline>
		<contour>
			<point x="83" y="1054" type="curve" smooth="yes"/>
			<point x="68" y="1042"/>
			<point x="64" y="1045"/>
			<point x="70" y="1061" type="curve" smooth="yes"/>
			<point x="77" y="1082"/>
			<point x="89" y="1100"/>
			<point x="102" y="1114" type="curve" smooth="yes"/>
			<point x="115" y="1128"/>
			<point x="133" y="1128"/>
			<point x="156" y="1115" type="curve" smooth="yes"/>
			<point x="174" y="1105"/>
			<point x="188" y="1089"/>
			<point x="198" y="1070" type="curve" smooth="yes"/>
			<point x="201" y="1065"/>
			<point x="202" y="1059"/>
			<point x="201" y="1053" type="curve" smooth="yes"/>
			<point x="196" y="1020" type="line" smooth="yes"/>
			<point x="195" y="1013"/>
			<point x="189" y="1008"/>
			<point x="180" y="1007" type="curve" smooth="yes"/>
			<point x="105" y="997"/>
			<point x="65" y="980"/>
			<point x="58" y="954" type="curve"/>
			<point x="86" y="879"/>
			<point x="101" y="825"/>
			<point x="103" y="792" type="curve" smooth="yes"/>
			<point x="104" y="779"/>
			<point x="101" y="772"/>
			<point x="95" y="771" type="curve" smooth="yes"/>
			<point x="88" y="770"/>
			<point x="84" y="776"/>
			<point x="81" y="787" type="curve" smooth="yes"/>
			<point x="77" y="804"/>
			<point x="69" y="830"/>
			<point x="56" y="865" type="curve" smooth="yes"/>
			<point x="42" y="901"/>
			<point x="36" y="933"/>
			<point x="38" y="959" type="curve"/>
			<point x="42" y="1008"/>
			<point x="74" y="1040"/>
			<point x="133" y="1053" type="curve"/>
			<point x="119" y="1069"/>
			<point x="102" y="1070"/>
		</contour>
	</outline>
	<anchor name="_MarkAbove" x="155" y="801"/>
	<anchor name="_TashkilTashkilAbove2" x="220" y="1050"/>
	<anchor name="_TashkilTashkilAbove" x="220" y="1050"/>
	<anchor name="_TashkilAbove" x="156" y="801"/>
	<anchor name="_TashkilAboveDot" x="156" y="801"/>
</glyph>
<glyph name="maddalong-ar" format="2">
	<unicode hex="06E4"/>
	<outline>
		<contour>
			<point x="157" y="899" type="curve" smooth="yes"/>
			<point x="167" y="902"/>
			<point x="173" y="898"/>
			<point x="176" y="890" type="curve" smooth="yes"/>
			<point x="179" y="882"/>
			<point x="176" y="875"/>
			<point x="169" y="870" type="curve" smooth="yes"/>
			<point x="112" y="832"/>
			<point x="19" y="815"/>
			<point x="-110" y="819" type="curve"/>
			<point x="-115" y="808"/>
			<point x="-119" y="800"/>
			<point x="-124" y="795" type="curve" smooth="yes"/>
			<point x="-129" y="790"/>
			<point x="-133" y="789"/>
			<point x="-136" y="792" type="curve" smooth="yes"/>
			<point x="-173" y="831" type="line"/>
			<point x="-180" y="838"/>
			<point x="-172" y="855"/>
			<point x="-148" y="882" type="curve" smooth="yes"/>
			<point x="-143" y="887"/>
			<point x="-136" y="889"/>
			<point x="-126" y="887" type="curve" smooth="yes"/>
			<point x="-31" y="872"/>
			<point x="63" y="876"/>
		</contour>
	</outline>
	<anchor name="_AlefAbove" x="0" y="635"/>
	<anchor name="_TashkilTashkilAbove" x="0" y="810"/>
	<anchor name="_MarkAbove" x="0" y="781"/>
	<anchor name="_TashkilTashkilAbove2" x="0" y="810"/>
	<anchor name="_TashkilAbove" x="0" y="810"/>
</glyph>
<glyph name="wawSmall-ar" format="2">
	<unicode hex="06E5"/>
	<advance width="333"/>
	<outline>
		<contour>
			<point x="249" y="166" type="curve"/>
			<point x="242" y="183"/>
			<point x="233" y="193"/>
			<point x="224" y="195" type="curve" smooth="yes"/>
			<point x="216" y="197"/>
			<point x="210" y="195"/>
			<point x="206" y="189" type="curve" smooth="yes"/>
			<point x="203" y="184"/>
			<point x="203" y="179"/>
			<point x="209" y="174" type="curve" smooth="yes"/>
			<point x="216" y="168"/>
			<point x="229" y="166"/>
		</contour>
		<contour>
			<point x="252" y="103" type="curve"/>
			<point x="241" y="101"/>
			<point x="227" y="101"/>
			<point x="209" y="104" type="curve" smooth="yes"/>
			<point x="176" y="110"/>
			<point x="165" y="134"/>
			<point x="176" y="178" type="curve" smooth="yes"/>
			<point x="182" y="201"/>
			<point x="192" y="223"/>
			<point x="208" y="244" type="curve" smooth="yes"/>
			<point x="215" y="254"/>
			<point x="224" y="258"/>
			<point x="234" y="258" type="curve" smooth="yes"/>
			<point x="245" y="258"/>
			<point x="256" y="252"/>
			<point x="265" y="241" type="curve" smooth="yes"/>
			<point x="290" y="209"/>
			<point x="296" y="162"/>
			<point x="282" y="98" type="curve" smooth="yes"/>
			<point x="273" y="56"/>
			<point x="255" y="22"/>
			<point x="227" y="-4" type="curve" smooth="yes"/>
			<point x="210" y="-20"/>
			<point x="192" y="-30"/>
			<point x="174" y="-33" type="curve" smooth="yes"/>
			<point x="130" y="-41"/>
			<point x="91" y="-35"/>
			<point x="55" y="-14" type="curve" smooth="yes"/>
			<point x="46" y="-9"/>
			<point x="42" y="-4"/>
			<point x="45" y="0" type="curve" smooth="yes"/>
			<point x="48" y="4"/>
			<point x="53" y="5"/>
			<point x="62" y="5" type="curve" smooth="yes"/>
			<point x="99" y="4"/>
			<point x="135" y="10"/>
			<point x="167" y="24" type="curve" smooth="yes"/>
			<point x="207" y="41"/>
			<point x="235" y="68"/>
		</contour>
	</outline>
	<anchor name="TashkilAbove" x="195" y="417"/>
</glyph>
<glyph name="yehSmall-ar" format="2">
	<unicode hex="06E6"/>
	<advance width="407"/>
	<outline>
		<contour>
			<point x="193" y="219" type="curve" smooth="yes"/>
			<point x="204" y="245"/>
			<point x="219" y="259"/>
			<point x="236" y="259" type="curve" smooth="yes"/>
			<point x="258" y="259"/>
			<point x="272" y="246"/>
			<point x="279" y="219" type="curve" smooth="yes"/>
			<point x="284" y="200"/>
			<point x="285" y="176"/>
			<point x="284" y="148" type="curve" smooth="yes"/>
			<point x="284" y="139"/>
			<point x="281" y="135"/>
			<point x="276" y="135" type="curve" smooth="yes"/>
			<point x="271" y="135"/>
			<point x="268" y="139"/>
			<point x="267" y="147" type="curve" smooth="yes"/>
			<point x="262" y="181"/>
			<point x="250" y="198"/>
			<point x="230" y="198" type="curve" smooth="yes"/>
			<point x="216" y="198"/>
			<point x="202" y="185"/>
			<point x="188" y="159" type="curve" smooth="yes"/>
			<point x="169" y="124"/>
			<point x="132" y="92"/>
			<point x="75" y="65" type="curve" smooth="yes"/>
			<point x="68" y="62"/>
			<point x="66" y="60"/>
			<point x="68" y="58" type="curve"/>
			<point x="144" y="41"/>
			<point x="235" y="43"/>
			<point x="342" y="62" type="curve" smooth="yes"/>
			<point x="367" y="67"/>
			<point x="372" y="60"/>
			<point x="355" y="44" type="curve" smooth="yes"/>
			<point x="354" y="44"/>
			<point x="347" y="38"/>
			<point x="332" y="26" type="curve" smooth="yes"/>
			<point x="317" y="14"/>
			<point x="303" y="8"/>
			<point x="292" y="6" type="curve" smooth="yes"/>
			<point x="255" y="0"/>
			<point x="216" y="-3"/>
			<point x="173" y="-2" type="curve" smooth="yes"/>
			<point x="130" y="-1"/>
			<point x="100" y="1"/>
			<point x="83" y="6" type="curve"/>
			<point x="48" y="17"/>
			<point x="39" y="39"/>
			<point x="56" y="71" type="curve" smooth="yes"/>
			<point x="70" y="97"/>
			<point x="84" y="114"/>
			<point x="99" y="122" type="curve" smooth="yes"/>
			<point x="145" y="149"/>
			<point x="176" y="181"/>
		</contour>
	</outline>
	<anchor name="TashkilAbove" x="205" y="417"/>
</glyph>
<glyph name="noonabove-ar" format="2">
	<unicode hex="06E8"/>
	<outline>
		<contour>
			<point x="129" y="1206" type="line" smooth="yes"/>
			<point x="130" y="1208"/>
			<point x="132" y="1208"/>
			<point x="134" y="1207" type="curve" smooth="yes"/>
			<point x="149" y="1202"/>
			<point x="163" y="1194"/>
			<point x="175" y="1183" type="curve" smooth="yes"/>
			<point x="177" y="1181"/>
			<point x="177" y="1180"/>
			<point x="176" y="1178" type="curve" smooth="yes"/>
			<point x="148" y="1134" type="line" smooth="yes"/>
			<point x="147" y="1132"/>
			<point x="145" y="1133"/>
			<point x="142" y="1135" type="curve" smooth="yes"/>
			<point x="139" y="1137"/>
			<point x="126" y="1145"/>
			<point x="102" y="1160" type="curve" smooth="yes"/>
			<point x="100" y="1161"/>
			<point x="100" y="1163"/>
			<point x="101" y="1164" type="curve" smooth="yes"/>
		</contour>
		<contour>
			<point x="236" y="1119" type="curve"/>
			<point x="250" y="1094"/>
			<point x="262" y="1064"/>
			<point x="270" y="1028" type="curve" smooth="yes"/>
			<point x="278" y="992"/>
			<point x="279" y="958"/>
			<point x="274" y="924" type="curve" smooth="yes"/>
			<point x="271" y="906"/>
			<point x="265" y="890"/>
			<point x="257" y="877" type="curve" smooth="yes"/>
			<point x="235" y="842"/>
			<point x="196" y="822"/>
			<point x="140" y="816" type="curve" smooth="yes"/>
			<point x="100" y="812"/>
			<point x="70" y="819"/>
			<point x="49" y="839" type="curve" smooth="yes"/>
			<point x="28" y="859"/>
			<point x="18" y="885"/>
			<point x="20" y="920" type="curve" smooth="yes"/>
			<point x="22" y="955"/>
			<point x="34" y="988"/>
			<point x="56" y="1018" type="curve" smooth="yes"/>
			<point x="59" y="1022"/>
			<point x="61" y="1023"/>
			<point x="64" y="1021" type="curve" smooth="yes"/>
			<point x="67" y="1019"/>
			<point x="66" y="1016"/>
			<point x="63" y="1010" type="curve" smooth="yes"/>
			<point x="39" y="970"/>
			<point x="35" y="937"/>
			<point x="50" y="912" type="curve" smooth="yes"/>
			<point x="65" y="887"/>
			<point x="94" y="875"/>
			<point x="137" y="875" type="curve"/>
			<point x="187" y="876"/>
			<point x="228" y="892"/>
			<point x="259" y="925" type="curve" smooth="yes"/>
			<point x="260" y="926"/>
			<point x="260" y="927"/>
			<point x="260" y="930" type="curve" smooth="yes"/>
			<point x="260" y="948"/>
			<point x="254" y="972"/>
			<point x="243" y="1002" type="curve" smooth="yes"/>
			<point x="232" y="1032"/>
			<point x="221" y="1055"/>
			<point x="212" y="1068" type="curve" smooth="yes"/>
			<point x="209" y="1072"/>
			<point x="209" y="1075"/>
			<point x="210" y="1078" type="curve" smooth="yes"/>
			<point x="228" y="1121" type="line" smooth="yes"/>
			<point x="230" y="1126"/>
			<point x="232" y="1126"/>
		</contour>
	</outline>
	<anchor name="TashkilTashkilAbove" x="127" y="1249"/>
	<anchor name="_MarkAbove" x="141" y="801"/>
	<anchor name="_NoonAbove" x="142" y="801"/>
</glyph>
